<ttFont>
<head>
    <!-- Most of this table will be recalculated by the compiler -->
    <tableVersion value="1.0"/>
    <fontRevision value="5.0"/>
    <checkSumAdjustment value="0xafc69224"/>
    <magicNumber value="0x5f0f3cf5"/>
    <flags value="00000000 00001011"/>
    <unitsPerEm value="2048"/>
    <created value="Sun May 15 08:57:39 2005"/>
    <modified value="Thu Apr 14 14:18:56 2011"/>
    <xMin value="-36"/>
    <yMin value="-1069"/>
    <xMax value="7562"/>
    <yMax value="2286"/>
    <macStyle value="00000000 00000000"/>
    <lowestRecPPEM value="8"/>
    <fontDirectionHint value="2"/>
    <indexToLocFormat value="1"/>
    <glyphDataFormat value="0"/>
  </head>
    <TTGlyph name=".notdef" xMin="142" yMin="226" xMax="842" yMax="1588">
      <contour>
        <pt x="142" y="226" on="1"/>
        <pt x="142" y="1588" on="1"/>
        <pt x="842" y="1588" on="1"/>
        <pt x="842" y="226" on="1"/>
      </contour>
      <contour>
        <pt x="284" y="368" on="1"/>
        <pt x="700" y="368" on="1"/>
        <pt x="700" y="1447" on="1"/>
        <pt x="284" y="1447" on="1"/>
      </contour>
    </TTGlyph>
    <TTGlyph name=".null" xMin="142" yMin="226" xMax="842" yMax="1588">
      <contour>
        <pt x="142" y="226" on="1"/>
        <pt x="142" y="1588" on="1"/>
        <pt x="842" y="1588" on="1"/>
        <pt x="842" y="226" on="1"/>
      </contour>
      <contour>
        <pt x="284" y="368" on="1"/>
        <pt x="700" y="368" on="1"/>
        <pt x="700" y="1447" on="1"/>
        <pt x="284" y="1447" on="1"/>
      </contour>
    </TTGlyph>
    <TTGlyph name="afii57381" xMin="142" yMin="226" xMax="842" yMax="1588">
      <contour>
        <pt x="142" y="226" on="1"/>
        <pt x="142" y="1588" on="1"/>
        <pt x="842" y="1588" on="1"/>
        <pt x="842" y="226" on="1"/>
      </contour>
      <contour>
        <pt x="284" y="368" on="1"/>
        <pt x="700" y="368" on="1"/>
        <pt x="700" y="1447" on="1"/>
        <pt x="284" y="1447" on="1"/>
      </contour>
    </TTGlyph>
    <TTGlyph name="afii57388" xMin="142" yMin="226" xMax="842" yMax="1588">
      <contour>
        <pt x="142" y="226" on="1"/>
        <pt x="142" y="1588" on="1"/>
        <pt x="842" y="1588" on="1"/>
        <pt x="842" y="226" on="1"/>
      </contour>
      <contour>
        <pt x="284" y="368" on="1"/>
        <pt x="700" y="368" on="1"/>
        <pt x="700" y="1447" on="1"/>
        <pt x="284" y="1447" on="1"/>
      </contour>
    </TTGlyph>
    <TTGlyph name="afii57396" xMin="142" yMin="226" xMax="842" yMax="1588">
      <contour>
        <pt x="142" y="226" on="1"/>
        <pt x="142" y="1588" on="1"/>
        <pt x="842" y="1588" on="1"/>
        <pt x="842" y="226" on="1"/>
      </contour>
      <contour>
        <pt x="284" y="368" on="1"/>
        <pt x="700" y="368" on="1"/>
        <pt x="700" y="1447" on="1"/>
        <pt x="284" y="1447" on="1"/>
      </contour>
    </TTGlyph>
    <TTGlyph name="afii57397" xMin="142" yMin="226" xMax="842" yMax="1588">
      <contour>
        <pt x="142" y="226" on="1"/>
        <pt x="142" y="1588" on="1"/>
        <pt x="842" y="1588" on="1"/>
        <pt x="842" y="226" on="1"/>
      </contour>
      <contour>
        <pt x="284" y="368" on="1"/>
        <pt x="700" y="368" on="1"/>
        <pt x="700" y="1447" on="1"/>
        <pt x="284" y="1447" on="1"/>
      </contour>
    </TTGlyph>
    <TTGlyph name="afii57398" xMin="142" yMin="226" xMax="842" yMax="1588">
      <contour>
        <pt x="142" y="226" on="1"/>
        <pt x="142" y="1588" on="1"/>
        <pt x="842" y="1588" on="1"/>
        <pt x="842" y="226" on="1"/>
      </contour>
      <contour>
        <pt x="284" y="368" on="1"/>
        <pt x="700" y="368" on="1"/>
        <pt x="700" y="1447" on="1"/>
        <pt x="284" y="1447" on="1"/>
      </contour>
    </TTGlyph>
    <TTGlyph name="afii57403" xMin="142" yMin="226" xMax="842" yMax="1588">
      <contour>
        <pt x="142" y="226" on="1"/>
        <pt x="142" y="1588" on="1"/>
        <pt x="842" y="1588" on="1"/>
        <pt x="842" y="226" on="1"/>
      </contour>
      <contour>
        <pt x="284" y="368" on="1"/>
        <pt x="700" y="368" on="1"/>
        <pt x="700" y="1447" on="1"/>
        <pt x="284" y="1447" on="1"/>
      </contour>
    </TTGlyph>
    <TTGlyph name="afii57407" xMin="142" yMin="226" xMax="842" yMax="1588">
      <contour>
        <pt x="142" y="226" on="1"/>
        <pt x="142" y="1588" on="1"/>
        <pt x="842" y="1588" on="1"/>
        <pt x="842" y="226" on="1"/>
      </contour>
      <contour>
        <pt x="284" y="368" on="1"/>
        <pt x="700" y="368" on="1"/>
        <pt x="700" y="1447" on="1"/>
        <pt x="284" y="1447" on="1"/>
      </contour>
    </TTGlyph>
    <TTGlyph name="afii57440" xMin="142" yMin="226" xMax="842" yMax="1588">
      <contour>
        <pt x="142" y="226" on="1"/>
        <pt x="142" y="1588" on="1"/>
        <pt x="842" y="1588" on="1"/>
        <pt x="842" y="226" on="1"/>
      </contour>
      <contour>
        <pt x="284" y="368" on="1"/>
        <pt x="700" y="368" on="1"/>
        <pt x="700" y="1447" on="1"/>
        <pt x="284" y="1447" on="1"/>
      </contour>
    </TTGlyph>
    <TTGlyph name="afii57451" xMin="142" yMin="226" xMax="842" yMax="1588">
      <contour>
        <pt x="142" y="226" on="1"/>
        <pt x="142" y="1588" on="1"/>
        <pt x="842" y="1588" on="1"/>
        <pt x="842" y="226" on="1"/>
      </contour>
      <contour>
        <pt x="284" y="368" on="1"/>
        <pt x="700" y="368" on="1"/>
        <pt x="700" y="1447" on="1"/>
        <pt x="284" y="1447" on="1"/>
      </contour>
    </TTGlyph>
    <TTGlyph name="afii57452" xMin="142" yMin="226" xMax="842" yMax="1588">
      <contour>
        <pt x="142" y="226" on="1"/>
        <pt x="142" y="1588" on="1"/>
        <pt x="842" y="1588" on="1"/>
        <pt x="842" y="226" on="1"/>
      </contour>
      <contour>
        <pt x="284" y="368" on="1"/>
        <pt x="700" y="368" on="1"/>
        <pt x="700" y="1447" on="1"/>
        <pt x="284" y="1447" on="1"/>
      </contour>
    </TTGlyph>
    <TTGlyph name="afii57453" xMin="142" yMin="226" xMax="842" yMax="1588">
      <contour>
        <pt x="142" y="226" on="1"/>
        <pt x="142" y="1588" on="1"/>
        <pt x="842" y="1588" on="1"/>
        <pt x="842" y="226" on="1"/>
      </contour>
      <contour>
        <pt x="284" y="368" on="1"/>
        <pt x="700" y="368" on="1"/>
        <pt x="700" y="1447" on="1"/>
        <pt x="284" y="1447" on="1"/>
      </contour>
    </TTGlyph>
    <TTGlyph name="afii57454" xMin="142" yMin="226" xMax="842" yMax="1588">
      <contour>
        <pt x="142" y="226" on="1"/>
        <pt x="142" y="1588" on="1"/>
        <pt x="842" y="1588" on="1"/>
        <pt x="842" y="226" on="1"/>
      </contour>
      <contour>
        <pt x="284" y="368" on="1"/>
        <pt x="700" y="368" on="1"/>
        <pt x="700" y="1447" on="1"/>
        <pt x="284" y="1447" on="1"/>
      </contour>
    </TTGlyph>
    <TTGlyph name="afii57455" xMin="142" yMin="226" xMax="842" yMax="1588">
      <contour>
        <pt x="142" y="226" on="1"/>
        <pt x="142" y="1588" on="1"/>
        <pt x="842" y="1588" on="1"/>
        <pt x="842" y="226" on="1"/>
      </contour>
      <contour>
        <pt x="284" y="368" on="1"/>
        <pt x="700" y="368" on="1"/>
        <pt x="700" y="1447" on="1"/>
        <pt x="284" y="1447" on="1"/>
      </contour>
    </TTGlyph>
    <TTGlyph name="afii57456" xMin="142" yMin="226" xMax="842" yMax="1588">
      <contour>
        <pt x="142" y="226" on="1"/>
        <pt x="142" y="1588" on="1"/>
        <pt x="842" y="1588" on="1"/>
        <pt x="842" y="226" on="1"/>
      </contour>
      <contour>
        <pt x="284" y="368" on="1"/>
        <pt x="700" y="368" on="1"/>
        <pt x="700" y="1447" on="1"/>
        <pt x="284" y="1447" on="1"/>
      </contour>
    </TTGlyph>
    <TTGlyph name="afii57457" xMin="142" yMin="226" xMax="842" yMax="1588">
      <contour>
        <pt x="142" y="226" on="1"/>
        <pt x="142" y="1588" on="1"/>
        <pt x="842" y="1588" on="1"/>
        <pt x="842" y="226" on="1"/>
      </contour>
      <contour>
        <pt x="284" y="368" on="1"/>
        <pt x="700" y="368" on="1"/>
        <pt x="700" y="1447" on="1"/>
        <pt x="284" y="1447" on="1"/>
      </contour>
    </TTGlyph>
    <TTGlyph name="afii57458" xMin="142" yMin="226" xMax="842" yMax="1588">
      <contour>
        <pt x="142" y="226" on="1"/>
        <pt x="142" y="1588" on="1"/>
        <pt x="842" y="1588" on="1"/>
        <pt x="842" y="226" on="1"/>
      </contour>
      <contour>
        <pt x="284" y="368" on="1"/>
        <pt x="700" y="368" on="1"/>
        <pt x="700" y="1447" on="1"/>
        <pt x="284" y="1447" on="1"/>
      </contour>
    </TTGlyph>
    <TTGlyph name="afii57505" xMin="142" yMin="226" xMax="842" yMax="1588">
      <contour>
        <pt x="142" y="226" on="1"/>
        <pt x="142" y="1588" on="1"/>
        <pt x="842" y="1588" on="1"/>
        <pt x="842" y="226" on="1"/>
      </contour>
      <contour>
        <pt x="284" y="368" on="1"/>
        <pt x="700" y="368" on="1"/>
        <pt x="700" y="1447" on="1"/>
        <pt x="284" y="1447" on="1"/>
      </contour>
    </TTGlyph>
    <TTGlyph name="afii57506" xMin="142" yMin="226" xMax="842" yMax="1588">
      <contour>
        <pt x="142" y="226" on="1"/>
        <pt x="142" y="1588" on="1"/>
        <pt x="842" y="1588" on="1"/>
        <pt x="842" y="226" on="1"/>
      </contour>
      <contour>
        <pt x="284" y="368" on="1"/>
        <pt x="700" y="368" on="1"/>
        <pt x="700" y="1447" on="1"/>
        <pt x="284" y="1447" on="1"/>
      </contour>
    </TTGlyph>
    <TTGlyph name="afii57507" xMin="142" yMin="226" xMax="842" yMax="1588">
      <contour>
        <pt x="142" y="226" on="1"/>
        <pt x="142" y="1588" on="1"/>
        <pt x="842" y="1588" on="1"/>
        <pt x="842" y="226" on="1"/>
      </contour>
      <contour>
        <pt x="284" y="368" on="1"/>
        <pt x="700" y="368" on="1"/>
        <pt x="700" y="1447" on="1"/>
        <pt x="284" y="1447" on="1"/>
      </contour>
    </TTGlyph>
    <TTGlyph name="afii57508" xMin="142" yMin="226" xMax="842" yMax="1588">
      <contour>
        <pt x="142" y="226" on="1"/>
        <pt x="142" y="1588" on="1"/>
        <pt x="842" y="1588" on="1"/>
        <pt x="842" y="226" on="1"/>
      </contour>
      <contour>
        <pt x="284" y="368" on="1"/>
        <pt x="700" y="368" on="1"/>
        <pt x="700" y="1447" on="1"/>
        <pt x="284" y="1447" on="1"/>
      </contour>
    </TTGlyph>
    <TTGlyph name="afii57509" xMin="142" yMin="226" xMax="842" yMax="1588">
      <contour>
        <pt x="142" y="226" on="1"/>
        <pt x="142" y="1588" on="1"/>
        <pt x="842" y="1588" on="1"/>
        <pt x="842" y="226" on="1"/>
      </contour>
      <contour>
        <pt x="284" y="368" on="1"/>
        <pt x="700" y="368" on="1"/>
        <pt x="700" y="1447" on="1"/>
        <pt x="284" y="1447" on="1"/>
      </contour>
    </TTGlyph>
    <TTGlyph name="afii57511" xMin="142" yMin="226" xMax="842" yMax="1588">
      <contour>
        <pt x="142" y="226" on="1"/>
        <pt x="142" y="1588" on="1"/>
        <pt x="842" y="1588" on="1"/>
        <pt x="842" y="226" on="1"/>
      </contour>
      <contour>
        <pt x="284" y="368" on="1"/>
        <pt x="700" y="368" on="1"/>
        <pt x="700" y="1447" on="1"/>
        <pt x="284" y="1447" on="1"/>
      </contour>
    </TTGlyph>
    <TTGlyph name="afii57512" xMin="142" yMin="226" xMax="842" yMax="1588">
      <contour>
        <pt x="142" y="226" on="1"/>
        <pt x="142" y="1588" on="1"/>
        <pt x="842" y="1588" on="1"/>
        <pt x="842" y="226" on="1"/>
      </contour>
      <contour>
        <pt x="284" y="368" on="1"/>
        <pt x="700" y="368" on="1"/>
        <pt x="700" y="1447" on="1"/>
        <pt x="284" y="1447" on="1"/>
      </contour>
    </TTGlyph>
    <TTGlyph name="afii57513" xMin="142" yMin="226" xMax="842" yMax="1588">
      <contour>
        <pt x="142" y="226" on="1"/>
        <pt x="142" y="1588" on="1"/>
        <pt x="842" y="1588" on="1"/>
        <pt x="842" y="226" on="1"/>
      </contour>
      <contour>
        <pt x="284" y="368" on="1"/>
        <pt x="700" y="368" on="1"/>
        <pt x="700" y="1447" on="1"/>
        <pt x="284" y="1447" on="1"/>
      </contour>
    </TTGlyph>
    <TTGlyph name="afii57514" xMin="142" yMin="226" xMax="842" yMax="1588">
      <contour>
        <pt x="142" y="226" on="1"/>
        <pt x="142" y="1588" on="1"/>
        <pt x="842" y="1588" on="1"/>
        <pt x="842" y="226" on="1"/>
      </contour>
      <contour>
        <pt x="284" y="368" on="1"/>
        <pt x="700" y="368" on="1"/>
        <pt x="700" y="1447" on="1"/>
        <pt x="284" y="1447" on="1"/>
      </contour>
    </TTGlyph>
    <TTGlyph name="afii57519" xMin="142" yMin="226" xMax="842" yMax="1588">
      <contour>
        <pt x="142" y="226" on="1"/>
        <pt x="142" y="1588" on="1"/>
        <pt x="842" y="1588" on="1"/>
        <pt x="842" y="226" on="1"/>
      </contour>
      <contour>
        <pt x="284" y="368" on="1"/>
        <pt x="700" y="368" on="1"/>
        <pt x="700" y="1447" on="1"/>
        <pt x="284" y="1447" on="1"/>
      </contour>
    </TTGlyph>
    <TTGlyph name="afii57534" xMin="142" yMin="226" xMax="842" yMax="1588">
      <contour>
        <pt x="142" y="226" on="1"/>
        <pt x="142" y="1588" on="1"/>
        <pt x="842" y="1588" on="1"/>
        <pt x="842" y="226" on="1"/>
      </contour>
      <contour>
        <pt x="284" y="368" on="1"/>
        <pt x="700" y="368" on="1"/>
        <pt x="700" y="1447" on="1"/>
        <pt x="284" y="1447" on="1"/>
      </contour>
    </TTGlyph>
    <TTGlyph name="afii63167" xMin="142" yMin="226" xMax="842" yMax="1588">
      <contour>
        <pt x="142" y="226" on="1"/>
        <pt x="142" y="1588" on="1"/>
        <pt x="842" y="1588" on="1"/>
        <pt x="842" y="226" on="1"/>
      </contour>
      <contour>
        <pt x="284" y="368" on="1"/>
        <pt x="700" y="368" on="1"/>
        <pt x="700" y="1447" on="1"/>
        <pt x="284" y="1447" on="1"/>
      </contour>
    </TTGlyph>
    <TTGlyph name="alefmaksurainitial" xMin="142" yMin="226" xMax="842" yMax="1588">
      <contour>
        <pt x="142" y="226" on="1"/>
        <pt x="142" y="1588" on="1"/>
        <pt x="842" y="1588" on="1"/>
        <pt x="842" y="226" on="1"/>
      </contour>
      <contour>
        <pt x="284" y="368" on="1"/>
        <pt x="700" y="368" on="1"/>
        <pt x="700" y="1447" on="1"/>
        <pt x="284" y="1447" on="1"/>
      </contour>
    </TTGlyph>
    <TTGlyph name="alefwaslafinalarabic" xMin="142" yMin="226" xMax="842" yMax="1588">
      <contour>
        <pt x="142" y="226" on="1"/>
        <pt x="142" y="1588" on="1"/>
        <pt x="842" y="1588" on="1"/>
        <pt x="842" y="226" on="1"/>
      </contour>
      <contour>
        <pt x="284" y="368" on="1"/>
        <pt x="700" y="368" on="1"/>
        <pt x="700" y="1447" on="1"/>
        <pt x="284" y="1447" on="1"/>
      </contour>
    </TTGlyph>
    <TTGlyph name="ampersand" xMin="142" yMin="226" xMax="842" yMax="1588">
      <contour>
        <pt x="142" y="226" on="1"/>
        <pt x="142" y="1588" on="1"/>
        <pt x="842" y="1588" on="1"/>
        <pt x="842" y="226" on="1"/>
      </contour>
      <contour>
        <pt x="284" y="368" on="1"/>
        <pt x="700" y="368" on="1"/>
        <pt x="700" y="1447" on="1"/>
        <pt x="284" y="1447" on="1"/>
      </contour>
    </TTGlyph>
    <TTGlyph name="asterisk" xMin="142" yMin="226" xMax="842" yMax="1588">
      <contour>
        <pt x="142" y="226" on="1"/>
        <pt x="142" y="1588" on="1"/>
        <pt x="842" y="1588" on="1"/>
        <pt x="842" y="226" on="1"/>
      </contour>
      <contour>
        <pt x="284" y="368" on="1"/>
        <pt x="700" y="368" on="1"/>
        <pt x="700" y="1447" on="1"/>
        <pt x="284" y="1447" on="1"/>
      </contour>
    </TTGlyph>
    <TTGlyph name="behmeemisolatedarabic" xMin="142" yMin="226" xMax="842" yMax="1588">
      <contour>
        <pt x="142" y="226" on="1"/>
        <pt x="142" y="1588" on="1"/>
        <pt x="842" y="1588" on="1"/>
        <pt x="842" y="226" on="1"/>
      </contour>
      <contour>
        <pt x="284" y="368" on="1"/>
        <pt x="700" y="368" on="1"/>
        <pt x="700" y="1447" on="1"/>
        <pt x="284" y="1447" on="1"/>
      </contour>
    </TTGlyph>
    <TTGlyph name="behnoonfinalarabic" xMin="142" yMin="226" xMax="842" yMax="1588">
      <contour>
        <pt x="142" y="226" on="1"/>
        <pt x="142" y="1588" on="1"/>
        <pt x="842" y="1588" on="1"/>
        <pt x="842" y="226" on="1"/>
      </contour>
      <contour>
        <pt x="284" y="368" on="1"/>
        <pt x="700" y="368" on="1"/>
        <pt x="700" y="1447" on="1"/>
        <pt x="284" y="1447" on="1"/>
      </contour>
    </TTGlyph>
    <TTGlyph name="colon" xMin="142" yMin="226" xMax="842" yMax="1588">
      <contour>
        <pt x="142" y="226" on="1"/>
        <pt x="142" y="1588" on="1"/>
        <pt x="842" y="1588" on="1"/>
        <pt x="842" y="226" on="1"/>
      </contour>
      <contour>
        <pt x="284" y="368" on="1"/>
        <pt x="700" y="368" on="1"/>
        <pt x="700" y="1447" on="1"/>
        <pt x="284" y="1447" on="1"/>
      </contour>
    </TTGlyph>
    <TTGlyph name="dagger" xMin="142" yMin="226" xMax="842" yMax="1588">
      <contour>
        <pt x="142" y="226" on="1"/>
        <pt x="142" y="1588" on="1"/>
        <pt x="842" y="1588" on="1"/>
        <pt x="842" y="226" on="1"/>
      </contour>
      <contour>
        <pt x="284" y="368" on="1"/>
        <pt x="700" y="368" on="1"/>
        <pt x="700" y="1447" on="1"/>
        <pt x="284" y="1447" on="1"/>
      </contour>
    </TTGlyph>
    <TTGlyph name="dalringfinal" xMin="142" yMin="226" xMax="842" yMax="1588">
      <contour>
        <pt x="142" y="226" on="1"/>
        <pt x="142" y="1588" on="1"/>
        <pt x="842" y="1588" on="1"/>
        <pt x="842" y="226" on="1"/>
      </contour>
      <contour>
        <pt x="284" y="368" on="1"/>
        <pt x="700" y="368" on="1"/>
        <pt x="700" y="1447" on="1"/>
        <pt x="284" y="1447" on="1"/>
      </contour>
    </TTGlyph>
    <TTGlyph name="ddalfinalarabic" xMin="142" yMin="226" xMax="842" yMax="1588">
      <contour>
        <pt x="142" y="226" on="1"/>
        <pt x="142" y="1588" on="1"/>
        <pt x="842" y="1588" on="1"/>
        <pt x="842" y="226" on="1"/>
      </contour>
      <contour>
        <pt x="284" y="368" on="1"/>
        <pt x="700" y="368" on="1"/>
        <pt x="700" y="1447" on="1"/>
        <pt x="284" y="1447" on="1"/>
      </contour>
    </TTGlyph>
    <TTGlyph name="divide" xMin="142" yMin="226" xMax="842" yMax="1588">
      <contour>
        <pt x="142" y="226" on="1"/>
        <pt x="142" y="1588" on="1"/>
        <pt x="842" y="1588" on="1"/>
        <pt x="842" y="226" on="1"/>
      </contour>
      <contour>
        <pt x="284" y="368" on="1"/>
        <pt x="700" y="368" on="1"/>
        <pt x="700" y="1447" on="1"/>
        <pt x="284" y="1447" on="1"/>
      </contour>
    </TTGlyph>
    <TTGlyph name="dollar" xMin="142" yMin="226" xMax="842" yMax="1588">
      <contour>
        <pt x="142" y="226" on="1"/>
        <pt x="142" y="1588" on="1"/>
        <pt x="842" y="1588" on="1"/>
        <pt x="842" y="226" on="1"/>
      </contour>
      <contour>
        <pt x="284" y="368" on="1"/>
        <pt x="700" y="368" on="1"/>
        <pt x="700" y="1447" on="1"/>
        <pt x="284" y="1447" on="1"/>
      </contour>
    </TTGlyph>
    <TTGlyph name="dotlessyehfinalarabic" xMin="142" yMin="226" xMax="842" yMax="1588">
      <contour>
        <pt x="142" y="226" on="1"/>
        <pt x="142" y="1588" on="1"/>
        <pt x="842" y="1588" on="1"/>
        <pt x="842" y="226" on="1"/>
      </contour>
      <contour>
        <pt x="284" y="368" on="1"/>
        <pt x="700" y="368" on="1"/>
        <pt x="700" y="1447" on="1"/>
        <pt x="284" y="1447" on="1"/>
      </contour>
    </TTGlyph>
    <TTGlyph name="dotlessyehinitialarabic" xMin="142" yMin="226" xMax="842" yMax="1588">
      <contour>
        <pt x="142" y="226" on="1"/>
        <pt x="142" y="1588" on="1"/>
        <pt x="842" y="1588" on="1"/>
        <pt x="842" y="226" on="1"/>
      </contour>
      <contour>
        <pt x="284" y="368" on="1"/>
        <pt x="700" y="368" on="1"/>
        <pt x="700" y="1447" on="1"/>
        <pt x="284" y="1447" on="1"/>
      </contour>
    </TTGlyph>
    <TTGlyph name="dotlessyehmedialarabic" xMin="142" yMin="226" xMax="842" yMax="1588">
      <contour>
        <pt x="142" y="226" on="1"/>
        <pt x="142" y="1588" on="1"/>
        <pt x="842" y="1588" on="1"/>
        <pt x="842" y="226" on="1"/>
      </contour>
      <contour>
        <pt x="284" y="368" on="1"/>
        <pt x="700" y="368" on="1"/>
        <pt x="700" y="1447" on="1"/>
        <pt x="284" y="1447" on="1"/>
      </contour>
    </TTGlyph>
    <TTGlyph name="elefmaksuramedial" xMin="142" yMin="226" xMax="842" yMax="1588">
      <contour>
        <pt x="142" y="226" on="1"/>
        <pt x="142" y="1588" on="1"/>
        <pt x="842" y="1588" on="1"/>
        <pt x="842" y="226" on="1"/>
      </contour>
      <contour>
        <pt x="284" y="368" on="1"/>
        <pt x="700" y="368" on="1"/>
        <pt x="700" y="1447" on="1"/>
        <pt x="284" y="1447" on="1"/>
      </contour>
    </TTGlyph>
    <TTGlyph name="ellipsis" xMin="142" yMin="226" xMax="842" yMax="1588">
      <contour>
        <pt x="142" y="226" on="1"/>
        <pt x="142" y="1588" on="1"/>
        <pt x="842" y="1588" on="1"/>
        <pt x="842" y="226" on="1"/>
      </contour>
      <contour>
        <pt x="284" y="368" on="1"/>
        <pt x="700" y="368" on="1"/>
        <pt x="700" y="1447" on="1"/>
        <pt x="284" y="1447" on="1"/>
      </contour>
    </TTGlyph>
    <TTGlyph name="emdash" xMin="479" yMin="1516" xMax="2527" yMax="2047">
      <contour>
        <pt x="2527" y="1583" on="1"/>
        <pt x="2157" y="1531" on="0"/>
        <pt x="2037" y="1523" on="1"/>
        <pt x="1930" y="1516" on="0"/>
        <pt x="1596" y="1516" on="1"/>
        <pt x="479" y="1516" on="0"/>
        <pt x="479" y="1705" on="1"/>
        <pt x="479" y="1810" on="0"/>
        <pt x="782" y="1911" on="1"/>
        <pt x="800" y="1918" on="0"/>
        <pt x="800" y="1928" on="1"/>
        <pt x="706" y="1939" on="0"/>
        <pt x="483" y="1937" on="1"/>
        <pt x="483" y="1973" on="1"/>
        <pt x="808" y="2047" on="0"/>
        <pt x="955" y="2047" on="1"/>
        <pt x="822" y="2047" on="0"/>
        <pt x="1467" y="2043" on="1"/>
        <pt x="1953" y="2040" on="0"/>
        <pt x="2202" y="2045" on="1"/>
        <pt x="2202" y="1999" on="1"/>
        <pt x="2046" y="1967" on="0"/>
        <pt x="1641" y="1936" on="1"/>
        <pt x="1209" y="1902" on="0"/>
        <pt x="1062" y="1877" on="1"/>
        <pt x="795" y="1831" on="0"/>
        <pt x="795" y="1746" on="1"/>
        <pt x="795" y="1675" on="0"/>
        <pt x="1116" y="1632" on="1"/>
        <pt x="1374" y="1597" on="0"/>
        <pt x="1641" y="1597" on="1"/>
        <pt x="2024" y="1597" on="0"/>
      </contour>
      <contour>
        <pt x="1801" y="1777" on="1"/>
        <pt x="1690" y="1720" on="0"/>
        <pt x="1525" y="1720" on="1"/>
        <pt x="1378" y="1720" on="0"/>
        <pt x="1254" y="1776" on="1"/>
        <pt x="1369" y="1823" on="0"/>
        <pt x="1503" y="1823" on="1"/>
        <pt x="1596" y="1823" on="0"/>
      </contour>
    </TTGlyph>
    <TTGlyph name="endash" xMin="479" yMin="1516" xMax="1503" yMax="2047">
      <contour>
        <pt x="1503" y="1583" on="1"/>
        <pt x="1318" y="1531" on="0"/>
        <pt x="1258" y="1523" on="1"/>
        <pt x="1205" y="1516" on="0"/>
        <pt x="1038" y="1516" on="1"/>
        <pt x="479" y="1516" on="0"/>
        <pt x="479" y="1705" on="1"/>
        <pt x="479" y="1810" on="0"/>
        <pt x="630" y="1911" on="1"/>
        <pt x="639" y="1918" on="0"/>
        <pt x="639" y="1928" on="1"/>
        <pt x="593" y="1939" on="0"/>
        <pt x="481" y="1937" on="1"/>
        <pt x="481" y="1973" on="1"/>
        <pt x="644" y="2047" on="0"/>
        <pt x="717" y="2047" on="1"/>
        <pt x="650" y="2047" on="0"/>
        <pt x="973" y="2043" on="1"/>
        <pt x="1216" y="2040" on="0"/>
        <pt x="1340" y="2045" on="1"/>
        <pt x="1340" y="1999" on="1"/>
        <pt x="1263" y="1967" on="0"/>
        <pt x="1060" y="1936" on="1"/>
        <pt x="844" y="1902" on="0"/>
        <pt x="771" y="1877" on="1"/>
        <pt x="637" y="1831" on="0"/>
        <pt x="637" y="1746" on="1"/>
        <pt x="637" y="1675" on="0"/>
        <pt x="797" y="1632" on="1"/>
        <pt x="926" y="1597" on="0"/>
        <pt x="1060" y="1597" on="1"/>
        <pt x="1251" y="1597" on="0"/>
      </contour>
      <contour>
        <pt x="1140" y="1777" on="1"/>
        <pt x="1084" y="1720" on="0"/>
        <pt x="1002" y="1720" on="1"/>
        <pt x="929" y="1720" on="0"/>
        <pt x="866" y="1776" on="1"/>
        <pt x="924" y="1823" on="0"/>
        <pt x="991" y="1823" on="1"/>
        <pt x="1038" y="1823" on="0"/>
      </contour>
    </TTGlyph>
    <TTGlyph name="equal" xMin="142" yMin="226" xMax="842" yMax="1588">
      <contour>
        <pt x="142" y="226" on="1"/>
        <pt x="142" y="1588" on="1"/>
        <pt x="842" y="1588" on="1"/>
        <pt x="842" y="226" on="1"/>
      </contour>
      <contour>
        <pt x="284" y="368" on="1"/>
        <pt x="700" y="368" on="1"/>
        <pt x="700" y="1447" on="1"/>
        <pt x="284" y="1447" on="1"/>
      </contour>
    </TTGlyph>
    <TTGlyph name="exclam" xMin="142" yMin="226" xMax="842" yMax="1588">
      <contour>
        <pt x="142" y="226" on="1"/>
        <pt x="142" y="1588" on="1"/>
        <pt x="842" y="1588" on="1"/>
        <pt x="842" y="226" on="1"/>
      </contour>
      <contour>
        <pt x="284" y="368" on="1"/>
        <pt x="700" y="368" on="1"/>
        <pt x="700" y="1447" on="1"/>
        <pt x="284" y="1447" on="1"/>
      </contour>
    </TTGlyph>
    <TTGlyph name="figuredash" xMin="479" yMin="1516" xMax="939" yMax="2047">
      <contour>
        <pt x="939" y="1583" on="1"/>
        <pt x="856" y="1531" on="0"/>
        <pt x="829" y="1523" on="1"/>
        <pt x="805" y="1516" on="0"/>
        <pt x="730" y="1516" on="1"/>
        <pt x="479" y="1516" on="0"/>
        <pt x="479" y="1705" on="1"/>
        <pt x="479" y="1810" on="0"/>
        <pt x="547" y="1911" on="1"/>
        <pt x="551" y="1918" on="0"/>
        <pt x="551" y="1928" on="1"/>
        <pt x="530" y="1939" on="0"/>
        <pt x="480" y="1937" on="1"/>
        <pt x="480" y="1973" on="1"/>
        <pt x="553" y="2047" on="0"/>
        <pt x="586" y="2047" on="1"/>
        <pt x="556" y="2047" on="0"/>
        <pt x="701" y="2043" on="1"/>
        <pt x="810" y="2040" on="0"/>
        <pt x="866" y="2045" on="1"/>
        <pt x="866" y="1999" on="1"/>
        <pt x="831" y="1967" on="0"/>
        <pt x="740" y="1936" on="1"/>
        <pt x="643" y="1902" on="0"/>
        <pt x="610" y="1877" on="1"/>
        <pt x="550" y="1831" on="0"/>
        <pt x="550" y="1746" on="1"/>
        <pt x="550" y="1675" on="0"/>
        <pt x="622" y="1632" on="1"/>
        <pt x="680" y="1597" on="0"/>
        <pt x="740" y="1597" on="1"/>
        <pt x="826" y="1597" on="0"/>
      </contour>
      <contour>
        <pt x="776" y="1777" on="1"/>
        <pt x="751" y="1720" on="0"/>
        <pt x="714" y="1720" on="1"/>
        <pt x="681" y="1720" on="0"/>
        <pt x="653" y="1776" on="1"/>
        <pt x="679" y="1823" on="0"/>
        <pt x="709" y="1823" on="1"/>
        <pt x="730" y="1823" on="0"/>
      </contour>
    </TTGlyph>
    <TTGlyph name="gaffinalarabic" xMin="142" yMin="226" xMax="842" yMax="1588">
      <contour>
        <pt x="142" y="226" on="1"/>
        <pt x="142" y="1588" on="1"/>
        <pt x="842" y="1588" on="1"/>
        <pt x="842" y="226" on="1"/>
      </contour>
      <contour>
        <pt x="284" y="368" on="1"/>
        <pt x="700" y="368" on="1"/>
        <pt x="700" y="1447" on="1"/>
        <pt x="284" y="1447" on="1"/>
      </contour>
    </TTGlyph>
    <TTGlyph name="gafinitialarabic" xMin="142" yMin="226" xMax="842" yMax="1588">
      <contour>
        <pt x="142" y="226" on="1"/>
        <pt x="142" y="1588" on="1"/>
        <pt x="842" y="1588" on="1"/>
        <pt x="842" y="226" on="1"/>
      </contour>
      <contour>
        <pt x="284" y="368" on="1"/>
        <pt x="700" y="368" on="1"/>
        <pt x="700" y="1447" on="1"/>
        <pt x="284" y="1447" on="1"/>
      </contour>
    </TTGlyph>
    <TTGlyph name="gafmedialarabic" xMin="142" yMin="226" xMax="842" yMax="1588">
      <contour>
        <pt x="142" y="226" on="1"/>
        <pt x="142" y="1588" on="1"/>
        <pt x="842" y="1588" on="1"/>
        <pt x="842" y="226" on="1"/>
      </contour>
      <contour>
        <pt x="284" y="368" on="1"/>
        <pt x="700" y="368" on="1"/>
        <pt x="700" y="1447" on="1"/>
        <pt x="284" y="1447" on="1"/>
      </contour>
    </TTGlyph>
    <TTGlyph name="glyph41" xMin="142" yMin="226" xMax="842" yMax="1588">
      <contour>
        <pt x="142" y="226" on="1"/>
        <pt x="142" y="1588" on="1"/>
        <pt x="842" y="1588" on="1"/>
        <pt x="842" y="226" on="1"/>
      </contour>
      <contour>
        <pt x="284" y="368" on="1"/>
        <pt x="700" y="368" on="1"/>
        <pt x="700" y="1447" on="1"/>
        <pt x="284" y="1447" on="1"/>
      </contour>
    </TTGlyph>
    <TTGlyph name="glyph42" xMin="142" yMin="226" xMax="842" yMax="1588">
      <contour>
        <pt x="142" y="226" on="1"/>
        <pt x="142" y="1588" on="1"/>
        <pt x="842" y="1588" on="1"/>
        <pt x="842" y="226" on="1"/>
      </contour>
      <contour>
        <pt x="284" y="368" on="1"/>
        <pt x="700" y="368" on="1"/>
        <pt x="700" y="1447" on="1"/>
        <pt x="284" y="1447" on="1"/>
      </contour>
    </TTGlyph>
    <TTGlyph name="glyph43" xMin="142" yMin="226" xMax="842" yMax="1588">
      <contour>
        <pt x="142" y="226" on="1"/>
        <pt x="142" y="1588" on="1"/>
        <pt x="842" y="1588" on="1"/>
        <pt x="842" y="226" on="1"/>
      </contour>
      <contour>
        <pt x="284" y="368" on="1"/>
        <pt x="700" y="368" on="1"/>
        <pt x="700" y="1447" on="1"/>
        <pt x="284" y="1447" on="1"/>
      </contour>
    </TTGlyph>
    <TTGlyph name="glyph44" xMin="142" yMin="226" xMax="842" yMax="1588">
      <contour>
        <pt x="142" y="226" on="1"/>
        <pt x="142" y="1588" on="1"/>
        <pt x="842" y="1588" on="1"/>
        <pt x="842" y="226" on="1"/>
      </contour>
      <contour>
        <pt x="284" y="368" on="1"/>
        <pt x="700" y="368" on="1"/>
        <pt x="700" y="1447" on="1"/>
        <pt x="284" y="1447" on="1"/>
      </contour>
    </TTGlyph>
    <TTGlyph name="glyph45" xMin="142" yMin="226" xMax="842" yMax="1588">
      <contour>
        <pt x="142" y="226" on="1"/>
        <pt x="142" y="1588" on="1"/>
        <pt x="842" y="1588" on="1"/>
        <pt x="842" y="226" on="1"/>
      </contour>
      <contour>
        <pt x="284" y="368" on="1"/>
        <pt x="700" y="368" on="1"/>
        <pt x="700" y="1447" on="1"/>
        <pt x="284" y="1447" on="1"/>
      </contour>
    </TTGlyph>
    <TTGlyph name="glyph46" xMin="142" yMin="226" xMax="842" yMax="1588">
      <contour>
        <pt x="142" y="226" on="1"/>
        <pt x="142" y="1588" on="1"/>
        <pt x="842" y="1588" on="1"/>
        <pt x="842" y="226" on="1"/>
      </contour>
      <contour>
        <pt x="284" y="368" on="1"/>
        <pt x="700" y="368" on="1"/>
        <pt x="700" y="1447" on="1"/>
        <pt x="284" y="1447" on="1"/>
      </contour>
    </TTGlyph>
    <TTGlyph name="glyph47" xMin="142" yMin="226" xMax="842" yMax="1588">
      <contour>
        <pt x="142" y="226" on="1"/>
        <pt x="142" y="1588" on="1"/>
        <pt x="842" y="1588" on="1"/>
        <pt x="842" y="226" on="1"/>
      </contour>
      <contour>
        <pt x="284" y="368" on="1"/>
        <pt x="700" y="368" on="1"/>
        <pt x="700" y="1447" on="1"/>
        <pt x="284" y="1447" on="1"/>
      </contour>
    </TTGlyph>
    <TTGlyph name="glyph48" xMin="142" yMin="226" xMax="842" yMax="1588">
      <contour>
        <pt x="142" y="226" on="1"/>
        <pt x="142" y="1588" on="1"/>
        <pt x="842" y="1588" on="1"/>
        <pt x="842" y="226" on="1"/>
      </contour>
      <contour>
        <pt x="284" y="368" on="1"/>
        <pt x="700" y="368" on="1"/>
        <pt x="700" y="1447" on="1"/>
        <pt x="284" y="1447" on="1"/>
      </contour>
    </TTGlyph>
    <TTGlyph name="glyph50" xMin="142" yMin="226" xMax="842" yMax="1588">
      <contour>
        <pt x="142" y="226" on="1"/>
        <pt x="142" y="1588" on="1"/>
        <pt x="842" y="1588" on="1"/>
        <pt x="842" y="226" on="1"/>
      </contour>
      <contour>
        <pt x="284" y="368" on="1"/>
        <pt x="700" y="368" on="1"/>
        <pt x="700" y="1447" on="1"/>
        <pt x="284" y="1447" on="1"/>
      </contour>
    </TTGlyph>
    <TTGlyph name="glyph51" xMin="142" yMin="226" xMax="842" yMax="1588">
      <contour>
        <pt x="142" y="226" on="1"/>
        <pt x="142" y="1588" on="1"/>
        <pt x="842" y="1588" on="1"/>
        <pt x="842" y="226" on="1"/>
      </contour>
      <contour>
        <pt x="284" y="368" on="1"/>
        <pt x="700" y="368" on="1"/>
        <pt x="700" y="1447" on="1"/>
        <pt x="284" y="1447" on="1"/>
      </contour>
    </TTGlyph>
    <TTGlyph name="greater" xMin="142" yMin="226" xMax="842" yMax="1588">
      <contour>
        <pt x="142" y="226" on="1"/>
        <pt x="142" y="1588" on="1"/>
        <pt x="842" y="1588" on="1"/>
        <pt x="842" y="226" on="1"/>
      </contour>
      <contour>
        <pt x="284" y="368" on="1"/>
        <pt x="700" y="368" on="1"/>
        <pt x="700" y="1447" on="1"/>
        <pt x="284" y="1447" on="1"/>
      </contour>
    </TTGlyph>
    <TTGlyph name="hahhamzabovefinal" xMin="142" yMin="226" xMax="842" yMax="1588">
      <contour>
        <pt x="142" y="226" on="1"/>
        <pt x="142" y="1588" on="1"/>
        <pt x="842" y="1588" on="1"/>
        <pt x="842" y="226" on="1"/>
      </contour>
      <contour>
        <pt x="284" y="368" on="1"/>
        <pt x="700" y="368" on="1"/>
        <pt x="700" y="1447" on="1"/>
        <pt x="284" y="1447" on="1"/>
      </contour>
    </TTGlyph>
    <TTGlyph name="hahhamzaboveinitial" xMin="142" yMin="226" xMax="842" yMax="1588">
      <contour>
        <pt x="142" y="226" on="1"/>
        <pt x="142" y="1588" on="1"/>
        <pt x="842" y="1588" on="1"/>
        <pt x="842" y="226" on="1"/>
      </contour>
      <contour>
        <pt x="284" y="368" on="1"/>
        <pt x="700" y="368" on="1"/>
        <pt x="700" y="1447" on="1"/>
        <pt x="284" y="1447" on="1"/>
      </contour>
    </TTGlyph>
    <TTGlyph name="hahhamzabovemedial" xMin="142" yMin="226" xMax="842" yMax="1588">
      <contour>
        <pt x="142" y="226" on="1"/>
        <pt x="142" y="1588" on="1"/>
        <pt x="842" y="1588" on="1"/>
        <pt x="842" y="226" on="1"/>
      </contour>
      <contour>
        <pt x="284" y="368" on="1"/>
        <pt x="700" y="368" on="1"/>
        <pt x="700" y="1447" on="1"/>
        <pt x="284" y="1447" on="1"/>
      </contour>
    </TTGlyph>
    <TTGlyph name="hahthreedotsabovefinal" xMin="142" yMin="226" xMax="842" yMax="1588">
      <contour>
        <pt x="142" y="226" on="1"/>
        <pt x="142" y="1588" on="1"/>
        <pt x="842" y="1588" on="1"/>
        <pt x="842" y="226" on="1"/>
      </contour>
      <contour>
        <pt x="284" y="368" on="1"/>
        <pt x="700" y="368" on="1"/>
        <pt x="700" y="1447" on="1"/>
        <pt x="284" y="1447" on="1"/>
      </contour>
    </TTGlyph>
    <TTGlyph name="hahthreedotsaboveinitial" xMin="142" yMin="226" xMax="842" yMax="1588">
      <contour>
        <pt x="142" y="226" on="1"/>
        <pt x="142" y="1588" on="1"/>
        <pt x="842" y="1588" on="1"/>
        <pt x="842" y="226" on="1"/>
      </contour>
      <contour>
        <pt x="284" y="368" on="1"/>
        <pt x="700" y="368" on="1"/>
        <pt x="700" y="1447" on="1"/>
        <pt x="284" y="1447" on="1"/>
      </contour>
    </TTGlyph>
    <TTGlyph name="hahthreedotsabovemedial" xMin="142" yMin="226" xMax="842" yMax="1588">
      <contour>
        <pt x="142" y="226" on="1"/>
        <pt x="142" y="1588" on="1"/>
        <pt x="842" y="1588" on="1"/>
        <pt x="842" y="226" on="1"/>
      </contour>
      <contour>
        <pt x="284" y="368" on="1"/>
        <pt x="700" y="368" on="1"/>
        <pt x="700" y="1447" on="1"/>
        <pt x="284" y="1447" on="1"/>
      </contour>
    </TTGlyph>
    <TTGlyph name="hehdoachashmeefinalarabic" xMin="142" yMin="226" xMax="842" yMax="1588">
      <contour>
        <pt x="142" y="226" on="1"/>
        <pt x="142" y="1588" on="1"/>
        <pt x="842" y="1588" on="1"/>
        <pt x="842" y="226" on="1"/>
      </contour>
      <contour>
        <pt x="284" y="368" on="1"/>
        <pt x="700" y="368" on="1"/>
        <pt x="700" y="1447" on="1"/>
        <pt x="284" y="1447" on="1"/>
      </contour>
    </TTGlyph>
    <TTGlyph name="hehdoachashmeeinitialarabic" xMin="142" yMin="226" xMax="842" yMax="1588">
      <contour>
        <pt x="142" y="226" on="1"/>
        <pt x="142" y="1588" on="1"/>
        <pt x="842" y="1588" on="1"/>
        <pt x="842" y="226" on="1"/>
      </contour>
      <contour>
        <pt x="284" y="368" on="1"/>
        <pt x="700" y="368" on="1"/>
        <pt x="700" y="1447" on="1"/>
        <pt x="284" y="1447" on="1"/>
      </contour>
    </TTGlyph>
    <TTGlyph name="hehdoachashmeemedialarabic" xMin="142" yMin="226" xMax="842" yMax="1588">
      <contour>
        <pt x="142" y="226" on="1"/>
        <pt x="142" y="1588" on="1"/>
        <pt x="842" y="1588" on="1"/>
        <pt x="842" y="226" on="1"/>
      </contour>
      <contour>
        <pt x="284" y="368" on="1"/>
        <pt x="700" y="368" on="1"/>
        <pt x="700" y="1447" on="1"/>
        <pt x="284" y="1447" on="1"/>
      </contour>
    </TTGlyph>
    <TTGlyph name="hehfinalaltonearabic" xMin="142" yMin="226" xMax="842" yMax="1588">
      <contour>
        <pt x="142" y="226" on="1"/>
        <pt x="142" y="1588" on="1"/>
        <pt x="842" y="1588" on="1"/>
        <pt x="842" y="226" on="1"/>
      </contour>
      <contour>
        <pt x="284" y="368" on="1"/>
        <pt x="700" y="368" on="1"/>
        <pt x="700" y="1447" on="1"/>
        <pt x="284" y="1447" on="1"/>
      </contour>
    </TTGlyph>
    <TTGlyph name="hehhamzaabovefinalarabic" xMin="142" yMin="226" xMax="842" yMax="1588">
      <contour>
        <pt x="142" y="226" on="1"/>
        <pt x="142" y="1588" on="1"/>
        <pt x="842" y="1588" on="1"/>
        <pt x="842" y="226" on="1"/>
      </contour>
      <contour>
        <pt x="284" y="368" on="1"/>
        <pt x="700" y="368" on="1"/>
        <pt x="700" y="1447" on="1"/>
        <pt x="284" y="1447" on="1"/>
      </contour>
    </TTGlyph>
    <TTGlyph name="hehinitialaltonearabic" xMin="142" yMin="226" xMax="842" yMax="1588">
      <contour>
        <pt x="142" y="226" on="1"/>
        <pt x="142" y="1588" on="1"/>
        <pt x="842" y="1588" on="1"/>
        <pt x="842" y="226" on="1"/>
      </contour>
      <contour>
        <pt x="284" y="368" on="1"/>
        <pt x="700" y="368" on="1"/>
        <pt x="700" y="1447" on="1"/>
        <pt x="284" y="1447" on="1"/>
      </contour>
    </TTGlyph>
    <TTGlyph name="hehmedialaltonearabic" xMin="142" yMin="226" xMax="842" yMax="1588">
      <contour>
        <pt x="142" y="226" on="1"/>
        <pt x="142" y="1588" on="1"/>
        <pt x="842" y="1588" on="1"/>
        <pt x="842" y="226" on="1"/>
      </contour>
      <contour>
        <pt x="284" y="368" on="1"/>
        <pt x="700" y="368" on="1"/>
        <pt x="700" y="1447" on="1"/>
        <pt x="284" y="1447" on="1"/>
      </contour>
    </TTGlyph>
    <TTGlyph name="hyphen" xMin="479" yMin="1516" xMax="939" yMax="2047">
      <contour>
        <pt x="939" y="1583" on="1"/>
        <pt x="856" y="1531" on="0"/>
        <pt x="829" y="1523" on="1"/>
        <pt x="805" y="1516" on="0"/>
        <pt x="730" y="1516" on="1"/>
        <pt x="479" y="1516" on="0"/>
        <pt x="479" y="1705" on="1"/>
        <pt x="479" y="1810" on="0"/>
        <pt x="547" y="1911" on="1"/>
        <pt x="551" y="1918" on="0"/>
        <pt x="551" y="1928" on="1"/>
        <pt x="530" y="1939" on="0"/>
        <pt x="480" y="1937" on="1"/>
        <pt x="480" y="1973" on="1"/>
        <pt x="553" y="2047" on="0"/>
        <pt x="586" y="2047" on="1"/>
        <pt x="556" y="2047" on="0"/>
        <pt x="701" y="2043" on="1"/>
        <pt x="810" y="2040" on="0"/>
        <pt x="866" y="2045" on="1"/>
        <pt x="866" y="1999" on="1"/>
        <pt x="831" y="1967" on="0"/>
        <pt x="740" y="1936" on="1"/>
        <pt x="643" y="1902" on="0"/>
        <pt x="610" y="1877" on="1"/>
        <pt x="550" y="1831" on="0"/>
        <pt x="550" y="1746" on="1"/>
        <pt x="550" y="1675" on="0"/>
        <pt x="622" y="1632" on="1"/>
        <pt x="680" y="1597" on="0"/>
        <pt x="740" y="1597" on="1"/>
        <pt x="826" y="1597" on="0"/>
      </contour>
      <contour>
        <pt x="776" y="1777" on="1"/>
        <pt x="751" y="1720" on="0"/>
        <pt x="714" y="1720" on="1"/>
        <pt x="681" y="1720" on="0"/>
        <pt x="653" y="1776" on="1"/>
        <pt x="679" y="1823" on="0"/>
        <pt x="709" y="1823" on="1"/>
        <pt x="730" y="1823" on="0"/>
      </contour>
    </TTGlyph>
    <TTGlyph name="irghizufinal" xMin="142" yMin="226" xMax="842" yMax="1588">
      <contour>
        <pt x="142" y="226" on="1"/>
        <pt x="142" y="1588" on="1"/>
        <pt x="842" y="1588" on="1"/>
        <pt x="842" y="226" on="1"/>
      </contour>
      <contour>
        <pt x="284" y="368" on="1"/>
        <pt x="700" y="368" on="1"/>
        <pt x="700" y="1447" on="1"/>
        <pt x="284" y="1447" on="1"/>
      </contour>
    </TTGlyph>
    <TTGlyph name="jehfinalarabic" xMin="142" yMin="226" xMax="842" yMax="1588">
      <contour>
        <pt x="142" y="226" on="1"/>
        <pt x="142" y="1588" on="1"/>
        <pt x="842" y="1588" on="1"/>
        <pt x="842" y="226" on="1"/>
      </contour>
      <contour>
        <pt x="284" y="368" on="1"/>
        <pt x="700" y="368" on="1"/>
        <pt x="700" y="1447" on="1"/>
        <pt x="284" y="1447" on="1"/>
      </contour>
    </TTGlyph>
    <TTGlyph name="kafringfinal" xMin="142" yMin="226" xMax="842" yMax="1588">
      <contour>
        <pt x="142" y="226" on="1"/>
        <pt x="142" y="1588" on="1"/>
        <pt x="842" y="1588" on="1"/>
        <pt x="842" y="226" on="1"/>
      </contour>
      <contour>
        <pt x="284" y="368" on="1"/>
        <pt x="700" y="368" on="1"/>
        <pt x="700" y="1447" on="1"/>
        <pt x="284" y="1447" on="1"/>
      </contour>
    </TTGlyph>
    <TTGlyph name="kafringinitial" xMin="142" yMin="226" xMax="842" yMax="1588">
      <contour>
        <pt x="142" y="226" on="1"/>
        <pt x="142" y="1588" on="1"/>
        <pt x="842" y="1588" on="1"/>
        <pt x="842" y="226" on="1"/>
      </contour>
      <contour>
        <pt x="284" y="368" on="1"/>
        <pt x="700" y="368" on="1"/>
        <pt x="700" y="1447" on="1"/>
        <pt x="284" y="1447" on="1"/>
      </contour>
    </TTGlyph>
    <TTGlyph name="kafringmedial" xMin="142" yMin="226" xMax="842" yMax="1588">
      <contour>
        <pt x="142" y="226" on="1"/>
        <pt x="142" y="1588" on="1"/>
        <pt x="842" y="1588" on="1"/>
        <pt x="842" y="226" on="1"/>
      </contour>
      <contour>
        <pt x="284" y="368" on="1"/>
        <pt x="700" y="368" on="1"/>
        <pt x="700" y="1447" on="1"/>
        <pt x="284" y="1447" on="1"/>
      </contour>
    </TTGlyph>
    <TTGlyph name="kashidaautoarabic" xMin="142" yMin="226" xMax="842" yMax="1588">
      <contour>
        <pt x="142" y="226" on="1"/>
        <pt x="142" y="1588" on="1"/>
        <pt x="842" y="1588" on="1"/>
        <pt x="842" y="226" on="1"/>
      </contour>
      <contour>
        <pt x="284" y="368" on="1"/>
        <pt x="700" y="368" on="1"/>
        <pt x="700" y="1447" on="1"/>
        <pt x="284" y="1447" on="1"/>
      </contour>
    </TTGlyph>
    <TTGlyph name="kashidaautonosidebearingarabic" xMin="142" yMin="226" xMax="842" yMax="1588">
      <contour>
        <pt x="142" y="226" on="1"/>
        <pt x="142" y="1588" on="1"/>
        <pt x="842" y="1588" on="1"/>
        <pt x="842" y="226" on="1"/>
      </contour>
      <contour>
        <pt x="284" y="368" on="1"/>
        <pt x="700" y="368" on="1"/>
        <pt x="700" y="1447" on="1"/>
        <pt x="284" y="1447" on="1"/>
      </contour>
    </TTGlyph>
    <TTGlyph name="kehehfinalarabic" xMin="142" yMin="226" xMax="842" yMax="1588">
      <contour>
        <pt x="142" y="226" on="1"/>
        <pt x="142" y="1588" on="1"/>
        <pt x="842" y="1588" on="1"/>
        <pt x="842" y="226" on="1"/>
      </contour>
      <contour>
        <pt x="284" y="368" on="1"/>
        <pt x="700" y="368" on="1"/>
        <pt x="700" y="1447" on="1"/>
        <pt x="284" y="1447" on="1"/>
      </contour>
    </TTGlyph>
    <TTGlyph name="kehehinitialarabic" xMin="142" yMin="226" xMax="842" yMax="1588">
      <contour>
        <pt x="142" y="226" on="1"/>
        <pt x="142" y="1588" on="1"/>
        <pt x="842" y="1588" on="1"/>
        <pt x="842" y="226" on="1"/>
      </contour>
      <contour>
        <pt x="284" y="368" on="1"/>
        <pt x="700" y="368" on="1"/>
        <pt x="700" y="1447" on="1"/>
        <pt x="284" y="1447" on="1"/>
      </contour>
    </TTGlyph>
    <TTGlyph name="kehehmedialarabic" xMin="142" yMin="226" xMax="842" yMax="1588">
      <contour>
        <pt x="142" y="226" on="1"/>
        <pt x="142" y="1588" on="1"/>
        <pt x="842" y="1588" on="1"/>
        <pt x="842" y="226" on="1"/>
      </contour>
      <contour>
        <pt x="284" y="368" on="1"/>
        <pt x="700" y="368" on="1"/>
        <pt x="700" y="1447" on="1"/>
        <pt x="284" y="1447" on="1"/>
      </contour>
    </TTGlyph>
    <TTGlyph name="kirghizyifinal" xMin="142" yMin="226" xMax="842" yMax="1588">
      <contour>
        <pt x="142" y="226" on="1"/>
        <pt x="142" y="1588" on="1"/>
        <pt x="842" y="1588" on="1"/>
        <pt x="842" y="226" on="1"/>
      </contour>
      <contour>
        <pt x="284" y="368" on="1"/>
        <pt x="700" y="368" on="1"/>
        <pt x="700" y="1447" on="1"/>
        <pt x="284" y="1447" on="1"/>
      </contour>
    </TTGlyph>
    <TTGlyph name="lammeemjeeminitialarabic" xMin="142" yMin="226" xMax="842" yMax="1588">
      <contour>
        <pt x="142" y="226" on="1"/>
        <pt x="142" y="1588" on="1"/>
        <pt x="842" y="1588" on="1"/>
        <pt x="842" y="226" on="1"/>
      </contour>
      <contour>
        <pt x="284" y="368" on="1"/>
        <pt x="700" y="368" on="1"/>
        <pt x="700" y="1447" on="1"/>
        <pt x="284" y="1447" on="1"/>
      </contour>
    </TTGlyph>
    <TTGlyph name="lammeemkhahinitialarabic" xMin="142" yMin="226" xMax="842" yMax="1588">
      <contour>
        <pt x="142" y="226" on="1"/>
        <pt x="142" y="1588" on="1"/>
        <pt x="842" y="1588" on="1"/>
        <pt x="842" y="226" on="1"/>
      </contour>
      <contour>
        <pt x="284" y="368" on="1"/>
        <pt x="700" y="368" on="1"/>
        <pt x="700" y="1447" on="1"/>
        <pt x="284" y="1447" on="1"/>
      </contour>
    </TTGlyph>
    <TTGlyph name="lamthreedotsabovefinal" xMin="142" yMin="226" xMax="842" yMax="1588">
      <contour>
        <pt x="142" y="226" on="1"/>
        <pt x="142" y="1588" on="1"/>
        <pt x="842" y="1588" on="1"/>
        <pt x="842" y="226" on="1"/>
      </contour>
      <contour>
        <pt x="284" y="368" on="1"/>
        <pt x="700" y="368" on="1"/>
        <pt x="700" y="1447" on="1"/>
        <pt x="284" y="1447" on="1"/>
      </contour>
    </TTGlyph>
    <TTGlyph name="lamthreedotsaboveinitial" xMin="142" yMin="226" xMax="842" yMax="1588">
      <contour>
        <pt x="142" y="226" on="1"/>
        <pt x="142" y="1588" on="1"/>
        <pt x="842" y="1588" on="1"/>
        <pt x="842" y="226" on="1"/>
      </contour>
      <contour>
        <pt x="284" y="368" on="1"/>
        <pt x="700" y="368" on="1"/>
        <pt x="700" y="1447" on="1"/>
        <pt x="284" y="1447" on="1"/>
      </contour>
    </TTGlyph>
    <TTGlyph name="lamthreedotsabovemedial" xMin="142" yMin="226" xMax="842" yMax="1588">
      <contour>
        <pt x="142" y="226" on="1"/>
        <pt x="142" y="1588" on="1"/>
        <pt x="842" y="1588" on="1"/>
        <pt x="842" y="226" on="1"/>
      </contour>
      <contour>
        <pt x="284" y="368" on="1"/>
        <pt x="700" y="368" on="1"/>
        <pt x="700" y="1447" on="1"/>
        <pt x="284" y="1447" on="1"/>
      </contour>
    </TTGlyph>
    <TTGlyph name="less" xMin="142" yMin="226" xMax="842" yMax="1588">
      <contour>
        <pt x="142" y="226" on="1"/>
        <pt x="142" y="1588" on="1"/>
        <pt x="842" y="1588" on="1"/>
        <pt x="842" y="226" on="1"/>
      </contour>
      <contour>
        <pt x="284" y="368" on="1"/>
        <pt x="700" y="368" on="1"/>
        <pt x="700" y="1447" on="1"/>
        <pt x="284" y="1447" on="1"/>
      </contour>
    </TTGlyph>
    <TTGlyph name="meemmeemisolatedarabic" xMin="142" yMin="226" xMax="842" yMax="1588">
      <contour>
        <pt x="142" y="226" on="1"/>
        <pt x="142" y="1588" on="1"/>
        <pt x="842" y="1588" on="1"/>
        <pt x="842" y="226" on="1"/>
      </contour>
      <contour>
        <pt x="284" y="368" on="1"/>
        <pt x="700" y="368" on="1"/>
        <pt x="700" y="1447" on="1"/>
        <pt x="284" y="1447" on="1"/>
      </contour>
    </TTGlyph>
    <TTGlyph name="multiply" xMin="142" yMin="226" xMax="842" yMax="1588">
      <contour>
        <pt x="142" y="226" on="1"/>
        <pt x="142" y="1588" on="1"/>
        <pt x="842" y="1588" on="1"/>
        <pt x="842" y="226" on="1"/>
      </contour>
      <contour>
        <pt x="284" y="368" on="1"/>
        <pt x="700" y="368" on="1"/>
        <pt x="700" y="1447" on="1"/>
        <pt x="284" y="1447" on="1"/>
      </contour>
    </TTGlyph>
    <TTGlyph name="noonghunnafinalarabic" xMin="142" yMin="226" xMax="842" yMax="1588">
      <contour>
        <pt x="142" y="226" on="1"/>
        <pt x="142" y="1588" on="1"/>
        <pt x="842" y="1588" on="1"/>
        <pt x="842" y="226" on="1"/>
      </contour>
      <contour>
        <pt x="284" y="368" on="1"/>
        <pt x="700" y="368" on="1"/>
        <pt x="700" y="1447" on="1"/>
        <pt x="284" y="1447" on="1"/>
      </contour>
    </TTGlyph>
    <TTGlyph name="noonjeemisolatedarabic" xMin="142" yMin="226" xMax="842" yMax="1588">
      <contour>
        <pt x="142" y="226" on="1"/>
        <pt x="142" y="1588" on="1"/>
        <pt x="842" y="1588" on="1"/>
        <pt x="842" y="226" on="1"/>
      </contour>
      <contour>
        <pt x="284" y="368" on="1"/>
        <pt x="700" y="368" on="1"/>
        <pt x="700" y="1447" on="1"/>
        <pt x="284" y="1447" on="1"/>
      </contour>
    </TTGlyph>
    <TTGlyph name="noonmeemisolatedarabic" xMin="142" yMin="226" xMax="842" yMax="1588">
      <contour>
        <pt x="142" y="226" on="1"/>
        <pt x="142" y="1588" on="1"/>
        <pt x="842" y="1588" on="1"/>
        <pt x="842" y="226" on="1"/>
      </contour>
      <contour>
        <pt x="284" y="368" on="1"/>
        <pt x="700" y="368" on="1"/>
        <pt x="700" y="1447" on="1"/>
        <pt x="284" y="1447" on="1"/>
      </contour>
    </TTGlyph>
    <TTGlyph name="noonringfinal" xMin="142" yMin="226" xMax="842" yMax="1588">
      <contour>
        <pt x="142" y="226" on="1"/>
        <pt x="142" y="1588" on="1"/>
        <pt x="842" y="1588" on="1"/>
        <pt x="842" y="226" on="1"/>
      </contour>
      <contour>
        <pt x="284" y="368" on="1"/>
        <pt x="700" y="368" on="1"/>
        <pt x="700" y="1447" on="1"/>
        <pt x="284" y="1447" on="1"/>
      </contour>
    </TTGlyph>
    <TTGlyph name="noonringinitial" xMin="142" yMin="226" xMax="842" yMax="1588">
      <contour>
        <pt x="142" y="226" on="1"/>
        <pt x="142" y="1588" on="1"/>
        <pt x="842" y="1588" on="1"/>
        <pt x="842" y="226" on="1"/>
      </contour>
      <contour>
        <pt x="284" y="368" on="1"/>
        <pt x="700" y="368" on="1"/>
        <pt x="700" y="1447" on="1"/>
        <pt x="284" y="1447" on="1"/>
      </contour>
    </TTGlyph>
    <TTGlyph name="noonringmedial" xMin="142" yMin="226" xMax="842" yMax="1588">
      <contour>
        <pt x="142" y="226" on="1"/>
        <pt x="142" y="1588" on="1"/>
        <pt x="842" y="1588" on="1"/>
        <pt x="842" y="226" on="1"/>
      </contour>
      <contour>
        <pt x="284" y="368" on="1"/>
        <pt x="700" y="368" on="1"/>
        <pt x="700" y="1447" on="1"/>
        <pt x="284" y="1447" on="1"/>
      </contour>
    </TTGlyph>
    <TTGlyph name="numbersign" xMin="142" yMin="226" xMax="842" yMax="1588">
      <contour>
        <pt x="142" y="226" on="1"/>
        <pt x="142" y="1588" on="1"/>
        <pt x="842" y="1588" on="1"/>
        <pt x="842" y="226" on="1"/>
      </contour>
      <contour>
        <pt x="284" y="368" on="1"/>
        <pt x="700" y="368" on="1"/>
        <pt x="700" y="1447" on="1"/>
        <pt x="284" y="1447" on="1"/>
      </contour>
    </TTGlyph>
    <TTGlyph name="parenleft" xMin="142" yMin="226" xMax="842" yMax="1588">
      <contour>
        <pt x="142" y="226" on="1"/>
        <pt x="142" y="1588" on="1"/>
        <pt x="842" y="1588" on="1"/>
        <pt x="842" y="226" on="1"/>
      </contour>
      <contour>
        <pt x="284" y="368" on="1"/>
        <pt x="700" y="368" on="1"/>
        <pt x="700" y="1447" on="1"/>
        <pt x="284" y="1447" on="1"/>
      </contour>
    </TTGlyph>
    <TTGlyph name="parenright" xMin="142" yMin="226" xMax="842" yMax="1588">
      <contour>
        <pt x="142" y="226" on="1"/>
        <pt x="142" y="1588" on="1"/>
        <pt x="842" y="1588" on="1"/>
        <pt x="842" y="226" on="1"/>
      </contour>
      <contour>
        <pt x="284" y="368" on="1"/>
        <pt x="700" y="368" on="1"/>
        <pt x="700" y="1447" on="1"/>
        <pt x="284" y="1447" on="1"/>
      </contour>
    </TTGlyph>
    <TTGlyph name="pashtoefinal" xMin="142" yMin="226" xMax="842" yMax="1588">
      <contour>
        <pt x="142" y="226" on="1"/>
        <pt x="142" y="1588" on="1"/>
        <pt x="842" y="1588" on="1"/>
        <pt x="842" y="226" on="1"/>
      </contour>
      <contour>
        <pt x="284" y="368" on="1"/>
        <pt x="700" y="368" on="1"/>
        <pt x="700" y="1447" on="1"/>
        <pt x="284" y="1447" on="1"/>
      </contour>
    </TTGlyph>
    <TTGlyph name="pashtoeinitial" xMin="142" yMin="226" xMax="842" yMax="1588">
      <contour>
        <pt x="142" y="226" on="1"/>
        <pt x="142" y="1588" on="1"/>
        <pt x="842" y="1588" on="1"/>
        <pt x="842" y="226" on="1"/>
      </contour>
      <contour>
        <pt x="284" y="368" on="1"/>
        <pt x="700" y="368" on="1"/>
        <pt x="700" y="1447" on="1"/>
        <pt x="284" y="1447" on="1"/>
      </contour>
    </TTGlyph>
    <TTGlyph name="pashtoemedial" xMin="142" yMin="226" xMax="842" yMax="1588">
      <contour>
        <pt x="142" y="226" on="1"/>
        <pt x="142" y="1588" on="1"/>
        <pt x="842" y="1588" on="1"/>
        <pt x="842" y="226" on="1"/>
      </contour>
      <contour>
        <pt x="284" y="368" on="1"/>
        <pt x="700" y="368" on="1"/>
        <pt x="700" y="1447" on="1"/>
        <pt x="284" y="1447" on="1"/>
      </contour>
    </TTGlyph>
    <TTGlyph name="pehfinalarabic" xMin="142" yMin="226" xMax="842" yMax="1588">
      <contour>
        <pt x="142" y="226" on="1"/>
        <pt x="142" y="1588" on="1"/>
        <pt x="842" y="1588" on="1"/>
        <pt x="842" y="226" on="1"/>
      </contour>
      <contour>
        <pt x="284" y="368" on="1"/>
        <pt x="700" y="368" on="1"/>
        <pt x="700" y="1447" on="1"/>
        <pt x="284" y="1447" on="1"/>
      </contour>
    </TTGlyph>
    <TTGlyph name="pehinitialarabic" xMin="142" yMin="226" xMax="842" yMax="1588">
      <contour>
        <pt x="142" y="226" on="1"/>
        <pt x="142" y="1588" on="1"/>
        <pt x="842" y="1588" on="1"/>
        <pt x="842" y="226" on="1"/>
      </contour>
      <contour>
        <pt x="284" y="368" on="1"/>
        <pt x="700" y="368" on="1"/>
        <pt x="700" y="1447" on="1"/>
        <pt x="284" y="1447" on="1"/>
      </contour>
    </TTGlyph>
    <TTGlyph name="pehmedialarabic" xMin="142" yMin="226" xMax="842" yMax="1588">
      <contour>
        <pt x="142" y="226" on="1"/>
        <pt x="142" y="1588" on="1"/>
        <pt x="842" y="1588" on="1"/>
        <pt x="842" y="226" on="1"/>
      </contour>
      <contour>
        <pt x="284" y="368" on="1"/>
        <pt x="700" y="368" on="1"/>
        <pt x="700" y="1447" on="1"/>
        <pt x="284" y="1447" on="1"/>
      </contour>
    </TTGlyph>
    <TTGlyph name="percent" xMin="142" yMin="226" xMax="842" yMax="1588">
      <contour>
        <pt x="142" y="226" on="1"/>
        <pt x="142" y="1588" on="1"/>
        <pt x="842" y="1588" on="1"/>
        <pt x="842" y="226" on="1"/>
      </contour>
      <contour>
        <pt x="284" y="368" on="1"/>
        <pt x="700" y="368" on="1"/>
        <pt x="700" y="1447" on="1"/>
        <pt x="284" y="1447" on="1"/>
      </contour>
    </TTGlyph>
    <TTGlyph name="period" xMin="142" yMin="226" xMax="842" yMax="1588">
      <contour>
        <pt x="142" y="226" on="1"/>
        <pt x="142" y="1588" on="1"/>
        <pt x="842" y="1588" on="1"/>
        <pt x="842" y="226" on="1"/>
      </contour>
      <contour>
        <pt x="284" y="368" on="1"/>
        <pt x="700" y="368" on="1"/>
        <pt x="700" y="1447" on="1"/>
        <pt x="284" y="1447" on="1"/>
      </contour>
    </TTGlyph>
    <TTGlyph name="plus" xMin="142" yMin="226" xMax="842" yMax="1588">
      <contour>
        <pt x="142" y="226" on="1"/>
        <pt x="142" y="1588" on="1"/>
        <pt x="842" y="1588" on="1"/>
        <pt x="842" y="226" on="1"/>
      </contour>
      <contour>
        <pt x="284" y="368" on="1"/>
        <pt x="700" y="368" on="1"/>
        <pt x="700" y="1447" on="1"/>
        <pt x="284" y="1447" on="1"/>
      </contour>
    </TTGlyph>
    <TTGlyph name="quotedbl" xMin="142" yMin="226" xMax="842" yMax="1588">
      <contour>
        <pt x="142" y="226" on="1"/>
        <pt x="142" y="1588" on="1"/>
        <pt x="842" y="1588" on="1"/>
        <pt x="842" y="226" on="1"/>
      </contour>
      <contour>
        <pt x="284" y="368" on="1"/>
        <pt x="700" y="368" on="1"/>
        <pt x="700" y="1447" on="1"/>
        <pt x="284" y="1447" on="1"/>
      </contour>
    </TTGlyph>
    <TTGlyph name="quotesingle" xMin="142" yMin="226" xMax="842" yMax="1588">
      <contour>
        <pt x="142" y="226" on="1"/>
        <pt x="142" y="1588" on="1"/>
        <pt x="842" y="1588" on="1"/>
        <pt x="842" y="226" on="1"/>
      </contour>
      <contour>
        <pt x="284" y="368" on="1"/>
        <pt x="700" y="368" on="1"/>
        <pt x="700" y="1447" on="1"/>
        <pt x="284" y="1447" on="1"/>
      </contour>
    </TTGlyph>
    <TTGlyph name="rehdotbelowdotabovefinal" xMin="142" yMin="226" xMax="842" yMax="1588">
      <contour>
        <pt x="142" y="226" on="1"/>
        <pt x="142" y="1588" on="1"/>
        <pt x="842" y="1588" on="1"/>
        <pt x="842" y="226" on="1"/>
      </contour>
      <contour>
        <pt x="284" y="368" on="1"/>
        <pt x="700" y="368" on="1"/>
        <pt x="700" y="1447" on="1"/>
        <pt x="284" y="1447" on="1"/>
      </contour>
    </TTGlyph>
    <TTGlyph name="rehringfinal" xMin="142" yMin="226" xMax="842" yMax="1588">
      <contour>
        <pt x="142" y="226" on="1"/>
        <pt x="142" y="1588" on="1"/>
        <pt x="842" y="1588" on="1"/>
        <pt x="842" y="226" on="1"/>
      </contour>
      <contour>
        <pt x="284" y="368" on="1"/>
        <pt x="700" y="368" on="1"/>
        <pt x="700" y="1447" on="1"/>
        <pt x="284" y="1447" on="1"/>
      </contour>
    </TTGlyph>
    <TTGlyph name="rrehfinalarabic" xMin="142" yMin="226" xMax="842" yMax="1588">
      <contour>
        <pt x="142" y="226" on="1"/>
        <pt x="142" y="1588" on="1"/>
        <pt x="842" y="1588" on="1"/>
        <pt x="842" y="226" on="1"/>
      </contour>
      <contour>
        <pt x="284" y="368" on="1"/>
        <pt x="700" y="368" on="1"/>
        <pt x="700" y="1447" on="1"/>
        <pt x="284" y="1447" on="1"/>
      </contour>
    </TTGlyph>
    <TTGlyph name="seendotbelowdotabovefinal" xMin="142" yMin="226" xMax="842" yMax="1588">
      <contour>
        <pt x="142" y="226" on="1"/>
        <pt x="142" y="1588" on="1"/>
        <pt x="842" y="1588" on="1"/>
        <pt x="842" y="226" on="1"/>
      </contour>
      <contour>
        <pt x="284" y="368" on="1"/>
        <pt x="700" y="368" on="1"/>
        <pt x="700" y="1447" on="1"/>
        <pt x="284" y="1447" on="1"/>
      </contour>
    </TTGlyph>
    <TTGlyph name="seendotbelowdotaboveinitial" xMin="142" yMin="226" xMax="842" yMax="1588">
      <contour>
        <pt x="142" y="226" on="1"/>
        <pt x="142" y="1588" on="1"/>
        <pt x="842" y="1588" on="1"/>
        <pt x="842" y="226" on="1"/>
      </contour>
      <contour>
        <pt x="284" y="368" on="1"/>
        <pt x="700" y="368" on="1"/>
        <pt x="700" y="1447" on="1"/>
        <pt x="284" y="1447" on="1"/>
      </contour>
    </TTGlyph>
    <TTGlyph name="seendotbelowdotabovemedial" xMin="142" yMin="226" xMax="842" yMax="1588">
      <contour>
        <pt x="142" y="226" on="1"/>
        <pt x="142" y="1588" on="1"/>
        <pt x="842" y="1588" on="1"/>
        <pt x="842" y="226" on="1"/>
      </contour>
      <contour>
        <pt x="284" y="368" on="1"/>
        <pt x="700" y="368" on="1"/>
        <pt x="700" y="1447" on="1"/>
        <pt x="284" y="1447" on="1"/>
      </contour>
    </TTGlyph>
    <TTGlyph name="shaddadammaarabic" xMin="142" yMin="226" xMax="842" yMax="1588">
      <contour>
        <pt x="142" y="226" on="1"/>
        <pt x="142" y="1588" on="1"/>
        <pt x="842" y="1588" on="1"/>
        <pt x="842" y="226" on="1"/>
      </contour>
      <contour>
        <pt x="284" y="368" on="1"/>
        <pt x="700" y="368" on="1"/>
        <pt x="700" y="1447" on="1"/>
        <pt x="284" y="1447" on="1"/>
      </contour>
    </TTGlyph>
    <TTGlyph name="shaddadammatanarabic" xMin="142" yMin="226" xMax="842" yMax="1588">
      <contour>
        <pt x="142" y="226" on="1"/>
        <pt x="142" y="1588" on="1"/>
        <pt x="842" y="1588" on="1"/>
        <pt x="842" y="226" on="1"/>
      </contour>
      <contour>
        <pt x="284" y="368" on="1"/>
        <pt x="700" y="368" on="1"/>
        <pt x="700" y="1447" on="1"/>
        <pt x="284" y="1447" on="1"/>
      </contour>
    </TTGlyph>
    <TTGlyph name="shaddafathaarabic" xMin="142" yMin="226" xMax="842" yMax="1588">
      <contour>
        <pt x="142" y="226" on="1"/>
        <pt x="142" y="1588" on="1"/>
        <pt x="842" y="1588" on="1"/>
        <pt x="842" y="226" on="1"/>
      </contour>
      <contour>
        <pt x="284" y="368" on="1"/>
        <pt x="700" y="368" on="1"/>
        <pt x="700" y="1447" on="1"/>
        <pt x="284" y="1447" on="1"/>
      </contour>
    </TTGlyph>
    <TTGlyph name="shaddakasraarabic" xMin="142" yMin="226" xMax="842" yMax="1588">
      <contour>
        <pt x="142" y="226" on="1"/>
        <pt x="142" y="1588" on="1"/>
        <pt x="842" y="1588" on="1"/>
        <pt x="842" y="226" on="1"/>
      </contour>
      <contour>
        <pt x="284" y="368" on="1"/>
        <pt x="700" y="368" on="1"/>
        <pt x="700" y="1447" on="1"/>
        <pt x="284" y="1447" on="1"/>
      </contour>
    </TTGlyph>
    <TTGlyph name="shaddakasratanarabic" xMin="142" yMin="226" xMax="842" yMax="1588">
      <contour>
        <pt x="142" y="226" on="1"/>
        <pt x="142" y="1588" on="1"/>
        <pt x="842" y="1588" on="1"/>
        <pt x="842" y="226" on="1"/>
      </contour>
      <contour>
        <pt x="284" y="368" on="1"/>
        <pt x="700" y="368" on="1"/>
        <pt x="700" y="1447" on="1"/>
        <pt x="284" y="1447" on="1"/>
      </contour>
    </TTGlyph>
    <TTGlyph name="slash" xMin="142" yMin="226" xMax="842" yMax="1588">
      <contour>
        <pt x="142" y="226" on="1"/>
        <pt x="142" y="1588" on="1"/>
        <pt x="842" y="1588" on="1"/>
        <pt x="842" y="226" on="1"/>
      </contour>
      <contour>
        <pt x="284" y="368" on="1"/>
        <pt x="700" y="368" on="1"/>
        <pt x="700" y="1447" on="1"/>
        <pt x="284" y="1447" on="1"/>
      </contour>
    </TTGlyph>
    <TTGlyph name="space" xMin="142" yMin="226" xMax="842" yMax="1588">
      <contour>
        <pt x="142" y="226" on="1"/>
        <pt x="142" y="1588" on="1"/>
        <pt x="842" y="1588" on="1"/>
        <pt x="842" y="226" on="1"/>
      </contour>
      <contour>
        <pt x="284" y="368" on="1"/>
        <pt x="700" y="368" on="1"/>
        <pt x="700" y="1447" on="1"/>
        <pt x="284" y="1447" on="1"/>
      </contour>
    </TTGlyph>
    <TTGlyph name="tchehfinalarabic" xMin="142" yMin="226" xMax="842" yMax="1588">
      <contour>
        <pt x="142" y="226" on="1"/>
        <pt x="142" y="1588" on="1"/>
        <pt x="842" y="1588" on="1"/>
        <pt x="842" y="226" on="1"/>
      </contour>
      <contour>
        <pt x="284" y="368" on="1"/>
        <pt x="700" y="368" on="1"/>
        <pt x="700" y="1447" on="1"/>
        <pt x="284" y="1447" on="1"/>
      </contour>
    </TTGlyph>
    <TTGlyph name="tchehinitialarabic" xMin="142" yMin="226" xMax="842" yMax="1588">
      <contour>
        <pt x="142" y="226" on="1"/>
        <pt x="142" y="1588" on="1"/>
        <pt x="842" y="1588" on="1"/>
        <pt x="842" y="226" on="1"/>
      </contour>
      <contour>
        <pt x="284" y="368" on="1"/>
        <pt x="700" y="368" on="1"/>
        <pt x="700" y="1447" on="1"/>
        <pt x="284" y="1447" on="1"/>
      </contour>
    </TTGlyph>
    <TTGlyph name="tchehmedialarabic" xMin="142" yMin="226" xMax="842" yMax="1588">
      <contour>
        <pt x="142" y="226" on="1"/>
        <pt x="142" y="1588" on="1"/>
        <pt x="842" y="1588" on="1"/>
        <pt x="842" y="226" on="1"/>
      </contour>
      <contour>
        <pt x="284" y="368" on="1"/>
        <pt x="700" y="368" on="1"/>
        <pt x="700" y="1447" on="1"/>
        <pt x="284" y="1447" on="1"/>
      </contour>
    </TTGlyph>
    <TTGlyph name="tehhahisolatedarabic" xMin="142" yMin="226" xMax="842" yMax="1588">
      <contour>
        <pt x="142" y="226" on="1"/>
        <pt x="142" y="1588" on="1"/>
        <pt x="842" y="1588" on="1"/>
        <pt x="842" y="226" on="1"/>
      </contour>
      <contour>
        <pt x="284" y="368" on="1"/>
        <pt x="700" y="368" on="1"/>
        <pt x="700" y="1447" on="1"/>
        <pt x="284" y="1447" on="1"/>
      </contour>
    </TTGlyph>
    <TTGlyph name="tehjeemisolatedarabic" xMin="142" yMin="226" xMax="842" yMax="1588">
      <contour>
        <pt x="142" y="226" on="1"/>
        <pt x="142" y="1588" on="1"/>
        <pt x="842" y="1588" on="1"/>
        <pt x="842" y="226" on="1"/>
      </contour>
      <contour>
        <pt x="284" y="368" on="1"/>
        <pt x="700" y="368" on="1"/>
        <pt x="700" y="1447" on="1"/>
        <pt x="284" y="1447" on="1"/>
      </contour>
    </TTGlyph>
    <TTGlyph name="tehmeemisolatedarabic" xMin="142" yMin="226" xMax="842" yMax="1588">
      <contour>
        <pt x="142" y="226" on="1"/>
        <pt x="142" y="1588" on="1"/>
        <pt x="842" y="1588" on="1"/>
        <pt x="842" y="226" on="1"/>
      </contour>
      <contour>
        <pt x="284" y="368" on="1"/>
        <pt x="700" y="368" on="1"/>
        <pt x="700" y="1447" on="1"/>
        <pt x="284" y="1447" on="1"/>
      </contour>
    </TTGlyph>
    <TTGlyph name="tehnoonfinalarabic" xMin="142" yMin="226" xMax="842" yMax="1588">
      <contour>
        <pt x="142" y="226" on="1"/>
        <pt x="142" y="1588" on="1"/>
        <pt x="842" y="1588" on="1"/>
        <pt x="842" y="226" on="1"/>
      </contour>
      <contour>
        <pt x="284" y="368" on="1"/>
        <pt x="700" y="368" on="1"/>
        <pt x="700" y="1447" on="1"/>
        <pt x="284" y="1447" on="1"/>
      </contour>
    </TTGlyph>
    <TTGlyph name="tehringfinal" xMin="142" yMin="226" xMax="842" yMax="1588">
      <contour>
        <pt x="142" y="226" on="1"/>
        <pt x="142" y="1588" on="1"/>
        <pt x="842" y="1588" on="1"/>
        <pt x="842" y="226" on="1"/>
      </contour>
      <contour>
        <pt x="284" y="368" on="1"/>
        <pt x="700" y="368" on="1"/>
        <pt x="700" y="1447" on="1"/>
        <pt x="284" y="1447" on="1"/>
      </contour>
    </TTGlyph>
    <TTGlyph name="tehringinitial" xMin="142" yMin="226" xMax="842" yMax="1588">
      <contour>
        <pt x="142" y="226" on="1"/>
        <pt x="142" y="1588" on="1"/>
        <pt x="842" y="1588" on="1"/>
        <pt x="842" y="226" on="1"/>
      </contour>
      <contour>
        <pt x="284" y="368" on="1"/>
        <pt x="700" y="368" on="1"/>
        <pt x="700" y="1447" on="1"/>
        <pt x="284" y="1447" on="1"/>
      </contour>
    </TTGlyph>
    <TTGlyph name="tehringmedial" xMin="142" yMin="226" xMax="842" yMax="1588">
      <contour>
        <pt x="142" y="226" on="1"/>
        <pt x="142" y="1588" on="1"/>
        <pt x="842" y="1588" on="1"/>
        <pt x="842" y="226" on="1"/>
      </contour>
      <contour>
        <pt x="284" y="368" on="1"/>
        <pt x="700" y="368" on="1"/>
        <pt x="700" y="1447" on="1"/>
        <pt x="284" y="1447" on="1"/>
      </contour>
    </TTGlyph>
    <TTGlyph name="ttehfinalarabic" xMin="142" yMin="226" xMax="842" yMax="1588">
      <contour>
        <pt x="142" y="226" on="1"/>
        <pt x="142" y="1588" on="1"/>
        <pt x="842" y="1588" on="1"/>
        <pt x="842" y="226" on="1"/>
      </contour>
      <contour>
        <pt x="284" y="368" on="1"/>
        <pt x="700" y="368" on="1"/>
        <pt x="700" y="1447" on="1"/>
        <pt x="284" y="1447" on="1"/>
      </contour>
    </TTGlyph>
    <TTGlyph name="ttehinitialarabic" xMin="142" yMin="226" xMax="842" yMax="1588">
      <contour>
        <pt x="142" y="226" on="1"/>
        <pt x="142" y="1588" on="1"/>
        <pt x="842" y="1588" on="1"/>
        <pt x="842" y="226" on="1"/>
      </contour>
      <contour>
        <pt x="284" y="368" on="1"/>
        <pt x="700" y="368" on="1"/>
        <pt x="700" y="1447" on="1"/>
        <pt x="284" y="1447" on="1"/>
      </contour>
    </TTGlyph>
    <TTGlyph name="ttehmedialarabic" xMin="142" yMin="226" xMax="842" yMax="1588">
      <contour>
        <pt x="142" y="226" on="1"/>
        <pt x="142" y="1588" on="1"/>
        <pt x="842" y="1588" on="1"/>
        <pt x="842" y="226" on="1"/>
      </contour>
      <contour>
        <pt x="284" y="368" on="1"/>
        <pt x="700" y="368" on="1"/>
        <pt x="700" y="1447" on="1"/>
        <pt x="284" y="1447" on="1"/>
      </contour>
    </TTGlyph>
    <TTGlyph name="uni000D" xMin="142" yMin="226" xMax="842" yMax="1588">
      <contour>
        <pt x="142" y="226" on="1"/>
        <pt x="142" y="1588" on="1"/>
        <pt x="842" y="1588" on="1"/>
        <pt x="842" y="226" on="1"/>
      </contour>
      <contour>
        <pt x="284" y="368" on="1"/>
        <pt x="700" y="368" on="1"/>
        <pt x="700" y="1447" on="1"/>
        <pt x="284" y="1447" on="1"/>
      </contour>
    </TTGlyph>
    <TTGlyph name="uni00A0" xMin="142" yMin="226" xMax="842" yMax="1588">
      <contour>
        <pt x="142" y="226" on="1"/>
        <pt x="142" y="1588" on="1"/>
        <pt x="842" y="1588" on="1"/>
        <pt x="842" y="226" on="1"/>
      </contour>
      <contour>
        <pt x="284" y="368" on="1"/>
        <pt x="700" y="368" on="1"/>
        <pt x="700" y="1447" on="1"/>
        <pt x="284" y="1447" on="1"/>
      </contour>
    </TTGlyph>
    <TTGlyph name="uni00AD" xMin="142" yMin="226" xMax="842" yMax="1588">
      <contour>
        <pt x="142" y="226" on="1"/>
        <pt x="142" y="1588" on="1"/>
        <pt x="842" y="1588" on="1"/>
        <pt x="842" y="226" on="1"/>
      </contour>
      <contour>
        <pt x="284" y="368" on="1"/>
        <pt x="700" y="368" on="1"/>
        <pt x="700" y="1447" on="1"/>
        <pt x="284" y="1447" on="1"/>
      </contour>
    </TTGlyph>
    <TTGlyph name="uni0653" xMin="142" yMin="226" xMax="842" yMax="1588">
      <contour>
        <pt x="142" y="226" on="1"/>
        <pt x="142" y="1588" on="1"/>
        <pt x="842" y="1588" on="1"/>
        <pt x="842" y="226" on="1"/>
      </contour>
      <contour>
        <pt x="284" y="368" on="1"/>
        <pt x="700" y="368" on="1"/>
        <pt x="700" y="1447" on="1"/>
        <pt x="284" y="1447" on="1"/>
      </contour>
    </TTGlyph>
    <TTGlyph name="uni0654" xMin="142" yMin="226" xMax="842" yMax="1588">
      <contour>
        <pt x="142" y="226" on="1"/>
        <pt x="142" y="1588" on="1"/>
        <pt x="842" y="1588" on="1"/>
        <pt x="842" y="226" on="1"/>
      </contour>
      <contour>
        <pt x="284" y="368" on="1"/>
        <pt x="700" y="368" on="1"/>
        <pt x="700" y="1447" on="1"/>
        <pt x="284" y="1447" on="1"/>
      </contour>
    </TTGlyph>
    <TTGlyph name="uni0655" xMin="142" yMin="226" xMax="842" yMax="1588">
      <contour>
        <pt x="142" y="226" on="1"/>
        <pt x="142" y="1588" on="1"/>
        <pt x="842" y="1588" on="1"/>
        <pt x="842" y="226" on="1"/>
      </contour>
      <contour>
        <pt x="284" y="368" on="1"/>
        <pt x="700" y="368" on="1"/>
        <pt x="700" y="1447" on="1"/>
        <pt x="284" y="1447" on="1"/>
      </contour>
    </TTGlyph>
    <TTGlyph name="uni066B" xMin="142" yMin="226" xMax="842" yMax="1588">
      <contour>
        <pt x="142" y="226" on="1"/>
        <pt x="142" y="1588" on="1"/>
        <pt x="842" y="1588" on="1"/>
        <pt x="842" y="226" on="1"/>
      </contour>
      <contour>
        <pt x="284" y="368" on="1"/>
        <pt x="700" y="368" on="1"/>
        <pt x="700" y="1447" on="1"/>
        <pt x="284" y="1447" on="1"/>
      </contour>
    </TTGlyph>
    <TTGlyph name="uni066C" xMin="142" yMin="226" xMax="842" yMax="1588">
      <contour>
        <pt x="142" y="226" on="1"/>
        <pt x="142" y="1588" on="1"/>
        <pt x="842" y="1588" on="1"/>
        <pt x="842" y="226" on="1"/>
      </contour>
      <contour>
        <pt x="284" y="368" on="1"/>
        <pt x="700" y="368" on="1"/>
        <pt x="700" y="1447" on="1"/>
        <pt x="284" y="1447" on="1"/>
      </contour>
    </TTGlyph>
    <TTGlyph name="uni0671" xMin="142" yMin="226" xMax="842" yMax="1588">
      <contour>
        <pt x="142" y="226" on="1"/>
        <pt x="142" y="1588" on="1"/>
        <pt x="842" y="1588" on="1"/>
        <pt x="842" y="226" on="1"/>
      </contour>
      <contour>
        <pt x="284" y="368" on="1"/>
        <pt x="700" y="368" on="1"/>
        <pt x="700" y="1447" on="1"/>
        <pt x="284" y="1447" on="1"/>
      </contour>
    </TTGlyph>
    <TTGlyph name="uni067C" xMin="142" yMin="226" xMax="842" yMax="1588">
      <contour>
        <pt x="142" y="226" on="1"/>
        <pt x="142" y="1588" on="1"/>
        <pt x="842" y="1588" on="1"/>
        <pt x="842" y="226" on="1"/>
      </contour>
      <contour>
        <pt x="284" y="368" on="1"/>
        <pt x="700" y="368" on="1"/>
        <pt x="700" y="1447" on="1"/>
        <pt x="284" y="1447" on="1"/>
      </contour>
    </TTGlyph>
    <TTGlyph name="uni0681" xMin="142" yMin="226" xMax="842" yMax="1588">
      <contour>
        <pt x="142" y="226" on="1"/>
        <pt x="142" y="1588" on="1"/>
        <pt x="842" y="1588" on="1"/>
        <pt x="842" y="226" on="1"/>
      </contour>
      <contour>
        <pt x="284" y="368" on="1"/>
        <pt x="700" y="368" on="1"/>
        <pt x="700" y="1447" on="1"/>
        <pt x="284" y="1447" on="1"/>
      </contour>
    </TTGlyph>
    <TTGlyph name="uni0685" xMin="142" yMin="226" xMax="842" yMax="1588">
      <contour>
        <pt x="142" y="226" on="1"/>
        <pt x="142" y="1588" on="1"/>
        <pt x="842" y="1588" on="1"/>
        <pt x="842" y="226" on="1"/>
      </contour>
      <contour>
        <pt x="284" y="368" on="1"/>
        <pt x="700" y="368" on="1"/>
        <pt x="700" y="1447" on="1"/>
        <pt x="284" y="1447" on="1"/>
      </contour>
    </TTGlyph>
    <TTGlyph name="uni0689" xMin="142" yMin="226" xMax="842" yMax="1588">
      <contour>
        <pt x="142" y="226" on="1"/>
        <pt x="142" y="1588" on="1"/>
        <pt x="842" y="1588" on="1"/>
        <pt x="842" y="226" on="1"/>
      </contour>
      <contour>
        <pt x="284" y="368" on="1"/>
        <pt x="700" y="368" on="1"/>
        <pt x="700" y="1447" on="1"/>
        <pt x="284" y="1447" on="1"/>
      </contour>
    </TTGlyph>
    <TTGlyph name="uni0693" xMin="142" yMin="226" xMax="842" yMax="1588">
      <contour>
        <pt x="142" y="226" on="1"/>
        <pt x="142" y="1588" on="1"/>
        <pt x="842" y="1588" on="1"/>
        <pt x="842" y="226" on="1"/>
      </contour>
      <contour>
        <pt x="284" y="368" on="1"/>
        <pt x="700" y="368" on="1"/>
        <pt x="700" y="1447" on="1"/>
        <pt x="284" y="1447" on="1"/>
      </contour>
    </TTGlyph>
    <TTGlyph name="uni0696" xMin="142" yMin="226" xMax="842" yMax="1588">
      <contour>
        <pt x="142" y="226" on="1"/>
        <pt x="142" y="1588" on="1"/>
        <pt x="842" y="1588" on="1"/>
        <pt x="842" y="226" on="1"/>
      </contour>
      <contour>
        <pt x="284" y="368" on="1"/>
        <pt x="700" y="368" on="1"/>
        <pt x="700" y="1447" on="1"/>
        <pt x="284" y="1447" on="1"/>
      </contour>
    </TTGlyph>
    <TTGlyph name="uni069A" xMin="142" yMin="226" xMax="842" yMax="1588">
      <contour>
        <pt x="142" y="226" on="1"/>
        <pt x="142" y="1588" on="1"/>
        <pt x="842" y="1588" on="1"/>
        <pt x="842" y="226" on="1"/>
      </contour>
      <contour>
        <pt x="284" y="368" on="1"/>
        <pt x="700" y="368" on="1"/>
        <pt x="700" y="1447" on="1"/>
        <pt x="284" y="1447" on="1"/>
      </contour>
    </TTGlyph>
    <TTGlyph name="uni06A9" xMin="142" yMin="226" xMax="842" yMax="1588">
      <contour>
        <pt x="142" y="226" on="1"/>
        <pt x="142" y="1588" on="1"/>
        <pt x="842" y="1588" on="1"/>
        <pt x="842" y="226" on="1"/>
      </contour>
      <contour>
        <pt x="284" y="368" on="1"/>
        <pt x="700" y="368" on="1"/>
        <pt x="700" y="1447" on="1"/>
        <pt x="284" y="1447" on="1"/>
      </contour>
    </TTGlyph>
    <TTGlyph name="uni06AB" xMin="142" yMin="226" xMax="842" yMax="1588">
      <contour>
        <pt x="142" y="226" on="1"/>
        <pt x="142" y="1588" on="1"/>
        <pt x="842" y="1588" on="1"/>
        <pt x="842" y="226" on="1"/>
      </contour>
      <contour>
        <pt x="284" y="368" on="1"/>
        <pt x="700" y="368" on="1"/>
        <pt x="700" y="1447" on="1"/>
        <pt x="284" y="1447" on="1"/>
      </contour>
    </TTGlyph>
    <TTGlyph name="uni06B7" xMin="142" yMin="226" xMax="842" yMax="1588">
      <contour>
        <pt x="142" y="226" on="1"/>
        <pt x="142" y="1588" on="1"/>
        <pt x="842" y="1588" on="1"/>
        <pt x="842" y="226" on="1"/>
      </contour>
      <contour>
        <pt x="284" y="368" on="1"/>
        <pt x="700" y="368" on="1"/>
        <pt x="700" y="1447" on="1"/>
        <pt x="284" y="1447" on="1"/>
      </contour>
    </TTGlyph>
    <TTGlyph name="uni06BC" xMin="142" yMin="226" xMax="842" yMax="1588">
      <contour>
        <pt x="142" y="226" on="1"/>
        <pt x="142" y="1588" on="1"/>
        <pt x="842" y="1588" on="1"/>
        <pt x="842" y="226" on="1"/>
      </contour>
      <contour>
        <pt x="284" y="368" on="1"/>
        <pt x="700" y="368" on="1"/>
        <pt x="700" y="1447" on="1"/>
        <pt x="284" y="1447" on="1"/>
      </contour>
    </TTGlyph>
    <TTGlyph name="uni06BE" xMin="142" yMin="226" xMax="842" yMax="1588">
      <contour>
        <pt x="142" y="226" on="1"/>
        <pt x="142" y="1588" on="1"/>
        <pt x="842" y="1588" on="1"/>
        <pt x="842" y="226" on="1"/>
      </contour>
      <contour>
        <pt x="284" y="368" on="1"/>
        <pt x="700" y="368" on="1"/>
        <pt x="700" y="1447" on="1"/>
        <pt x="284" y="1447" on="1"/>
      </contour>
    </TTGlyph>
    <TTGlyph name="uni06C2" xMin="142" yMin="226" xMax="842" yMax="1588">
      <contour>
        <pt x="142" y="226" on="1"/>
        <pt x="142" y="1588" on="1"/>
        <pt x="842" y="1588" on="1"/>
        <pt x="842" y="226" on="1"/>
      </contour>
      <contour>
        <pt x="284" y="368" on="1"/>
        <pt x="700" y="368" on="1"/>
        <pt x="700" y="1447" on="1"/>
        <pt x="284" y="1447" on="1"/>
      </contour>
    </TTGlyph>
    <TTGlyph name="uni06C7" xMin="142" yMin="226" xMax="842" yMax="1588">
      <contour>
        <pt x="142" y="226" on="1"/>
        <pt x="142" y="1588" on="1"/>
        <pt x="842" y="1588" on="1"/>
        <pt x="842" y="226" on="1"/>
      </contour>
      <contour>
        <pt x="284" y="368" on="1"/>
        <pt x="700" y="368" on="1"/>
        <pt x="700" y="1447" on="1"/>
        <pt x="284" y="1447" on="1"/>
      </contour>
    </TTGlyph>
    <TTGlyph name="uni06C9" xMin="142" yMin="226" xMax="842" yMax="1588">
      <contour>
        <pt x="142" y="226" on="1"/>
        <pt x="142" y="1588" on="1"/>
        <pt x="842" y="1588" on="1"/>
        <pt x="842" y="226" on="1"/>
      </contour>
      <contour>
        <pt x="284" y="368" on="1"/>
        <pt x="700" y="368" on="1"/>
        <pt x="700" y="1447" on="1"/>
        <pt x="284" y="1447" on="1"/>
      </contour>
    </TTGlyph>
    <TTGlyph name="uni06CC" xMin="142" yMin="226" xMax="842" yMax="1588">
      <contour>
        <pt x="142" y="226" on="1"/>
        <pt x="142" y="1588" on="1"/>
        <pt x="842" y="1588" on="1"/>
        <pt x="842" y="226" on="1"/>
      </contour>
      <contour>
        <pt x="284" y="368" on="1"/>
        <pt x="700" y="368" on="1"/>
        <pt x="700" y="1447" on="1"/>
        <pt x="284" y="1447" on="1"/>
      </contour>
    </TTGlyph>
    <TTGlyph name="uni06CD" xMin="142" yMin="226" xMax="842" yMax="1588">
      <contour>
        <pt x="142" y="226" on="1"/>
        <pt x="142" y="1588" on="1"/>
        <pt x="842" y="1588" on="1"/>
        <pt x="842" y="226" on="1"/>
      </contour>
      <contour>
        <pt x="284" y="368" on="1"/>
        <pt x="700" y="368" on="1"/>
        <pt x="700" y="1447" on="1"/>
        <pt x="284" y="1447" on="1"/>
      </contour>
    </TTGlyph>
    <TTGlyph name="uni06D0" xMin="142" yMin="226" xMax="842" yMax="1588">
      <contour>
        <pt x="142" y="226" on="1"/>
        <pt x="142" y="1588" on="1"/>
        <pt x="842" y="1588" on="1"/>
        <pt x="842" y="226" on="1"/>
      </contour>
      <contour>
        <pt x="284" y="368" on="1"/>
        <pt x="700" y="368" on="1"/>
        <pt x="700" y="1447" on="1"/>
        <pt x="284" y="1447" on="1"/>
      </contour>
    </TTGlyph>
    <TTGlyph name="uni06D1" xMin="142" yMin="226" xMax="842" yMax="1588">
      <contour>
        <pt x="142" y="226" on="1"/>
        <pt x="142" y="1588" on="1"/>
        <pt x="842" y="1588" on="1"/>
        <pt x="842" y="226" on="1"/>
      </contour>
      <contour>
        <pt x="284" y="368" on="1"/>
        <pt x="700" y="368" on="1"/>
        <pt x="700" y="1447" on="1"/>
        <pt x="284" y="1447" on="1"/>
      </contour>
    </TTGlyph>
    <TTGlyph name="uni06D3" xMin="142" yMin="226" xMax="842" yMax="1588">
      <contour>
        <pt x="142" y="226" on="1"/>
        <pt x="142" y="1588" on="1"/>
        <pt x="842" y="1588" on="1"/>
        <pt x="842" y="226" on="1"/>
      </contour>
      <contour>
        <pt x="284" y="368" on="1"/>
        <pt x="700" y="368" on="1"/>
        <pt x="700" y="1447" on="1"/>
        <pt x="284" y="1447" on="1"/>
      </contour>
    </TTGlyph>
    <TTGlyph name="uni06D4" xMin="142" yMin="226" xMax="842" yMax="1588">
      <contour>
        <pt x="142" y="226" on="1"/>
        <pt x="142" y="1588" on="1"/>
        <pt x="842" y="1588" on="1"/>
        <pt x="842" y="226" on="1"/>
      </contour>
      <contour>
        <pt x="284" y="368" on="1"/>
        <pt x="700" y="368" on="1"/>
        <pt x="700" y="1447" on="1"/>
        <pt x="284" y="1447" on="1"/>
      </contour>
    </TTGlyph>
    <TTGlyph name="uni06F0" xMin="142" yMin="226" xMax="842" yMax="1588">
      <contour>
        <pt x="142" y="226" on="1"/>
        <pt x="142" y="1588" on="1"/>
        <pt x="842" y="1588" on="1"/>
        <pt x="842" y="226" on="1"/>
      </contour>
      <contour>
        <pt x="284" y="368" on="1"/>
        <pt x="700" y="368" on="1"/>
        <pt x="700" y="1447" on="1"/>
        <pt x="284" y="1447" on="1"/>
      </contour>
    </TTGlyph>
    <TTGlyph name="uni06F1" xMin="142" yMin="226" xMax="842" yMax="1588">
      <contour>
        <pt x="142" y="226" on="1"/>
        <pt x="142" y="1588" on="1"/>
        <pt x="842" y="1588" on="1"/>
        <pt x="842" y="226" on="1"/>
      </contour>
      <contour>
        <pt x="284" y="368" on="1"/>
        <pt x="700" y="368" on="1"/>
        <pt x="700" y="1447" on="1"/>
        <pt x="284" y="1447" on="1"/>
      </contour>
    </TTGlyph>
    <TTGlyph name="uni06F2" xMin="142" yMin="226" xMax="842" yMax="1588">
      <contour>
        <pt x="142" y="226" on="1"/>
        <pt x="142" y="1588" on="1"/>
        <pt x="842" y="1588" on="1"/>
        <pt x="842" y="226" on="1"/>
      </contour>
      <contour>
        <pt x="284" y="368" on="1"/>
        <pt x="700" y="368" on="1"/>
        <pt x="700" y="1447" on="1"/>
        <pt x="284" y="1447" on="1"/>
      </contour>
    </TTGlyph>
    <TTGlyph name="uni06F3" xMin="142" yMin="226" xMax="842" yMax="1588">
      <contour>
        <pt x="142" y="226" on="1"/>
        <pt x="142" y="1588" on="1"/>
        <pt x="842" y="1588" on="1"/>
        <pt x="842" y="226" on="1"/>
      </contour>
      <contour>
        <pt x="284" y="368" on="1"/>
        <pt x="700" y="368" on="1"/>
        <pt x="700" y="1447" on="1"/>
        <pt x="284" y="1447" on="1"/>
      </contour>
    </TTGlyph>
    <TTGlyph name="uni06F4" xMin="142" yMin="226" xMax="842" yMax="1588">
      <contour>
        <pt x="142" y="226" on="1"/>
        <pt x="142" y="1588" on="1"/>
        <pt x="842" y="1588" on="1"/>
        <pt x="842" y="226" on="1"/>
      </contour>
      <contour>
        <pt x="284" y="368" on="1"/>
        <pt x="700" y="368" on="1"/>
        <pt x="700" y="1447" on="1"/>
        <pt x="284" y="1447" on="1"/>
      </contour>
    </TTGlyph>
    <TTGlyph name="uni06F5" xMin="142" yMin="226" xMax="842" yMax="1588">
      <contour>
        <pt x="142" y="226" on="1"/>
        <pt x="142" y="1588" on="1"/>
        <pt x="842" y="1588" on="1"/>
        <pt x="842" y="226" on="1"/>
      </contour>
      <contour>
        <pt x="284" y="368" on="1"/>
        <pt x="700" y="368" on="1"/>
        <pt x="700" y="1447" on="1"/>
        <pt x="284" y="1447" on="1"/>
      </contour>
    </TTGlyph>
    <TTGlyph name="uni06F6" xMin="142" yMin="226" xMax="842" yMax="1588">
      <contour>
        <pt x="142" y="226" on="1"/>
        <pt x="142" y="1588" on="1"/>
        <pt x="842" y="1588" on="1"/>
        <pt x="842" y="226" on="1"/>
      </contour>
      <contour>
        <pt x="284" y="368" on="1"/>
        <pt x="700" y="368" on="1"/>
        <pt x="700" y="1447" on="1"/>
        <pt x="284" y="1447" on="1"/>
      </contour>
    </TTGlyph>
    <TTGlyph name="uni06F7" xMin="142" yMin="226" xMax="842" yMax="1588">
      <contour>
        <pt x="142" y="226" on="1"/>
        <pt x="142" y="1588" on="1"/>
        <pt x="842" y="1588" on="1"/>
        <pt x="842" y="226" on="1"/>
      </contour>
      <contour>
        <pt x="284" y="368" on="1"/>
        <pt x="700" y="368" on="1"/>
        <pt x="700" y="1447" on="1"/>
        <pt x="284" y="1447" on="1"/>
      </contour>
    </TTGlyph>
    <TTGlyph name="uni06F8" xMin="142" yMin="226" xMax="842" yMax="1588">
      <contour>
        <pt x="142" y="226" on="1"/>
        <pt x="142" y="1588" on="1"/>
        <pt x="842" y="1588" on="1"/>
        <pt x="842" y="226" on="1"/>
      </contour>
      <contour>
        <pt x="284" y="368" on="1"/>
        <pt x="700" y="368" on="1"/>
        <pt x="700" y="1447" on="1"/>
        <pt x="284" y="1447" on="1"/>
      </contour>
    </TTGlyph>
    <TTGlyph name="uni06F9" xMin="142" yMin="226" xMax="842" yMax="1588">
      <contour>
        <pt x="142" y="226" on="1"/>
        <pt x="142" y="1588" on="1"/>
        <pt x="842" y="1588" on="1"/>
        <pt x="842" y="226" on="1"/>
      </contour>
      <contour>
        <pt x="284" y="368" on="1"/>
        <pt x="700" y="368" on="1"/>
        <pt x="700" y="1447" on="1"/>
        <pt x="284" y="1447" on="1"/>
      </contour>
    </TTGlyph>
    <TTGlyph name="uni2010" xMin="479" yMin="1516" xMax="939" yMax="2047">
      <contour>
        <pt x="939" y="1583" on="1"/>
        <pt x="856" y="1531" on="0"/>
        <pt x="829" y="1523" on="1"/>
        <pt x="805" y="1516" on="0"/>
        <pt x="730" y="1516" on="1"/>
        <pt x="479" y="1516" on="0"/>
        <pt x="479" y="1705" on="1"/>
        <pt x="479" y="1810" on="0"/>
        <pt x="547" y="1911" on="1"/>
        <pt x="551" y="1918" on="0"/>
        <pt x="551" y="1928" on="1"/>
        <pt x="530" y="1939" on="0"/>
        <pt x="480" y="1937" on="1"/>
        <pt x="480" y="1973" on="1"/>
        <pt x="553" y="2047" on="0"/>
        <pt x="586" y="2047" on="1"/>
        <pt x="556" y="2047" on="0"/>
        <pt x="701" y="2043" on="1"/>
        <pt x="810" y="2040" on="0"/>
        <pt x="866" y="2045" on="1"/>
        <pt x="866" y="1999" on="1"/>
        <pt x="831" y="1967" on="0"/>
        <pt x="740" y="1936" on="1"/>
        <pt x="643" y="1902" on="0"/>
        <pt x="610" y="1877" on="1"/>
        <pt x="550" y="1831" on="0"/>
        <pt x="550" y="1746" on="1"/>
        <pt x="550" y="1675" on="0"/>
        <pt x="622" y="1632" on="1"/>
        <pt x="680" y="1597" on="0"/>
        <pt x="740" y="1597" on="1"/>
        <pt x="826" y="1597" on="0"/>
      </contour>
      <contour>
        <pt x="776" y="1777" on="1"/>
        <pt x="751" y="1720" on="0"/>
        <pt x="714" y="1720" on="1"/>
        <pt x="681" y="1720" on="0"/>
        <pt x="653" y="1776" on="1"/>
        <pt x="679" y="1823" on="0"/>
        <pt x="709" y="1823" on="1"/>
        <pt x="730" y="1823" on="0"/>
      </contour>
    </TTGlyph>
    <TTGlyph name="uni2011" xMin="479" yMin="1516" xMax="939" yMax="2047">
      <contour>
        <pt x="939" y="1583" on="1"/>
        <pt x="856" y="1531" on="0"/>
        <pt x="829" y="1523" on="1"/>
        <pt x="805" y="1516" on="0"/>
        <pt x="730" y="1516" on="1"/>
        <pt x="479" y="1516" on="0"/>
        <pt x="479" y="1705" on="1"/>
        <pt x="479" y="1810" on="0"/>
        <pt x="547" y="1911" on="1"/>
        <pt x="551" y="1918" on="0"/>
        <pt x="551" y="1928" on="1"/>
        <pt x="530" y="1939" on="0"/>
        <pt x="480" y="1937" on="1"/>
        <pt x="480" y="1973" on="1"/>
        <pt x="553" y="2047" on="0"/>
        <pt x="586" y="2047" on="1"/>
        <pt x="556" y="2047" on="0"/>
        <pt x="701" y="2043" on="1"/>
        <pt x="810" y="2040" on="0"/>
        <pt x="866" y="2045" on="1"/>
        <pt x="866" y="1999" on="1"/>
        <pt x="831" y="1967" on="0"/>
        <pt x="740" y="1936" on="1"/>
        <pt x="643" y="1902" on="0"/>
        <pt x="610" y="1877" on="1"/>
        <pt x="550" y="1831" on="0"/>
        <pt x="550" y="1746" on="1"/>
        <pt x="550" y="1675" on="0"/>
        <pt x="622" y="1632" on="1"/>
        <pt x="680" y="1597" on="0"/>
        <pt x="740" y="1597" on="1"/>
        <pt x="826" y="1597" on="0"/>
      </contour>
      <contour>
        <pt x="776" y="1777" on="1"/>
        <pt x="751" y="1720" on="0"/>
        <pt x="714" y="1720" on="1"/>
        <pt x="681" y="1720" on="0"/>
        <pt x="653" y="1776" on="1"/>
        <pt x="679" y="1823" on="0"/>
        <pt x="709" y="1823" on="1"/>
        <pt x="730" y="1823" on="0"/>
      </contour>
    </TTGlyph>
    <TTGlyph name="uniE000" xMin="0" yMin="0" xMax="1575" yMax="1575">
      <contour>
        <pt x="0" y="1575" on="1"/>
        <pt x="1575" y="1575" on="1"/>
        <pt x="1575" y="0" on="1"/>
        <pt x="0" y="0" on="1"/>
      </contour>
    </TTGlyph>
    <TTGlyph name="uniFB51" xMin="255" yMin="-493" xMax="4340" yMax="1493">
      <contour>
        <pt x="4340" y="1313" on="1"/>
        <pt x="4340" y="1272" on="0"/>
        <pt x="4297" y="1250" on="1"/>
        <pt x="3867" y="1032" on="0"/>
        <pt x="3864" y="1032" on="1"/>
        <pt x="3819" y="1032" on="0"/>
        <pt x="3819" y="1078" on="1"/>
        <pt x="3819" y="1121" on="0"/>
        <pt x="3851" y="1140" on="1"/>
        <pt x="3913" y="1162" on="0"/>
        <pt x="4015" y="1208" on="1"/>
        <pt x="4106" y="1259" on="0"/>
        <pt x="4304" y="1370" on="1"/>
        <pt x="4340" y="1352" on="0"/>
      </contour>
      <contour>
        <pt x="3655" y="1329" on="1"/>
        <pt x="3655" y="1281" on="0"/>
        <pt x="3601" y="1250" on="1"/>
        <pt x="3175" y="1001" on="0"/>
        <pt x="3143" y="1001" on="1"/>
        <pt x="3125" y="1001" on="0"/>
        <pt x="3102" y="1025" on="1"/>
        <pt x="3102" y="1070" on="1"/>
        <pt x="3180" y="1135" on="0"/>
        <pt x="3343" y="1221" on="1"/>
        <pt x="3586" y="1352" on="0"/>
        <pt x="3597" y="1358" on="1"/>
        <pt x="3643" y="1358" on="1"/>
        <pt x="3643" y="1355" on="0"/>
        <pt x="3655" y="1343" on="0"/>
      </contour>
      <contour>
        <pt x="4340" y="65" on="1"/>
        <pt x="4340" y="-100" on="0"/>
        <pt x="4204" y="-285" on="1"/>
        <pt x="4054" y="-493" on="0"/>
        <pt x="3869" y="-493" on="1"/>
        <pt x="3799" y="-493" on="0"/>
        <pt x="3697" y="-469" on="1"/>
        <pt x="3585" y="-442" on="0"/>
        <pt x="3542" y="-407" on="1"/>
        <pt x="3552" y="-371" on="0"/>
        <pt x="3603" y="-371" on="1"/>
        <pt x="3628" y="-371" on="0"/>
        <pt x="3711" y="-391" on="0"/>
        <pt x="3716" y="-391" on="1"/>
        <pt x="3782" y="-391" on="0"/>
        <pt x="3886" y="-353" on="1"/>
        <pt x="3978" y="-320" on="0"/>
        <pt x="4074" y="-253" on="0"/>
        <pt x="4145" y="-172" on="1"/>
        <pt x="4229" y="-74" on="0"/>
        <pt x="4259" y="1" on="1"/>
        <pt x="4267" y="8" on="0"/>
        <pt x="4243" y="8" on="1"/>
        <pt x="4232" y="8" on="0"/>
        <pt x="4149" y="-53" on="0"/>
        <pt x="4136" y="-53" on="1"/>
        <pt x="4082" y="-53" on="0"/>
        <pt x="4040" y="9" on="1"/>
        <pt x="4003" y="63" on="0"/>
        <pt x="4003" y="106" on="1"/>
        <pt x="4003" y="161" on="0"/>
        <pt x="4036" y="240" on="1"/>
        <pt x="4081" y="346" on="0"/>
        <pt x="4151" y="346" on="1"/>
        <pt x="4245" y="346" on="0"/>
        <pt x="4299" y="230" on="1"/>
        <pt x="4340" y="144" on="0"/>
      </contour>
      <contour>
        <pt x="2815" y="1343" on="1"/>
        <pt x="2813" y="1327" on="0"/>
        <pt x="2800" y="1290" on="1"/>
        <pt x="2781" y="1257" on="0"/>
        <pt x="2732" y="1233" on="1"/>
        <pt x="2690" y="1212" on="0"/>
        <pt x="2649" y="1193" on="1"/>
        <pt x="2543" y="1127" on="0"/>
        <pt x="2371" y="1032" on="1"/>
        <pt x="2337" y="1032" on="1"/>
        <pt x="2323" y="1045" on="0"/>
        <pt x="2323" y="1067" on="1"/>
        <pt x="2323" y="1114" on="0"/>
        <pt x="2514" y="1227" on="1"/>
        <pt x="2675" y="1324" on="0"/>
        <pt x="2790" y="1370" on="1"/>
      </contour>
      <contour>
        <pt x="3173" y="510" on="1"/>
        <pt x="3173" y="469" on="0"/>
        <pt x="3152" y="400" on="1"/>
        <pt x="3147" y="395" on="0"/>
        <pt x="3121" y="382" on="0"/>
        <pt x="3116" y="377" on="1"/>
        <pt x="3102" y="437" on="0"/>
        <pt x="3057" y="553" on="1"/>
        <pt x="3049" y="568" on="0"/>
        <pt x="2989" y="637" on="1"/>
        <pt x="2938" y="696" on="0"/>
        <pt x="2938" y="714" on="1"/>
        <pt x="2938" y="766" on="0"/>
        <pt x="2989" y="766" on="1"/>
        <pt x="3066" y="766" on="0"/>
        <pt x="3125" y="650" on="1"/>
        <pt x="3173" y="560" on="0"/>
      </contour>
      <contour>
        <pt x="3685" y="156" on="1"/>
        <pt x="3685" y="-25" on="0"/>
        <pt x="3546" y="-212" on="1"/>
        <pt x="3397" y="-412" on="0"/>
        <pt x="3225" y="-412" on="1"/>
        <pt x="3130" y="-412" on="0"/>
        <pt x="3005" y="-387" on="1"/>
        <pt x="2861" y="-359" on="0"/>
        <pt x="2845" y="-324" on="1"/>
        <pt x="2853" y="-309" on="0"/>
        <pt x="2881" y="-293" on="1"/>
        <pt x="2906" y="-294" on="0"/>
        <pt x="2981" y="-308" on="1"/>
        <pt x="3052" y="-319" on="0"/>
        <pt x="3066" y="-319" on="1"/>
        <pt x="3077" y="-319" on="0"/>
        <pt x="3107" y="-308" on="1"/>
        <pt x="3141" y="-295" on="0"/>
        <pt x="3157" y="-292" on="1"/>
        <pt x="3280" y="-272" on="0"/>
        <pt x="3367" y="-208" on="1"/>
        <pt x="3440" y="-155" on="0"/>
        <pt x="3529" y="-35" on="1"/>
        <pt x="3603" y="66" on="0"/>
        <pt x="3603" y="90" on="1"/>
        <pt x="3603" y="126" on="0"/>
        <pt x="3546" y="175" on="1"/>
        <pt x="3454" y="255" on="0"/>
        <pt x="3453" y="256" on="1"/>
        <pt x="3439" y="271" on="0"/>
        <pt x="3439" y="325" on="1"/>
        <pt x="3439" y="407" on="0"/>
        <pt x="3496" y="407" on="1"/>
        <pt x="3569" y="407" on="0"/>
        <pt x="3633" y="292" on="1"/>
        <pt x="3685" y="199" on="0"/>
      </contour>
      <contour>
        <pt x="2190" y="1324" on="1"/>
        <pt x="2190" y="1278" on="0"/>
        <pt x="2002" y="1171" on="1"/>
        <pt x="1870" y="1096" on="0"/>
        <pt x="1736" y="1022" on="1"/>
        <pt x="1702" y="1022" on="1"/>
        <pt x="1679" y="1045" on="0"/>
        <pt x="1679" y="1067" on="1"/>
        <pt x="1679" y="1111" on="0"/>
        <pt x="1890" y="1227" on="1"/>
        <pt x="2017" y="1293" on="0"/>
        <pt x="2143" y="1358" on="1"/>
        <pt x="2178" y="1358" on="1"/>
        <pt x="2178" y="1355" on="0"/>
        <pt x="2190" y="1339" on="0"/>
      </contour>
      <contour>
        <pt x="1586" y="1242" on="1"/>
        <pt x="1586" y="1166" on="0"/>
        <pt x="1428" y="1097" on="1"/>
        <pt x="1422" y="1095" on="0"/>
        <pt x="1264" y="1042" on="1"/>
        <pt x="1188" y="1054" on="1"/>
        <pt x="1188" y="1091" on="1"/>
        <pt x="1238" y="1109" on="0"/>
        <pt x="1340" y="1146" on="0"/>
        <pt x="1372" y="1181" on="1"/>
        <pt x="1358" y="1217" on="0"/>
        <pt x="1325" y="1217" on="1"/>
        <pt x="1313" y="1217" on="0"/>
        <pt x="1296" y="1196" on="0"/>
        <pt x="1283" y="1197" on="1"/>
        <pt x="1218" y="1197" on="1"/>
        <pt x="1218" y="1230" on="1"/>
        <pt x="1218" y="1272" on="0"/>
        <pt x="1281" y="1298" on="1"/>
        <pt x="1329" y="1319" on="0"/>
        <pt x="1376" y="1319" on="1"/>
        <pt x="1586" y="1288" on="0"/>
      </contour>
      <contour>
        <pt x="2866" y="161" on="1"/>
        <pt x="2866" y="151" on="0"/>
        <pt x="2849" y="90" on="0"/>
        <pt x="2848" y="75" on="1"/>
        <pt x="2844" y="-57" on="0"/>
        <pt x="2635" y="-334" on="0"/>
        <pt x="2484" y="-408" on="1"/>
        <pt x="2458" y="-421" on="0"/>
        <pt x="2344" y="-421" on="1"/>
        <pt x="2208" y="-421" on="0"/>
        <pt x="1996" y="-357" on="1"/>
        <pt x="2023" y="-309" on="0"/>
        <pt x="2068" y="-309" on="1"/>
        <pt x="2078" y="-309" on="0"/>
        <pt x="2126" y="-319" on="0"/>
        <pt x="2139" y="-319" on="1"/>
        <pt x="2559" y="-319" on="0"/>
        <pt x="2764" y="72" on="1"/>
        <pt x="2749" y="73" on="0"/>
        <pt x="2668" y="39" on="0"/>
        <pt x="2656" y="39" on="1"/>
        <pt x="2608" y="39" on="0"/>
        <pt x="2554" y="113" on="1"/>
        <pt x="2508" y="177" on="0"/>
        <pt x="2508" y="202" on="1"/>
        <pt x="2508" y="245" on="0"/>
        <pt x="2551" y="333" on="1"/>
        <pt x="2609" y="448" on="0"/>
        <pt x="2681" y="448" on="1"/>
        <pt x="2758" y="448" on="0"/>
        <pt x="2818" y="313" on="1"/>
        <pt x="2866" y="207" on="0"/>
      </contour>
      <contour>
        <pt x="2251" y="126" on="1"/>
        <pt x="2251" y="98" on="0"/>
        <pt x="2231" y="32" on="1"/>
        <pt x="2207" y="-40" on="0"/>
        <pt x="2187" y="-49" on="1"/>
        <pt x="2164" y="-61" on="0"/>
        <pt x="1879" y="-114" on="0"/>
        <pt x="1848" y="-114" on="1"/>
        <pt x="1720" y="-114" on="0"/>
        <pt x="1720" y="-17" on="1"/>
        <pt x="1720" y="57" on="0"/>
        <pt x="1755" y="59" on="1"/>
        <pt x="1831" y="61" on="0"/>
        <pt x="2000" y="76" on="1"/>
        <pt x="2050" y="82" on="0"/>
        <pt x="2151" y="107" on="1"/>
        <pt x="2152" y="117" on="0"/>
        <pt x="2152" y="126" on="1"/>
        <pt x="2152" y="274" on="0"/>
        <pt x="1905" y="377" on="1"/>
        <pt x="1899" y="410" on="0"/>
        <pt x="1915" y="460" on="1"/>
        <pt x="1933" y="520" on="0"/>
        <pt x="1965" y="520" on="1"/>
        <pt x="2031" y="520" on="0"/>
        <pt x="2121" y="429" on="1"/>
        <pt x="2197" y="353" on="0"/>
        <pt x="2217" y="301" on="1"/>
        <pt x="2251" y="211" on="0"/>
      </contour>
      <contour>
        <pt x="1474" y="719" on="1"/>
        <pt x="1474" y="692" on="0"/>
        <pt x="1408" y="623" on="0"/>
        <pt x="1386" y="623" on="1"/>
        <pt x="1367" y="623" on="0"/>
        <pt x="1301" y="664" on="0"/>
        <pt x="1290" y="664" on="1"/>
        <pt x="1277" y="664" on="0"/>
        <pt x="1205" y="612" on="0"/>
        <pt x="1192" y="612" on="1"/>
        <pt x="1158" y="612" on="0"/>
        <pt x="1124" y="655" on="1"/>
        <pt x="1095" y="693" on="0"/>
        <pt x="1095" y="714" on="1"/>
        <pt x="1095" y="746" on="0"/>
        <pt x="1132" y="774" on="1"/>
        <pt x="1162" y="796" on="0"/>
        <pt x="1177" y="796" on="1"/>
        <pt x="1190" y="796" on="0"/>
        <pt x="1261" y="755" on="0"/>
        <pt x="1274" y="755" on="1"/>
        <pt x="1284" y="755" on="0"/>
        <pt x="1345" y="817" on="0"/>
        <pt x="1366" y="817" on="1"/>
        <pt x="1390" y="817" on="0"/>
        <pt x="1431" y="784" on="1"/>
        <pt x="1474" y="748" on="0"/>
      </contour>
      <contour>
        <pt x="849" y="1155" on="1"/>
        <pt x="849" y="1126" on="0"/>
        <pt x="826" y="1108" on="1"/>
        <pt x="809" y="1094" on="0"/>
        <pt x="793" y="1094" on="1"/>
        <pt x="782" y="1094" on="0"/>
        <pt x="729" y="1135" on="0"/>
        <pt x="716" y="1135" on="1"/>
        <pt x="704" y="1135" on="0"/>
        <pt x="648" y="1086" on="1"/>
        <pt x="580" y="1027" on="0"/>
        <pt x="560" y="1015" on="1"/>
        <pt x="469" y="958" on="0"/>
        <pt x="362" y="940" on="1"/>
        <pt x="307" y="954" on="1"/>
        <pt x="326" y="987" on="0"/>
        <pt x="426" y="1058" on="1"/>
        <pt x="562" y="1153" on="0"/>
        <pt x="583" y="1171" on="1"/>
        <pt x="577" y="1187" on="0"/>
        <pt x="532" y="1232" on="1"/>
        <pt x="491" y="1275" on="0"/>
        <pt x="491" y="1288" on="1"/>
        <pt x="491" y="1336" on="0"/>
        <pt x="555" y="1411" on="1"/>
        <pt x="623" y="1493" on="0"/>
        <pt x="680" y="1493" on="1"/>
        <pt x="696" y="1493" on="0"/>
        <pt x="731" y="1470" on="1"/>
        <pt x="747" y="1437" on="0"/>
        <pt x="747" y="1391" on="1"/>
        <pt x="747" y="1378" on="0"/>
        <pt x="744" y="1330" on="0"/>
        <pt x="744" y="1319" on="1"/>
        <pt x="744" y="1285" on="0"/>
        <pt x="759" y="1266" on="1"/>
        <pt x="765" y="1257" on="0"/>
        <pt x="814" y="1207" on="1"/>
        <pt x="849" y="1170" on="0"/>
      </contour>
      <contour>
        <pt x="1515" y="131" on="1"/>
        <pt x="1515" y="1" on="0"/>
        <pt x="1441" y="-59" on="1"/>
        <pt x="1435" y="-65" on="0"/>
        <pt x="1308" y="-90" on="1"/>
        <pt x="1178" y="-114" on="0"/>
        <pt x="1150" y="-114" on="1"/>
        <pt x="948" y="-114" on="1"/>
        <pt x="876" y="-114" on="0"/>
        <pt x="802" y="-56" on="1"/>
        <pt x="725" y="5" on="0"/>
        <pt x="699" y="90" on="1"/>
        <pt x="647" y="59" on="0"/>
        <pt x="596" y="28" on="1"/>
        <pt x="519" y="-12" on="0"/>
        <pt x="450" y="-12" on="1"/>
        <pt x="440" y="-12" on="0"/>
        <pt x="375" y="-1" on="1"/>
        <pt x="307" y="10" on="0"/>
        <pt x="280" y="11" on="1"/>
        <pt x="255" y="27" on="0"/>
        <pt x="255" y="59" on="1"/>
        <pt x="255" y="122" on="0"/>
        <pt x="343" y="222" on="1"/>
        <pt x="421" y="310" on="0"/>
        <pt x="484" y="342" on="1"/>
        <pt x="527" y="360" on="0"/>
        <pt x="606" y="399" on="1"/>
        <pt x="649" y="423" on="0"/>
        <pt x="649" y="480" on="1"/>
        <pt x="649" y="488" on="0"/>
        <pt x="647" y="523" on="0"/>
        <pt x="647" y="533" on="1"/>
        <pt x="647" y="596" on="0"/>
        <pt x="688" y="632" on="1"/>
        <pt x="714" y="632" on="0"/>
        <pt x="722" y="619" on="1"/>
        <pt x="733" y="570" on="0"/>
        <pt x="782" y="317" on="0"/>
        <pt x="794" y="260" on="1"/>
        <pt x="821" y="134" on="0"/>
        <pt x="916" y="49" on="0"/>
        <pt x="1035" y="49" on="1"/>
        <pt x="1145" y="49" on="1"/>
        <pt x="1108" y="49" on="0"/>
        <pt x="1375" y="82" on="1"/>
        <pt x="1379" y="85" on="0"/>
        <pt x="1402" y="106" on="1"/>
        <pt x="1391" y="159" on="0"/>
        <pt x="1343" y="214" on="1"/>
        <pt x="1299" y="264" on="0"/>
        <pt x="1299" y="295" on="1"/>
        <pt x="1299" y="330" on="0"/>
        <pt x="1333" y="387" on="1"/>
        <pt x="1389" y="387" on="1"/>
        <pt x="1515" y="270" on="0"/>
      </contour>
      <contour>
        <pt x="4177" y="133" on="1"/>
        <pt x="4177" y="172" on="1"/>
        <pt x="4177" y="188" on="0"/>
        <pt x="4170" y="192" on="1"/>
        <pt x="4167" y="193" on="0"/>
        <pt x="4164" y="192" on="1"/>
        <pt x="4128" y="192" on="1"/>
        <pt x="4122" y="179" on="0"/>
        <pt x="4105" y="156" on="1"/>
        <pt x="4140" y="120" on="0"/>
        <pt x="4151" y="120" on="1"/>
        <pt x="4175" y="120" on="0"/>
      </contour>
      <contour>
        <pt x="2690" y="224" on="1"/>
        <pt x="2690" y="229" on="0"/>
        <pt x="2681" y="268" on="0"/>
        <pt x="2681" y="273" on="1"/>
        <pt x="2642" y="273" on="1"/>
        <pt x="2642" y="235" on="1"/>
      </contour>
      <contour>
        <pt x="674" y="1309" on="1"/>
        <pt x="674" y="1346" on="1"/>
        <pt x="657" y="1364" on="0"/>
        <pt x="638" y="1354" on="1"/>
        <pt x="615" y="1348" on="0"/>
        <pt x="615" y="1321" on="1"/>
      </contour>
      <contour>
        <pt x="675" y="233" on="1"/>
        <pt x="675" y="267" on="0"/>
        <pt x="640" y="284" on="1"/>
        <pt x="593" y="275" on="0"/>
        <pt x="521" y="233" on="1"/>
        <pt x="442" y="188" on="0"/>
        <pt x="430" y="153" on="1"/>
        <pt x="447" y="153" on="0"/>
        <pt x="527" y="141" on="0"/>
        <pt x="537" y="141" on="1"/>
        <pt x="562" y="141" on="0"/>
        <pt x="611" y="164" on="1"/>
        <pt x="675" y="194" on="0"/>
      </contour>
    </TTGlyph>
    <TTGlyph name="uniFB52" xMin="290" yMin="-706" xMax="2287" yMax="1885">
      <contour>
        <pt x="2286" y="1534" on="1"/>
        <pt x="2287" y="1505" on="0"/>
        <pt x="2282" y="1448" on="1"/>
        <pt x="2270" y="1392" on="0"/>
        <pt x="2197" y="1327" on="1"/>
        <pt x="2120" y="1259" on="0"/>
        <pt x="2056" y="1259" on="1"/>
        <pt x="2044" y="1259" on="0"/>
        <pt x="1949" y="1290" on="0"/>
        <pt x="1938" y="1290" on="1"/>
        <pt x="1925" y="1290" on="0"/>
        <pt x="1896" y="1273" on="1"/>
        <pt x="1861" y="1253" on="0"/>
        <pt x="1850" y="1249" on="1"/>
        <pt x="1826" y="1274" on="1"/>
        <pt x="1860" y="1342" on="0"/>
        <pt x="1918" y="1375" on="1"/>
        <pt x="1965" y="1400" on="0"/>
        <pt x="2012" y="1425" on="1"/>
        <pt x="2050" y="1474" on="0"/>
        <pt x="2145" y="1561" on="1"/>
        <pt x="2167" y="1577" on="0"/>
        <pt x="2214" y="1577" on="1"/>
        <pt x="2241" y="1577" on="0"/>
      </contour>
      <contour>
        <pt x="1702" y="1837" on="1"/>
        <pt x="1702" y="1801" on="0"/>
        <pt x="1536" y="1727" on="1"/>
        <pt x="1503" y="1712" on="0"/>
        <pt x="1347" y="1635" on="1"/>
        <pt x="1230" y="1577" on="0"/>
        <pt x="1215" y="1578" on="1"/>
        <pt x="1171" y="1578" on="1"/>
        <pt x="1171" y="1621" on="1"/>
        <pt x="1170" y="1666" on="0"/>
        <pt x="1203" y="1685" on="1"/>
        <pt x="1582" y="1885" on="0"/>
        <pt x="1638" y="1883" on="1"/>
        <pt x="1702" y="1883" on="1"/>
      </contour>
      <contour>
        <pt x="1682" y="1457" on="1"/>
        <pt x="1682" y="1439" on="0"/>
        <pt x="1636" y="1384" on="1"/>
        <pt x="1596" y="1334" on="0"/>
        <pt x="1550" y="1324" on="1"/>
        <pt x="1488" y="1309" on="0"/>
        <pt x="1485" y="1307" on="1"/>
        <pt x="1407" y="1259" on="0"/>
        <pt x="1390" y="1259" on="1"/>
        <pt x="1356" y="1259" on="0"/>
        <pt x="1328" y="1293" on="1"/>
        <pt x="1303" y="1323" on="0"/>
        <pt x="1303" y="1352" on="1"/>
        <pt x="1303" y="1363" on="0"/>
        <pt x="1354" y="1452" on="0"/>
        <pt x="1369" y="1464" on="1"/>
        <pt x="1401" y="1457" on="0"/>
        <pt x="1402" y="1436" on="1"/>
        <pt x="1403" y="1407" on="0"/>
        <pt x="1423" y="1392" on="1"/>
        <pt x="1450" y="1396" on="0"/>
        <pt x="1470" y="1443" on="1"/>
        <pt x="1501" y="1515" on="0"/>
        <pt x="1501" y="1515" on="1"/>
        <pt x="1526" y="1511" on="0"/>
        <pt x="1537" y="1491" on="1"/>
        <pt x="1553" y="1456" on="0"/>
        <pt x="1566" y="1443" on="1"/>
        <pt x="1600" y="1446" on="0"/>
        <pt x="1610" y="1495" on="1"/>
        <pt x="1621" y="1551" on="0"/>
        <pt x="1656" y="1566" on="1"/>
        <pt x="1671" y="1555" on="0"/>
        <pt x="1682" y="1555" on="1"/>
      </contour>
      <contour>
        <pt x="2153" y="215" on="1"/>
        <pt x="2153" y="84" on="0"/>
        <pt x="2109" y="21" on="1"/>
        <pt x="2091" y="21" on="0"/>
        <pt x="2074" y="44" on="1"/>
        <pt x="2058" y="171" on="0"/>
        <pt x="1994" y="614" on="1"/>
        <pt x="1938" y="999" on="0"/>
        <pt x="1938" y="1013" on="1"/>
        <pt x="1938" y="1107" on="0"/>
        <pt x="1982" y="1156" on="1"/>
        <pt x="2019" y="1156" on="1"/>
        <pt x="2026" y="1092" on="0"/>
        <pt x="2096" y="690" on="1"/>
        <pt x="2153" y="358" on="0"/>
      </contour>
      <contour>
        <pt x="1334" y="629" on="1"/>
        <pt x="1334" y="585" on="0"/>
        <pt x="1291" y="555" on="1"/>
        <pt x="1257" y="532" on="0"/>
        <pt x="1226" y="532" on="1"/>
        <pt x="1212" y="532" on="0"/>
        <pt x="1172" y="553" on="0"/>
        <pt x="1160" y="553" on="1"/>
        <pt x="1148" y="553" on="0"/>
        <pt x="1071" y="492" on="0"/>
        <pt x="1058" y="492" on="1"/>
        <pt x="1022" y="492" on="0"/>
        <pt x="945" y="568" on="1"/>
        <pt x="1008" y="676" on="0"/>
        <pt x="1048" y="676" on="1"/>
        <pt x="1058" y="676" on="0"/>
        <pt x="1111" y="645" on="0"/>
        <pt x="1124" y="645" on="1"/>
        <pt x="1137" y="645" on="0"/>
        <pt x="1224" y="706" on="0"/>
        <pt x="1237" y="706" on="1"/>
        <pt x="1269" y="706" on="0"/>
        <pt x="1334" y="653" on="0"/>
      </contour>
      <contour>
        <pt x="1744" y="292" on="1"/>
        <pt x="1732" y="223" on="0"/>
        <pt x="1720" y="154" on="1"/>
        <pt x="1704" y="73" on="0"/>
        <pt x="1660" y="44" on="1"/>
        <pt x="1575" y="-10" on="0"/>
        <pt x="1406" y="-10" on="1"/>
        <pt x="1325" y="-10" on="0"/>
        <pt x="1123" y="153" on="0"/>
        <pt x="1124" y="153" on="1"/>
        <pt x="1095" y="153" on="0"/>
        <pt x="996" y="73" on="0"/>
        <pt x="996" y="51" on="1"/>
        <pt x="996" y="11" on="0"/>
        <pt x="1115" y="-2" on="1"/>
        <pt x="1251" y="-17" on="0"/>
        <pt x="1271" y="-36" on="1"/>
        <pt x="1303" y="-66" on="0"/>
        <pt x="1303" y="-122" on="1"/>
        <pt x="1303" y="-296" on="0"/>
        <pt x="1011" y="-414" on="1"/>
        <pt x="793" y="-502" on="0"/>
        <pt x="659" y="-502" on="1"/>
        <pt x="587" y="-502" on="0"/>
        <pt x="485" y="-450" on="1"/>
        <pt x="370" y="-394" on="0"/>
        <pt x="334" y="-325" on="1"/>
        <pt x="290" y="-240" on="0"/>
        <pt x="290" y="-154" on="1"/>
        <pt x="290" y="-64" on="0"/>
        <pt x="355" y="56" on="1"/>
        <pt x="415" y="168" on="0"/>
        <pt x="459" y="184" on="1"/>
        <pt x="474" y="172" on="0"/>
        <pt x="483" y="172" on="1"/>
        <pt x="483" y="116" on="1"/>
        <pt x="484" y="101" on="0"/>
        <pt x="473" y="89" on="1"/>
        <pt x="464" y="82" on="0"/>
        <pt x="455" y="74" on="1"/>
        <pt x="413" y="-22" on="0"/>
        <pt x="413" y="-77" on="1"/>
        <pt x="413" y="-197" on="0"/>
        <pt x="513" y="-271" on="1"/>
        <pt x="600" y="-338" on="0"/>
        <pt x="709" y="-338" on="1"/>
        <pt x="809" y="-338" on="0"/>
        <pt x="1094" y="-237" on="0"/>
        <pt x="1140" y="-187" on="1"/>
        <pt x="1140" y="-185" on="0"/>
        <pt x="1112" y="-167" on="1"/>
        <pt x="1040" y="-153" on="0"/>
        <pt x="968" y="-139" on="1"/>
        <pt x="863" y="-108" on="0"/>
        <pt x="863" y="-51" on="1"/>
        <pt x="863" y="34" on="0"/>
        <pt x="979" y="173" on="1"/>
        <pt x="1099" y="317" on="0"/>
        <pt x="1185" y="317" on="1"/>
        <pt x="1219" y="317" on="0"/>
        <pt x="1379" y="153" on="0"/>
        <pt x="1442" y="153" on="1"/>
        <pt x="1642" y="153" on="0"/>
        <pt x="1642" y="225" on="1"/>
        <pt x="1642" y="236" on="0"/>
        <pt x="1614" y="373" on="1"/>
        <pt x="1581" y="533" on="0"/>
        <pt x="1572" y="587" on="1"/>
        <pt x="1560" y="696" on="0"/>
        <pt x="1535" y="916" on="1"/>
        <pt x="1534" y="926" on="0"/>
        <pt x="1488" y="1013" on="0"/>
        <pt x="1488" y="1029" on="1"/>
        <pt x="1488" y="1053" on="0"/>
        <pt x="1525" y="1137" on="1"/>
        <pt x="1561" y="1217" on="0"/>
        <pt x="1573" y="1228" on="1"/>
        <pt x="1608" y="1223" on="0"/>
        <pt x="1620" y="1172" on="1"/>
        <pt x="1627" y="1138" on="0"/>
        <pt x="1633" y="1103" on="1"/>
        <pt x="1638" y="1090" on="0"/>
        <pt x="1673" y="1055" on="1"/>
        <pt x="1703" y="1026" on="0"/>
        <pt x="1703" y="1008" on="1"/>
        <pt x="1703" y="998" on="0"/>
        <pt x="1652" y="876" on="0"/>
        <pt x="1652" y="850" on="1"/>
      </contour>
      <contour>
        <pt x="1467" y="-461" on="1"/>
        <pt x="1467" y="-519" on="0"/>
        <pt x="1381" y="-557" on="1"/>
        <pt x="1325" y="-577" on="0"/>
        <pt x="1270" y="-597" on="1"/>
        <pt x="1123" y="-674" on="0"/>
        <pt x="980" y="-706" on="1"/>
        <pt x="955" y="-682" on="0"/>
        <pt x="955" y="-660" on="1"/>
        <pt x="955" y="-643" on="0"/>
        <pt x="986" y="-593" on="0"/>
        <pt x="999" y="-588" on="1"/>
        <pt x="1234" y="-499" on="0"/>
        <pt x="1420" y="-420" on="1"/>
        <pt x="1454" y="-420" on="1"/>
        <pt x="1467" y="-433" on="0"/>
      </contour>
      <contour>
        <pt x="2184" y="1439" on="1"/>
        <pt x="2137" y="1454" on="1"/>
        <pt x="2104" y="1440" on="0"/>
        <pt x="2104" y="1393" on="1"/>
        <pt x="2145" y="1400" on="0"/>
      </contour>
    </TTGlyph>
    <TTGlyph name="uniFB53" xMin="270" yMin="-477" xMax="1887" yMax="1582">
      <contour>
        <pt x="1683" y="1212" on="1"/>
        <pt x="1683" y="1185" on="0"/>
        <pt x="1659" y="1161" on="1"/>
        <pt x="1627" y="1161" on="1"/>
        <pt x="1615" y="1161" on="0"/>
        <pt x="1516" y="1233" on="0"/>
        <pt x="1504" y="1233" on="1"/>
        <pt x="1493" y="1233" on="0"/>
        <pt x="1436" y="1180" on="1"/>
        <pt x="1368" y="1118" on="0"/>
        <pt x="1342" y="1103" on="1"/>
        <pt x="1305" y="1079" on="0"/>
        <pt x="1155" y="1017" on="0"/>
        <pt x="1135" y="1017" on="1"/>
        <pt x="1103" y="1017" on="0"/>
        <pt x="1089" y="1031" on="1"/>
        <pt x="1096" y="1076" on="0"/>
        <pt x="1192" y="1138" on="1"/>
        <pt x="1382" y="1260" on="0"/>
        <pt x="1396" y="1271" on="1"/>
        <pt x="1396" y="1297" on="1"/>
        <pt x="1314" y="1343" on="0"/>
        <pt x="1314" y="1397" on="1"/>
        <pt x="1314" y="1457" on="0"/>
        <pt x="1438" y="1582" on="0"/>
        <pt x="1491" y="1582" on="1"/>
        <pt x="1499" y="1582" on="0"/>
        <pt x="1506" y="1580" on="1"/>
        <pt x="1566" y="1522" on="0"/>
        <pt x="1562" y="1372" on="1"/>
        <pt x="1586" y="1345" on="0"/>
        <pt x="1629" y="1321" on="1"/>
        <pt x="1649" y="1308" on="0"/>
        <pt x="1683" y="1235" on="0"/>
      </contour>
      <contour>
        <pt x="1017" y="1448" on="1"/>
        <pt x="1017" y="1401" on="0"/>
        <pt x="834" y="1294" on="1"/>
        <pt x="698" y="1217" on="0"/>
        <pt x="563" y="1141" on="1"/>
        <pt x="529" y="1141" on="1"/>
        <pt x="516" y="1154" on="0"/>
        <pt x="516" y="1176" on="1"/>
        <pt x="516" y="1233" on="0"/>
        <pt x="705" y="1346" on="1"/>
        <pt x="882" y="1451" on="0"/>
        <pt x="993" y="1478" on="1"/>
        <pt x="1001" y="1473" on="0"/>
        <pt x="1017" y="1463" on="0"/>
      </contour>
      <contour>
        <pt x="1887" y="234" on="1"/>
        <pt x="1887" y="173" on="0"/>
        <pt x="1847" y="84" on="1"/>
        <pt x="1801" y="-16" on="0"/>
        <pt x="1749" y="-16" on="1"/>
        <pt x="1736" y="-16" on="0"/>
        <pt x="1496" y="55" on="0"/>
        <pt x="1483" y="55" on="1"/>
        <pt x="1454" y="55" on="0"/>
        <pt x="1346" y="32" on="1"/>
        <pt x="1214" y="3" on="0"/>
        <pt x="1137" y="-30" on="1"/>
        <pt x="1126" y="-35" on="0"/>
        <pt x="1116" y="-73" on="1"/>
        <pt x="1103" y="-121" on="0"/>
        <pt x="1095" y="-136" on="1"/>
        <pt x="993" y="-315" on="0"/>
        <pt x="861" y="-402" on="1"/>
        <pt x="826" y="-425" on="0"/>
        <pt x="753" y="-452" on="1"/>
        <pt x="684" y="-477" on="0"/>
        <pt x="664" y="-477" on="1"/>
        <pt x="651" y="-477" on="0"/>
        <pt x="503" y="-457" on="0"/>
        <pt x="490" y="-457" on="1"/>
        <pt x="383" y="-457" on="0"/>
        <pt x="270" y="-390" on="1"/>
        <pt x="310" y="-354" on="0"/>
        <pt x="347" y="-354" on="1"/>
        <pt x="358" y="-354" on="0"/>
        <pt x="421" y="-364" on="0"/>
        <pt x="434" y="-364" on="1"/>
        <pt x="591" y="-364" on="0"/>
        <pt x="739" y="-294" on="1"/>
        <pt x="914" y="-212" on="0"/>
        <pt x="1017" y="-51" on="1"/>
        <pt x="1008" y="-28" on="0"/>
        <pt x="934" y="-22" on="1"/>
        <pt x="854" y="-16" on="0"/>
        <pt x="826" y="16" on="1"/>
        <pt x="792" y="57" on="0"/>
        <pt x="792" y="127" on="1"/>
        <pt x="792" y="202" on="0"/>
        <pt x="845" y="284" on="1"/>
        <pt x="902" y="373" on="0"/>
        <pt x="966" y="373" on="1"/>
        <pt x="1010" y="373" on="0"/>
        <pt x="1132" y="165" on="1"/>
        <pt x="1136" y="157" on="0"/>
        <pt x="1176" y="157" on="1"/>
        <pt x="1218" y="157" on="0"/>
        <pt x="1234" y="170" on="1"/>
        <pt x="1263" y="189" on="0"/>
        <pt x="1306" y="369" on="1"/>
        <pt x="1322" y="394" on="0"/>
        <pt x="1342" y="440" on="1"/>
        <pt x="1338" y="424" on="0"/>
        <pt x="1338" y="529" on="1"/>
        <pt x="1338" y="669" on="0"/>
        <pt x="1422" y="669" on="1"/>
        <pt x="1434" y="669" on="0"/>
        <pt x="1567" y="572" on="1"/>
        <pt x="1739" y="445" on="0"/>
        <pt x="1793" y="409" on="1"/>
        <pt x="1817" y="392" on="0"/>
        <pt x="1848" y="347" on="1"/>
        <pt x="1887" y="287" on="0"/>
      </contour>
      <contour>
        <pt x="1455" y="1417" on="1"/>
        <pt x="1455" y="1445" on="0"/>
        <pt x="1442" y="1458" on="1"/>
        <pt x="1432" y="1448" on="0"/>
        <pt x="1427" y="1431" on="1"/>
        <pt x="1437" y="1421" on="0"/>
      </contour>
      <contour>
        <pt x="1785" y="183" on="1"/>
        <pt x="1739" y="259" on="0"/>
        <pt x="1613" y="310" on="1"/>
        <pt x="1613" y="310" on="0"/>
        <pt x="1601" y="252" on="0"/>
        <pt x="1601" y="221" on="1"/>
        <pt x="1709" y="168" on="0"/>
        <pt x="1745" y="168" on="1"/>
        <pt x="1770" y="168" on="0"/>
      </contour>
      <contour>
        <pt x="1498" y="251" on="1"/>
        <pt x="1498" y="307" on="1"/>
        <pt x="1498" y="327" on="0"/>
        <pt x="1466" y="362" on="0"/>
        <pt x="1447" y="362" on="1"/>
        <pt x="1428" y="362" on="0"/>
        <pt x="1386" y="320" on="0"/>
        <pt x="1386" y="305" on="1"/>
        <pt x="1386" y="263" on="1"/>
        <pt x="1398" y="252" on="0"/>
        <pt x="1440" y="249" on="1"/>
        <pt x="1480" y="246" on="0"/>
      </contour>
    </TTGlyph>
    <TTGlyph name="uniFB54" xMin="347" yMin="-471" xMax="2342" yMax="1157">
      <contour>
        <pt x="2014" y="1075" on="1"/>
        <pt x="2014" y="1046" on="0"/>
        <pt x="1948" y="972" on="0"/>
        <pt x="1927" y="972" on="1"/>
        <pt x="1900" y="972" on="0"/>
        <pt x="1810" y="1032" on="0"/>
        <pt x="1810" y="1054" on="1"/>
        <pt x="1810" y="1082" on="0"/>
        <pt x="1854" y="1121" on="1"/>
        <pt x="1894" y="1157" on="0"/>
        <pt x="1912" y="1157" on="1"/>
        <pt x="1944" y="1157" on="0"/>
        <pt x="1980" y="1127" on="1"/>
        <pt x="2014" y="1099" on="0"/>
      </contour>
      <contour>
        <pt x="2342" y="-220" on="1"/>
        <pt x="2342" y="-260" on="0"/>
        <pt x="2319" y="-273" on="1"/>
        <pt x="2220" y="-329" on="0"/>
        <pt x="2031" y="-403" on="1"/>
        <pt x="1858" y="-471" on="0"/>
        <pt x="1834" y="-471" on="1"/>
        <pt x="1802" y="-471" on="1"/>
        <pt x="1779" y="-447" on="1"/>
        <pt x="1779" y="-389" on="0"/>
        <pt x="1852" y="-355" on="1"/>
        <pt x="1919" y="-328" on="0"/>
        <pt x="1986" y="-301" on="1"/>
        <pt x="2219" y="-183" on="0"/>
        <pt x="2277" y="-185" on="1"/>
        <pt x="2330" y="-185" on="1"/>
        <pt x="2330" y="-189" on="0"/>
        <pt x="2342" y="-205" on="0"/>
      </contour>
      <contour>
        <pt x="2311" y="153" on="1"/>
        <pt x="2311" y="16" on="0"/>
        <pt x="2118" y="-100" on="1"/>
        <pt x="1980" y="-183" on="0"/>
        <pt x="1758" y="-247" on="1"/>
        <pt x="1593" y="-294" on="0"/>
        <pt x="1559" y="-294" on="1"/>
        <pt x="1498" y="-294" on="0"/>
        <pt x="1223" y="-307" on="0"/>
        <pt x="1221" y="-307" on="1"/>
        <pt x="1181" y="-307" on="0"/>
        <pt x="1045" y="-293" on="1"/>
        <pt x="870" y="-275" on="0"/>
        <pt x="789" y="-253" on="1"/>
        <pt x="677" y="-222" on="0"/>
        <pt x="540" y="-119" on="1"/>
        <pt x="384" y="-2" on="0"/>
        <pt x="347" y="111" on="1"/>
        <pt x="349" y="111" on="0"/>
        <pt x="372" y="123" on="0"/>
        <pt x="386" y="123" on="1"/>
        <pt x="398" y="123" on="0"/>
        <pt x="484" y="65" on="1"/>
        <pt x="584" y="-1" on="0"/>
        <pt x="619" y="-18" on="1"/>
        <pt x="651" y="-33" on="0"/>
        <pt x="826" y="-80" on="1"/>
        <pt x="1029" y="-133" on="0"/>
        <pt x="1099" y="-133" on="1"/>
        <pt x="1609" y="-133" on="1"/>
        <pt x="1668" y="-133" on="0"/>
        <pt x="1762" y="-99" on="1"/>
        <pt x="1859" y="-67" on="0"/>
        <pt x="1956" y="-35" on="1"/>
        <pt x="2085" y="15" on="0"/>
        <pt x="2148" y="75" on="1"/>
        <pt x="2060" y="113" on="0"/>
        <pt x="1894" y="134" on="1"/>
        <pt x="1881" y="147" on="0"/>
        <pt x="1881" y="174" on="1"/>
        <pt x="1881" y="240" on="0"/>
        <pt x="1935" y="262" on="1"/>
        <pt x="2134" y="341" on="0"/>
        <pt x="2138" y="403" on="1"/>
        <pt x="2141" y="410" on="0"/>
        <pt x="2132" y="419" on="1"/>
        <pt x="2040" y="348" on="0"/>
        <pt x="2004" y="348" on="1"/>
        <pt x="1954" y="348" on="0"/>
        <pt x="1910" y="411" on="1"/>
        <pt x="1872" y="466" on="0"/>
        <pt x="1872" y="506" on="1"/>
        <pt x="1872" y="520" on="0"/>
        <pt x="1888" y="569" on="1"/>
        <pt x="1886" y="605" on="0"/>
        <pt x="1906" y="664" on="1"/>
        <pt x="2007" y="778" on="0"/>
        <pt x="2055" y="778" on="1"/>
        <pt x="2124" y="778" on="0"/>
        <pt x="2192" y="647" on="1"/>
        <pt x="2250" y="536" on="0"/>
        <pt x="2250" y="481" on="1"/>
        <pt x="2250" y="381" on="0"/>
        <pt x="2178" y="283" on="1"/>
        <pt x="2194" y="272" on="0"/>
        <pt x="2267" y="242" on="1"/>
        <pt x="2311" y="223" on="0"/>
      </contour>
      <contour>
        <pt x="2065" y="532" on="1"/>
        <pt x="2065" y="570" on="1"/>
        <pt x="2032" y="603" on="1"/>
        <pt x="1996" y="603" on="1"/>
        <pt x="1986" y="584" on="0"/>
        <pt x="1986" y="567" on="1"/>
        <pt x="2012" y="532" on="0"/>
        <pt x="2031" y="532" on="1"/>
      </contour>
    </TTGlyph>
    <TTGlyph name="uniFB55" xMin="218" yMin="-528" xMax="2829" yMax="1397">
      <contour>
        <pt x="2829" y="1350" on="1"/>
        <pt x="2829" y="1305" on="0"/>
        <pt x="2727" y="1246" on="1"/>
        <pt x="2669" y="1217" on="0"/>
        <pt x="2612" y="1189" on="1"/>
        <pt x="2527" y="1144" on="0"/>
        <pt x="2362" y="1069" on="1"/>
        <pt x="2337" y="1094" on="0"/>
        <pt x="2337" y="1115" on="1"/>
        <pt x="2337" y="1148" on="0"/>
        <pt x="2371" y="1167" on="1"/>
        <pt x="2765" y="1386" on="0"/>
        <pt x="2774" y="1386" on="1"/>
        <pt x="2806" y="1386" on="1"/>
        <pt x="2829" y="1362" on="0"/>
      </contour>
      <contour>
        <pt x="2378" y="1299" on="1"/>
        <pt x="2378" y="1251" on="0"/>
        <pt x="2255" y="1186" on="1"/>
        <pt x="2146" y="1130" on="0"/>
        <pt x="2116" y="1130" on="1"/>
        <pt x="2064" y="1130" on="1"/>
        <pt x="2051" y="1143" on="1"/>
        <pt x="2051" y="1180" on="1"/>
        <pt x="2094" y="1205" on="0"/>
        <pt x="2174" y="1269" on="1"/>
        <pt x="2170" y="1274" on="0"/>
        <pt x="2133" y="1274" on="1"/>
        <pt x="2134" y="1274" on="0"/>
        <pt x="2013" y="1244" on="1"/>
        <pt x="2000" y="1244" on="0"/>
        <pt x="2000" y="1268" on="1"/>
        <pt x="2000" y="1321" on="0"/>
        <pt x="2086" y="1362" on="1"/>
        <pt x="2154" y="1397" on="0"/>
        <pt x="2189" y="1397" on="1"/>
        <pt x="2238" y="1397" on="0"/>
        <pt x="2303" y="1370" on="1"/>
        <pt x="2378" y="1339" on="0"/>
      </contour>
      <contour>
        <pt x="2778" y="-257" on="1"/>
        <pt x="2778" y="-289" on="0"/>
        <pt x="2735" y="-319" on="1"/>
        <pt x="2698" y="-344" on="0"/>
        <pt x="2676" y="-344" on="1"/>
        <pt x="2639" y="-344" on="0"/>
        <pt x="2608" y="-311" on="1"/>
        <pt x="2583" y="-282" on="0"/>
        <pt x="2583" y="-262" on="1"/>
        <pt x="2583" y="-231" on="0"/>
        <pt x="2642" y="-159" on="0"/>
        <pt x="2665" y="-159" on="1"/>
        <pt x="2688" y="-159" on="0"/>
        <pt x="2778" y="-240" on="0"/>
      </contour>
      <contour>
        <pt x="1938" y="664" on="1"/>
        <pt x="1938" y="637" on="0"/>
        <pt x="1871" y="567" on="0"/>
        <pt x="1847" y="567" on="1"/>
        <pt x="1820" y="567" on="0"/>
        <pt x="1759" y="608" on="1"/>
        <pt x="1667" y="546" on="0"/>
        <pt x="1657" y="546" on="1"/>
        <pt x="1623" y="546" on="0"/>
        <pt x="1593" y="591" on="1"/>
        <pt x="1570" y="625" on="0"/>
        <pt x="1570" y="639" on="1"/>
        <pt x="1570" y="664" on="0"/>
        <pt x="1636" y="731" on="0"/>
        <pt x="1657" y="731" on="1"/>
        <pt x="1668" y="731" on="0"/>
        <pt x="1731" y="700" on="0"/>
        <pt x="1744" y="700" on="1"/>
        <pt x="1756" y="700" on="0"/>
        <pt x="1829" y="751" on="0"/>
        <pt x="1841" y="751" on="1"/>
        <pt x="1871" y="751" on="0"/>
        <pt x="1938" y="687" on="0"/>
      </contour>
      <contour>
        <pt x="1253" y="1356" on="1"/>
        <pt x="1253" y="1308" on="0"/>
        <pt x="1036" y="1201" on="1"/>
        <pt x="760" y="1063" on="0"/>
        <pt x="727" y="1039" on="1"/>
        <pt x="682" y="1039" on="1"/>
        <pt x="669" y="1052" on="0"/>
        <pt x="669" y="1074" on="1"/>
        <pt x="669" y="1113" on="0"/>
        <pt x="749" y="1160" on="1"/>
        <pt x="802" y="1187" on="0"/>
        <pt x="855" y="1214" on="1"/>
        <pt x="969" y="1280" on="0"/>
        <pt x="1195" y="1395" on="1"/>
        <pt x="1241" y="1395" on="1"/>
        <pt x="1241" y="1392" on="0"/>
        <pt x="1253" y="1370" on="0"/>
      </contour>
      <contour>
        <pt x="2471" y="-354" on="1"/>
        <pt x="2471" y="-387" on="0"/>
        <pt x="2429" y="-419" on="1"/>
        <pt x="2393" y="-446" on="0"/>
        <pt x="2373" y="-446" on="1"/>
        <pt x="2363" y="-446" on="0"/>
        <pt x="2295" y="-416" on="0"/>
        <pt x="2282" y="-416" on="1"/>
        <pt x="2270" y="-416" on="0"/>
        <pt x="2202" y="-466" on="0"/>
        <pt x="2189" y="-466" on="1"/>
        <pt x="2161" y="-466" on="0"/>
        <pt x="2092" y="-400" on="0"/>
        <pt x="2092" y="-375" on="1"/>
        <pt x="2092" y="-344" on="0"/>
        <pt x="2128" y="-311" on="1"/>
        <pt x="2160" y="-282" on="0"/>
        <pt x="2179" y="-282" on="1"/>
        <pt x="2200" y="-282" on="0"/>
        <pt x="2260" y="-323" on="0"/>
        <pt x="2271" y="-323" on="1"/>
        <pt x="2284" y="-323" on="0"/>
        <pt x="2350" y="-262" on="0"/>
        <pt x="2363" y="-262" on="1"/>
        <pt x="2386" y="-262" on="0"/>
        <pt x="2471" y="-330" on="0"/>
      </contour>
      <contour>
        <pt x="2726" y="173" on="1"/>
        <pt x="2726" y="153" on="0"/>
        <pt x="2700" y="88" on="1"/>
        <pt x="2670" y="17" on="0"/>
        <pt x="2644" y="-12" on="1"/>
        <pt x="2622" y="-36" on="0"/>
        <pt x="2532" y="-36" on="1"/>
        <pt x="2400" y="-36" on="0"/>
        <pt x="2321" y="76" on="1"/>
        <pt x="2299" y="53" on="0"/>
        <pt x="2253" y="17" on="1"/>
        <pt x="2156" y="-36" on="0"/>
        <pt x="2102" y="-36" on="1"/>
        <pt x="2026" y="-36" on="0"/>
        <pt x="1924" y="66" on="0"/>
        <pt x="1902" y="66" on="1"/>
        <pt x="1897" y="66" on="0"/>
        <pt x="1845" y="29" on="1"/>
        <pt x="1788" y="-12" on="0"/>
        <pt x="1751" y="-23" on="1"/>
        <pt x="1611" y="-67" on="0"/>
        <pt x="1497" y="-67" on="1"/>
        <pt x="1502" y="-67" on="0"/>
        <pt x="1415" y="-66" on="1"/>
        <pt x="1339" y="-64" on="0"/>
        <pt x="1292" y="-65" on="1"/>
        <pt x="1324" y="-225" on="0"/>
        <pt x="1324" y="-226" on="1"/>
        <pt x="1324" y="-293" on="0"/>
        <pt x="1284" y="-370" on="1"/>
        <pt x="1233" y="-466" on="0"/>
        <pt x="1155" y="-466" on="1"/>
        <pt x="1109" y="-466" on="0"/>
        <pt x="1040" y="-414" on="1"/>
        <pt x="979" y="-367" on="0"/>
        <pt x="949" y="-321" on="1"/>
        <pt x="935" y="-276" on="0"/>
        <pt x="891" y="-177" on="1"/>
        <pt x="887" y="-171" on="0"/>
        <pt x="844" y="-149" on="1"/>
        <pt x="810" y="-133" on="0"/>
        <pt x="814" y="-96" on="1"/>
        <pt x="782" y="-90" on="0"/>
        <pt x="726" y="-93" on="1"/>
        <pt x="647" y="-98" on="0"/>
        <pt x="659" y="-98" on="1"/>
        <pt x="549" y="-98" on="0"/>
        <pt x="458" y="-75" on="1"/>
        <pt x="419" y="-65" on="0"/>
        <pt x="383" y="-32" on="1"/>
        <pt x="259" y="83" on="0"/>
        <pt x="259" y="592" on="1"/>
        <pt x="218" y="940" on="1"/>
        <pt x="218" y="986" on="0"/>
        <pt x="272" y="1058" on="1"/>
        <pt x="302" y="1058" on="0"/>
        <pt x="316" y="1035" on="1"/>
        <pt x="364" y="919" on="0"/>
        <pt x="384" y="398" on="1"/>
        <pt x="392" y="228" on="0"/>
        <pt x="435" y="155" on="1"/>
        <pt x="458" y="117" on="0"/>
        <pt x="533" y="89" on="1"/>
        <pt x="598" y="66" on="0"/>
        <pt x="648" y="66" on="1"/>
        <pt x="818" y="66" on="0"/>
        <pt x="757" y="62" on="1"/>
        <pt x="827" y="66" on="0"/>
        <pt x="855" y="97" on="1"/>
        <pt x="884" y="174" on="0"/>
        <pt x="949" y="319" on="1"/>
        <pt x="964" y="349" on="0"/>
        <pt x="1031" y="436" on="1"/>
        <pt x="1117" y="546" on="0"/>
        <pt x="1150" y="546" on="1"/>
        <pt x="1203" y="546" on="0"/>
        <pt x="1231" y="467" on="1"/>
        <pt x="1253" y="407" on="0"/>
        <pt x="1253" y="342" on="1"/>
        <pt x="1253" y="270" on="0"/>
        <pt x="1231" y="218" on="1"/>
        <pt x="1200" y="151" on="0"/>
        <pt x="1170" y="84" on="1"/>
        <pt x="1226" y="77" on="0"/>
        <pt x="1339" y="86" on="1"/>
        <pt x="1469" y="96" on="0"/>
        <pt x="1457" y="96" on="1"/>
        <pt x="1478" y="96" on="0"/>
        <pt x="1513" y="75" on="1"/>
        <pt x="1533" y="75" on="0"/>
        <pt x="1637" y="100" on="1"/>
        <pt x="1752" y="126" on="0"/>
        <pt x="1819" y="150" on="1"/>
        <pt x="1835" y="156" on="0"/>
        <pt x="1879" y="224" on="1"/>
        <pt x="1919" y="289" on="0"/>
        <pt x="1965" y="301" on="1"/>
        <pt x="1999" y="287" on="0"/>
        <pt x="1999" y="259" on="1"/>
        <pt x="1999" y="248" on="0"/>
        <pt x="1987" y="209" on="0"/>
        <pt x="1987" y="201" on="1"/>
        <pt x="1987" y="193" on="0"/>
        <pt x="1992" y="186" on="1"/>
        <pt x="2036" y="137" on="0"/>
        <pt x="2128" y="137" on="1"/>
        <pt x="2155" y="137" on="0"/>
        <pt x="2277" y="186" on="1"/>
        <pt x="2277" y="212" on="1"/>
        <pt x="2277" y="225" on="0"/>
        <pt x="2236" y="456" on="0"/>
        <pt x="2236" y="469" on="1"/>
        <pt x="2236" y="551" on="0"/>
        <pt x="2258" y="597" on="1"/>
        <pt x="2285" y="597" on="0"/>
        <pt x="2292" y="585" on="1"/>
        <pt x="2317" y="537" on="0"/>
        <pt x="2347" y="400" on="1"/>
        <pt x="2375" y="270" on="0"/>
        <pt x="2406" y="219" on="1"/>
        <pt x="2454" y="137" on="0"/>
        <pt x="2548" y="137" on="1"/>
        <pt x="2594" y="137" on="0"/>
        <pt x="2596" y="138" on="1"/>
        <pt x="2614" y="143" on="0"/>
        <pt x="2614" y="184" on="1"/>
        <pt x="2614" y="196" on="0"/>
        <pt x="2563" y="314" on="0"/>
        <pt x="2563" y="326" on="1"/>
        <pt x="2563" y="358" on="0"/>
        <pt x="2608" y="424" on="1"/>
        <pt x="2666" y="399" on="0"/>
        <pt x="2699" y="315" on="1"/>
        <pt x="2726" y="247" on="0"/>
      </contour>
      <contour>
        <pt x="1938" y="-303" on="1"/>
        <pt x="1938" y="-321" on="0"/>
        <pt x="1902" y="-374" on="0"/>
        <pt x="1884" y="-381" on="1"/>
        <pt x="1755" y="-430" on="0"/>
        <pt x="1503" y="-528" on="1"/>
        <pt x="1489" y="-516" on="0"/>
        <pt x="1479" y="-516" on="1"/>
        <pt x="1479" y="-449" on="1"/>
        <pt x="1528" y="-404" on="0"/>
        <pt x="1622" y="-373" on="1"/>
        <pt x="1769" y="-325" on="0"/>
        <pt x="1778" y="-321" on="1"/>
        <pt x="1783" y="-319" on="0"/>
        <pt x="1826" y="-292" on="1"/>
        <pt x="1860" y="-272" on="0"/>
        <pt x="1873" y="-272" on="1"/>
        <pt x="1925" y="-272" on="1"/>
        <pt x="1938" y="-285" on="0"/>
      </contour>
      <contour>
        <pt x="1160" y="280" on="1"/>
        <pt x="1160" y="285" on="0"/>
        <pt x="1127" y="351" on="1"/>
        <pt x="1091" y="351" on="1"/>
        <pt x="1018" y="242" on="0"/>
        <pt x="987" y="149" on="1"/>
        <pt x="1007" y="152" on="0"/>
        <pt x="1077" y="195" on="1"/>
        <pt x="1160" y="247" on="0"/>
      </contour>
      <contour>
        <pt x="1200" y="-260" on="1"/>
        <pt x="1200" y="-224" on="1"/>
        <pt x="1101" y="-149" on="0"/>
        <pt x="1062" y="-149" on="1"/>
        <pt x="1009" y="-149" on="1"/>
        <pt x="1005" y="-182" on="0"/>
        <pt x="1099" y="-282" on="0"/>
        <pt x="1140" y="-282" on="1"/>
        <pt x="1155" y="-282" on="0"/>
      </contour>
    </TTGlyph>
    <TTGlyph name="uniFB56" xMin="292" yMin="-389" xMax="1869" yMax="1464">
      <contour>
        <pt x="1685" y="1434" on="1"/>
        <pt x="1685" y="1381" on="0"/>
        <pt x="1550" y="1303" on="1"/>
        <pt x="1472" y="1265" on="0"/>
        <pt x="1395" y="1226" on="1"/>
        <pt x="1306" y="1176" on="0"/>
        <pt x="1126" y="1085" on="1"/>
        <pt x="1111" y="1099" on="0"/>
        <pt x="1111" y="1126" on="1"/>
        <pt x="1111" y="1188" on="0"/>
        <pt x="1284" y="1280" on="1"/>
        <pt x="1404" y="1337" on="0"/>
        <pt x="1523" y="1394" on="1"/>
        <pt x="1562" y="1420" on="0"/>
        <pt x="1637" y="1464" on="1"/>
        <pt x="1672" y="1464" on="1"/>
        <pt x="1685" y="1450" on="0"/>
      </contour>
      <contour>
        <pt x="1869" y="338" on="1"/>
        <pt x="1869" y="234" on="0"/>
        <pt x="1654" y="139" on="1"/>
        <pt x="1540" y="88" on="0"/>
        <pt x="1435" y="64" on="1"/>
        <pt x="1379" y="57" on="0"/>
        <pt x="1261" y="34" on="1"/>
        <pt x="1261" y="34" on="0"/>
        <pt x="1198" y="32" on="1"/>
        <pt x="1160" y="32" on="0"/>
        <pt x="1144" y="2" on="1"/>
        <pt x="1137" y="-40" on="0"/>
        <pt x="1117" y="-119" on="1"/>
        <pt x="1069" y="-249" on="0"/>
        <pt x="900" y="-326" on="1"/>
        <pt x="761" y="-389" on="0"/>
        <pt x="625" y="-389" on="1"/>
        <pt x="494" y="-389" on="0"/>
        <pt x="398" y="-314" on="1"/>
        <pt x="292" y="-232" on="0"/>
        <pt x="292" y="-102" on="1"/>
        <pt x="292" y="-47" on="0"/>
        <pt x="357" y="120" on="1"/>
        <pt x="376" y="169" on="0"/>
        <pt x="429" y="204" on="1"/>
        <pt x="476" y="204" on="0"/>
        <pt x="476" y="169" on="1"/>
        <pt x="476" y="153" on="0"/>
        <pt x="471" y="147" on="1"/>
        <pt x="462" y="137" on="0"/>
        <pt x="462" y="136" on="1"/>
        <pt x="415" y="47" on="0"/>
        <pt x="415" y="-20" on="1"/>
        <pt x="415" y="-128" on="0"/>
        <pt x="518" y="-184" on="1"/>
        <pt x="593" y="-225" on="0"/>
        <pt x="681" y="-225" on="1"/>
        <pt x="706" y="-225" on="0"/>
        <pt x="829" y="-190" on="1"/>
        <pt x="945" y="-156" on="0"/>
        <pt x="949" y="-152" on="1"/>
        <pt x="978" y="-129" on="0"/>
        <pt x="1041" y="-75" on="1"/>
        <pt x="1043" y="-67" on="0"/>
        <pt x="1043" y="-54" on="1"/>
        <pt x="1043" y="2" on="0"/>
        <pt x="995" y="116" on="1"/>
        <pt x="990" y="129" on="0"/>
        <pt x="951" y="183" on="1"/>
        <pt x="917" y="229" on="0"/>
        <pt x="917" y="246" on="1"/>
        <pt x="917" y="282" on="0"/>
        <pt x="960" y="347" on="1"/>
        <pt x="996" y="347" on="1"/>
        <pt x="1062" y="282" on="0"/>
        <pt x="1092" y="233" on="1"/>
        <pt x="1111" y="203" on="0"/>
        <pt x="1148" y="197" on="1"/>
        <pt x="1223" y="184" on="0"/>
        <pt x="1234" y="184" on="1"/>
        <pt x="1247" y="184" on="0"/>
        <pt x="1267" y="193" on="0"/>
        <pt x="1277" y="193" on="1"/>
        <pt x="1277" y="196" on="0"/>
        <pt x="1286" y="200" on="0"/>
        <pt x="1286" y="215" on="1"/>
        <pt x="1286" y="225" on="0"/>
        <pt x="1245" y="294" on="0"/>
        <pt x="1245" y="307" on="1"/>
        <pt x="1245" y="326" on="0"/>
        <pt x="1277" y="411" on="1"/>
        <pt x="1311" y="504" on="0"/>
        <pt x="1340" y="551" on="1"/>
        <pt x="1364" y="591" on="0"/>
        <pt x="1510" y="665" on="0"/>
        <pt x="1562" y="665" on="1"/>
        <pt x="1605" y="665" on="0"/>
        <pt x="1756" y="544" on="0"/>
        <pt x="1756" y="506" on="1"/>
        <pt x="1756" y="492" on="0"/>
        <pt x="1744" y="475" on="0"/>
        <pt x="1744" y="472" on="1"/>
        <pt x="1701" y="472" on="1"/>
        <pt x="1688" y="471" on="0"/>
        <pt x="1590" y="522" on="0"/>
        <pt x="1577" y="522" on="1"/>
        <pt x="1546" y="522" on="0"/>
        <pt x="1477" y="483" on="1"/>
        <pt x="1398" y="439" on="0"/>
        <pt x="1398" y="399" on="1"/>
        <pt x="1398" y="348" on="0"/>
        <pt x="1455" y="295" on="1"/>
        <pt x="1509" y="246" on="0"/>
        <pt x="1541" y="246" on="1"/>
        <pt x="1591" y="246" on="0"/>
        <pt x="1739" y="319" on="1"/>
        <pt x="1765" y="338" on="0"/>
        <pt x="1821" y="378" on="1"/>
        <pt x="1856" y="378" on="1"/>
        <pt x="1869" y="365" on="0"/>
      </contour>
      <contour>
        <pt x="762" y="541" on="1"/>
        <pt x="762" y="498" on="0"/>
        <pt x="738" y="456" on="1"/>
        <pt x="711" y="410" on="0"/>
        <pt x="676" y="410" on="1"/>
        <pt x="639" y="410" on="0"/>
        <pt x="569" y="473" on="1"/>
        <pt x="569" y="501" on="0"/>
        <pt x="636" y="614" on="0"/>
        <pt x="651" y="614" on="1"/>
        <pt x="666" y="614" on="0"/>
        <pt x="705" y="585" on="1"/>
        <pt x="761" y="541" on="0"/>
      </contour>
    </TTGlyph>
    <TTGlyph name="uniFB57" xMin="181" yMin="-487" xMax="3622" yMax="1743">
      <contour>
        <pt x="3622" y="1709" on="1"/>
        <pt x="3622" y="1655" on="0"/>
        <pt x="3577" y="1635" on="1"/>
        <pt x="3536" y="1616" on="0"/>
        <pt x="3337" y="1520" on="1"/>
        <pt x="3189" y="1448" on="0"/>
        <pt x="3174" y="1448" on="1"/>
        <pt x="3121" y="1448" on="1"/>
        <pt x="3121" y="1452" on="0"/>
        <pt x="3110" y="1469" on="0"/>
        <pt x="3110" y="1484" on="1"/>
        <pt x="3110" y="1499" on="0"/>
        <pt x="3148" y="1548" on="0"/>
        <pt x="3164" y="1556" on="1"/>
        <pt x="3273" y="1609" on="0"/>
        <pt x="3609" y="1743" on="1"/>
        <pt x="3609" y="1741" on="0"/>
        <pt x="3622" y="1724" on="0"/>
      </contour>
      <contour>
        <pt x="3569" y="1298" on="1"/>
        <pt x="3570" y="1280" on="0"/>
        <pt x="3519" y="1208" on="0"/>
        <pt x="3474" y="1182" on="0"/>
        <pt x="3382" y="1158" on="1"/>
        <pt x="3372" y="1154" on="0"/>
        <pt x="3322" y="1135" on="1"/>
        <pt x="3282" y="1120" on="0"/>
        <pt x="3268" y="1120" on="1"/>
        <pt x="3240" y="1120" on="0"/>
        <pt x="3219" y="1156" on="1"/>
        <pt x="3201" y="1185" on="0"/>
        <pt x="3201" y="1207" on="1"/>
        <pt x="3201" y="1259" on="0"/>
        <pt x="3257" y="1314" on="1"/>
        <pt x="3264" y="1311" on="0"/>
        <pt x="3301" y="1253" on="1"/>
        <pt x="3328" y="1253" on="1"/>
        <pt x="3349" y="1289" on="0"/>
        <pt x="3400" y="1366" on="1"/>
        <pt x="3441" y="1346" on="0"/>
        <pt x="3455" y="1303" on="1"/>
        <pt x="3485" y="1303" on="0"/>
        <pt x="3492" y="1332" on="1"/>
        <pt x="3504" y="1377" on="0"/>
        <pt x="3532" y="1407" on="1"/>
        <pt x="3537" y="1407" on="0"/>
        <pt x="3563" y="1395" on="0"/>
        <pt x="3569" y="1395" on="1"/>
      </contour>
      <contour>
        <pt x="3488" y="885" on="1"/>
        <pt x="3488" y="854" on="0"/>
        <pt x="3426" y="803" on="0"/>
        <pt x="3396" y="803" on="1"/>
        <pt x="3364" y="803" on="0"/>
        <pt x="3294" y="854" on="0"/>
        <pt x="3294" y="879" on="1"/>
        <pt x="3294" y="910" on="0"/>
        <pt x="3333" y="945" on="1"/>
        <pt x="3370" y="976" on="0"/>
        <pt x="3391" y="976" on="1"/>
        <pt x="3423" y="976" on="0"/>
        <pt x="3457" y="943" on="1"/>
        <pt x="3488" y="910" on="0"/>
      </contour>
      <contour>
        <pt x="2966" y="1352" on="1"/>
        <pt x="2943" y="1280" on="0"/>
        <pt x="2902" y="1247" on="1"/>
        <pt x="2866" y="1217" on="0"/>
        <pt x="2780" y="1184" on="1"/>
        <pt x="2693" y="1151" on="0"/>
        <pt x="2648" y="1151" on="1"/>
        <pt x="2621" y="1151" on="0"/>
        <pt x="2598" y="1175" on="1"/>
        <pt x="2601" y="1208" on="0"/>
        <pt x="2657" y="1234" on="1"/>
        <pt x="2734" y="1269" on="0"/>
        <pt x="2751" y="1285" on="1"/>
        <pt x="2746" y="1294" on="0"/>
        <pt x="2710" y="1294" on="1"/>
        <pt x="2697" y="1294" on="0"/>
        <pt x="2657" y="1283" on="1"/>
        <pt x="2609" y="1270" on="0"/>
        <pt x="2579" y="1265" on="1"/>
        <pt x="2583" y="1326" on="0"/>
        <pt x="2655" y="1380" on="1"/>
        <pt x="2718" y="1427" on="0"/>
        <pt x="2761" y="1427" on="1"/>
        <pt x="2793" y="1427" on="0"/>
        <pt x="2873" y="1398" on="1"/>
        <pt x="2951" y="1369" on="0"/>
      </contour>
      <contour>
        <pt x="3069" y="854" on="1"/>
        <pt x="3069" y="816" on="0"/>
        <pt x="3025" y="791" on="1"/>
        <pt x="2992" y="772" on="0"/>
        <pt x="2966" y="772" on="1"/>
        <pt x="2929" y="772" on="0"/>
        <pt x="2864" y="817" on="0"/>
        <pt x="2864" y="849" on="1"/>
        <pt x="2864" y="875" on="0"/>
        <pt x="2932" y="946" on="0"/>
        <pt x="2961" y="946" on="1"/>
        <pt x="2984" y="946" on="0"/>
        <pt x="3069" y="878" on="0"/>
      </contour>
      <contour>
        <pt x="3581" y="245" on="1"/>
        <pt x="3581" y="87" on="0"/>
        <pt x="3506" y="30" on="1"/>
        <pt x="3446" y="-16" on="0"/>
        <pt x="3294" y="-16" on="1"/>
        <pt x="3217" y="-16" on="0"/>
        <pt x="2968" y="55" on="0"/>
        <pt x="2940" y="55" on="1"/>
        <pt x="2928" y="55" on="0"/>
        <pt x="2610" y="-16" on="0"/>
        <pt x="2598" y="-16" on="1"/>
        <pt x="2517" y="-16" on="0"/>
        <pt x="2408" y="66" on="1"/>
        <pt x="2359" y="11" on="0"/>
        <pt x="2277" y="-23" on="1"/>
        <pt x="2270" y="-27" on="0"/>
        <pt x="2204" y="-27" on="1"/>
        <pt x="2190" y="-27" on="0"/>
        <pt x="2119" y="-16" on="0"/>
        <pt x="2106" y="-16" on="1"/>
        <pt x="2093" y="-16" on="0"/>
        <pt x="1950" y="-57" on="0"/>
        <pt x="1937" y="-57" on="1"/>
        <pt x="1927" y="-57" on="0"/>
        <pt x="1807" y="-16" on="0"/>
        <pt x="1794" y="-16" on="1"/>
        <pt x="1783" y="-16" on="0"/>
        <pt x="1728" y="-41" on="1"/>
        <pt x="1669" y="-69" on="0"/>
        <pt x="1642" y="-75" on="1"/>
        <pt x="1582" y="-88" on="0"/>
        <pt x="1523" y="-88" on="1"/>
        <pt x="1510" y="-88" on="0"/>
        <pt x="1428" y="-67" on="0"/>
        <pt x="1415" y="-67" on="1"/>
        <pt x="1336" y="-67" on="0"/>
        <pt x="1287" y="-17" on="1"/>
        <pt x="1257" y="12" on="0"/>
        <pt x="1230" y="76" on="1"/>
        <pt x="1207" y="127" on="0"/>
        <pt x="1195" y="127" on="1"/>
        <pt x="1182" y="127" on="0"/>
        <pt x="1150" y="89" on="1"/>
        <pt x="1109" y="42" on="0"/>
        <pt x="1090" y="28" on="1"/>
        <pt x="1044" y="-6" on="0"/>
        <pt x="964" y="-6" on="1"/>
        <pt x="908" y="-6" on="0"/>
        <pt x="841" y="15" on="1"/>
        <pt x="754" y="43" on="0"/>
        <pt x="754" y="86" on="1"/>
        <pt x="754" y="90" on="0"/>
        <pt x="781" y="134" on="1"/>
        <pt x="816" y="263" on="0"/>
        <pt x="1023" y="378" on="1"/>
        <pt x="1057" y="394" on="0"/>
        <pt x="1089" y="410" on="1"/>
        <pt x="1127" y="432" on="0"/>
        <pt x="1135" y="465" on="1"/>
        <pt x="1138" y="482" on="0"/>
        <pt x="1137" y="568" on="1"/>
        <pt x="1137" y="626" on="0"/>
        <pt x="1166" y="668" on="1"/>
        <pt x="1213" y="668" on="1"/>
        <pt x="1232" y="612" on="0"/>
        <pt x="1254" y="442" on="1"/>
        <pt x="1275" y="291" on="0"/>
        <pt x="1307" y="222" on="1"/>
        <pt x="1357" y="118" on="0"/>
        <pt x="1467" y="92" on="1"/>
        <pt x="1467" y="92" on="0"/>
        <pt x="1484" y="83" on="1"/>
        <pt x="1497" y="75" on="0"/>
        <pt x="1512" y="75" on="1"/>
        <pt x="1615" y="75" on="0"/>
        <pt x="1710" y="98" on="1"/>
        <pt x="1738" y="105" on="0"/>
        <pt x="1769" y="155" on="1"/>
        <pt x="1812" y="229" on="0"/>
        <pt x="1821" y="239" on="1"/>
        <pt x="1869" y="239" on="1"/>
        <pt x="1888" y="224" on="0"/>
        <pt x="1888" y="201" on="1"/>
        <pt x="1888" y="191" on="0"/>
        <pt x="1878" y="155" on="0"/>
        <pt x="1878" y="148" on="1"/>
        <pt x="1878" y="140" on="0"/>
        <pt x="1882" y="135" on="1"/>
        <pt x="1904" y="106" on="0"/>
        <pt x="1968" y="106" on="1"/>
        <pt x="2038" y="106" on="0"/>
        <pt x="2084" y="143" on="1"/>
        <pt x="2120" y="170" on="0"/>
        <pt x="2190" y="270" on="1"/>
        <pt x="2227" y="270" on="1"/>
        <pt x="2245" y="218" on="0"/>
        <pt x="2229" y="143" on="1"/>
        <pt x="2236" y="137" on="0"/>
        <pt x="2265" y="137" on="1"/>
        <pt x="2329" y="137" on="0"/>
        <pt x="2374" y="199" on="1"/>
        <pt x="2406" y="244" on="0"/>
        <pt x="2437" y="290" on="1"/>
        <pt x="2484" y="290" on="1"/>
        <pt x="2485" y="209" on="0"/>
        <pt x="2526" y="180" on="1"/>
        <pt x="2558" y="157" on="0"/>
        <pt x="2639" y="157" on="1"/>
        <pt x="2748" y="157" on="0"/>
        <pt x="2826" y="190" on="1"/>
        <pt x="2847" y="200" on="0"/>
        <pt x="2847" y="234" on="1"/>
        <pt x="2847" y="291" on="0"/>
        <pt x="2846" y="287" on="1"/>
        <pt x="2858" y="344" on="0"/>
        <pt x="2877" y="400" on="1"/>
        <pt x="2898" y="464" on="0"/>
        <pt x="3029" y="587" on="0"/>
        <pt x="3074" y="587" on="1"/>
        <pt x="3201" y="587" on="0"/>
        <pt x="3201" y="398" on="1"/>
        <pt x="3201" y="315" on="0"/>
        <pt x="3150" y="195" on="1"/>
        <pt x="3237" y="157" on="0"/>
        <pt x="3345" y="157" on="1"/>
        <pt x="3459" y="157" on="0"/>
        <pt x="3488" y="193" on="1"/>
        <pt x="3477" y="231" on="0"/>
        <pt x="3435" y="319" on="1"/>
        <pt x="3396" y="396" on="0"/>
        <pt x="3396" y="409" on="1"/>
        <pt x="3396" y="424" on="0"/>
        <pt x="3443" y="519" on="0"/>
        <pt x="3453" y="526" on="1"/>
        <pt x="3581" y="419" on="0"/>
      </contour>
      <contour>
        <pt x="2362" y="-236" on="1"/>
        <pt x="2362" y="-283" on="0"/>
        <pt x="2308" y="-310" on="1"/>
        <pt x="2206" y="-361" on="0"/>
        <pt x="1894" y="-487" on="0"/>
        <pt x="1874" y="-487" on="1"/>
        <pt x="1842" y="-487" on="1"/>
        <pt x="1835" y="-482" on="0"/>
        <pt x="1819" y="-472" on="0"/>
        <pt x="1819" y="-457" on="1"/>
        <pt x="1819" y="-422" on="0"/>
        <pt x="1865" y="-369" on="1"/>
        <pt x="2296" y="-200" on="0"/>
        <pt x="2316" y="-200" on="1"/>
        <pt x="2362" y="-200" on="0"/>
      </contour>
      <contour>
        <pt x="1357" y="-249" on="1"/>
        <pt x="1324" y="-289" on="0"/>
        <pt x="1121" y="-386" on="1"/>
        <pt x="930" y="-477" on="0"/>
        <pt x="908" y="-477" on="1"/>
        <pt x="891" y="-477" on="0"/>
        <pt x="867" y="-453" on="1"/>
        <pt x="867" y="-418" on="1"/>
        <pt x="899" y="-385" on="0"/>
        <pt x="963" y="-338" on="1"/>
        <pt x="1035" y="-303" on="0"/>
        <pt x="1334" y="-180" on="1"/>
        <pt x="1348" y="-191" on="0"/>
        <pt x="1357" y="-191" on="1"/>
      </contour>
      <contour>
        <pt x="713" y="-22" on="1"/>
        <pt x="618" y="-67" on="0"/>
        <pt x="576" y="-75" on="1"/>
        <pt x="498" y="-88" on="0"/>
        <pt x="350" y="-88" on="1"/>
        <pt x="311" y="-88" on="0"/>
        <pt x="256" y="-71" on="1"/>
        <pt x="181" y="-47" on="0"/>
        <pt x="181" y="-11" on="1"/>
        <pt x="181" y="35" on="0"/>
        <pt x="257" y="111" on="1"/>
        <pt x="283" y="124" on="0"/>
        <pt x="327" y="149" on="1"/>
        <pt x="364" y="177" on="0"/>
        <pt x="400" y="205" on="1"/>
        <pt x="461" y="250" on="0"/>
        <pt x="483" y="250" on="1"/>
        <pt x="550" y="250" on="0"/>
        <pt x="550" y="178" on="1"/>
        <pt x="550" y="149" on="0"/>
        <pt x="526" y="106" on="1"/>
        <pt x="487" y="122" on="0"/>
        <pt x="463" y="147" on="1"/>
        <pt x="409" y="109" on="0"/>
        <pt x="304" y="29" on="1"/>
        <pt x="335" y="4" on="0"/>
        <pt x="474" y="4" on="1"/>
        <pt x="482" y="4" on="0"/>
        <pt x="570" y="3" on="1"/>
        <pt x="659" y="3" on="0"/>
        <pt x="701" y="3" on="1"/>
        <pt x="704" y="-7" on="0"/>
      </contour>
      <contour>
        <pt x="3110" y="347" on="1"/>
        <pt x="3110" y="376" on="0"/>
        <pt x="3057" y="424" on="0"/>
        <pt x="3033" y="424" on="1"/>
        <pt x="3014" y="424" on="0"/>
        <pt x="2946" y="342" on="0"/>
        <pt x="2946" y="321" on="1"/>
        <pt x="2946" y="290" on="0"/>
        <pt x="2991" y="250" on="1"/>
        <pt x="3110" y="310" on="0"/>
      </contour>
      <contour>
        <pt x="1175" y="265" on="1"/>
        <pt x="1175" y="279" on="0"/>
        <pt x="1163" y="297" on="0"/>
        <pt x="1163" y="300" on="1"/>
        <pt x="1127" y="300" on="1"/>
        <pt x="1049" y="261" on="0"/>
        <pt x="949" y="182" on="1"/>
        <pt x="1023" y="157" on="0"/>
        <pt x="1052" y="157" on="1"/>
        <pt x="1077" y="157" on="0"/>
        <pt x="1121" y="186" on="1"/>
        <pt x="1175" y="221" on="0"/>
      </contour>
    </TTGlyph>
    <TTGlyph name="uniFB58" xMin="284" yMin="-475" xMax="5571" yMax="1818">
      <contour>
        <pt x="5469" y="1444" on="1"/>
        <pt x="5469" y="1382" on="0"/>
        <pt x="4963" y="1112" on="1"/>
        <pt x="4917" y="1112" on="1"/>
        <pt x="4917" y="1117" on="0"/>
        <pt x="4906" y="1133" on="0"/>
        <pt x="4906" y="1148" on="1"/>
        <pt x="4906" y="1204" on="0"/>
        <pt x="5148" y="1335" on="1"/>
        <pt x="5303" y="1420" on="0"/>
        <pt x="5444" y="1480" on="1"/>
        <pt x="5469" y="1456" on="0"/>
      </contour>
      <contour>
        <pt x="4558" y="1547" on="1"/>
        <pt x="4558" y="1470" on="0"/>
        <pt x="4121" y="1237" on="1"/>
        <pt x="4080" y="1237" on="1"/>
        <pt x="4079" y="1239" on="0"/>
        <pt x="4077" y="1239" on="1"/>
        <pt x="4066" y="1248" on="0"/>
        <pt x="4066" y="1271" on="1"/>
        <pt x="4066" y="1311" on="0"/>
        <pt x="4274" y="1441" on="1"/>
        <pt x="4392" y="1511" on="0"/>
        <pt x="4510" y="1583" on="1"/>
        <pt x="4545" y="1583" on="1"/>
        <pt x="4558" y="1569" on="0"/>
      </contour>
      <contour>
        <pt x="4414" y="1030" on="1"/>
        <pt x="4414" y="995" on="0"/>
        <pt x="4382" y="971" on="1"/>
        <pt x="4352" y="948" on="0"/>
        <pt x="4317" y="948" on="1"/>
        <pt x="4286" y="948" on="0"/>
        <pt x="4241" y="992" on="0"/>
        <pt x="4241" y="1014" on="1"/>
        <pt x="4241" y="1029" on="0"/>
        <pt x="4266" y="1068" on="1"/>
        <pt x="4295" y="1112" on="0"/>
        <pt x="4317" y="1112" on="1"/>
        <pt x="4347" y="1112" on="0"/>
        <pt x="4414" y="1053" on="0"/>
      </contour>
      <contour>
        <pt x="3943" y="1792" on="1"/>
        <pt x="3943" y="1741" on="0"/>
        <pt x="3712" y="1605" on="1"/>
        <pt x="3508" y="1487" on="0"/>
        <pt x="3426" y="1460" on="1"/>
        <pt x="3411" y="1475" on="0"/>
        <pt x="3411" y="1491" on="1"/>
        <pt x="3411" y="1559" on="0"/>
        <pt x="3498" y="1604" on="1"/>
        <pt x="3558" y="1630" on="0"/>
        <pt x="3618" y="1656" on="1"/>
        <pt x="3789" y="1769" on="0"/>
        <pt x="3897" y="1818" on="1"/>
        <pt x="3931" y="1818" on="1"/>
        <pt x="3943" y="1816" on="0"/>
      </contour>
      <contour>
        <pt x="5571" y="237" on="1"/>
        <pt x="5571" y="70" on="0"/>
        <pt x="5426" y="-113" on="1"/>
        <pt x="5269" y="-311" on="0"/>
        <pt x="5090" y="-311" on="1"/>
        <pt x="5031" y="-311" on="0"/>
        <pt x="4904" y="-289" on="1"/>
        <pt x="4814" y="-274" on="0"/>
        <pt x="4723" y="-258" on="1"/>
        <pt x="4712" y="-212" on="1"/>
        <pt x="4758" y="-188" on="0"/>
        <pt x="4778" y="-188" on="1"/>
        <pt x="4790" y="-188" on="0"/>
        <pt x="4858" y="-208" on="0"/>
        <pt x="4870" y="-208" on="1"/>
        <pt x="5037" y="-208" on="0"/>
        <pt x="5186" y="-131" on="1"/>
        <pt x="5378" y="-32" on="0"/>
        <pt x="5459" y="165" on="1"/>
        <pt x="5463" y="170" on="0"/>
        <pt x="5453" y="180" on="1"/>
        <pt x="5409" y="143" on="0"/>
        <pt x="5380" y="129" on="0"/>
        <pt x="5341" y="129" on="1"/>
        <pt x="5274" y="129" on="0"/>
        <pt x="5233" y="213" on="1"/>
        <pt x="5202" y="274" on="0"/>
        <pt x="5202" y="324" on="1"/>
        <pt x="5202" y="384" on="0"/>
        <pt x="5253" y="469" on="1"/>
        <pt x="5307" y="559" on="0"/>
        <pt x="5356" y="559" on="1"/>
        <pt x="5449" y="559" on="0"/>
        <pt x="5518" y="414" on="1"/>
        <pt x="5571" y="301" on="0"/>
      </contour>
      <contour>
        <pt x="3934" y="1430" on="1"/>
        <pt x="3934" y="1408" on="0"/>
        <pt x="3916" y="1367" on="1"/>
        <pt x="3895" y="1321" on="0"/>
        <pt x="3870" y="1300" on="1"/>
        <pt x="3848" y="1281" on="0"/>
        <pt x="3808" y="1271" on="1"/>
        <pt x="3750" y="1253" on="0"/>
        <pt x="3746" y="1252" on="1"/>
        <pt x="3656" y="1214" on="0"/>
        <pt x="3657" y="1214" on="1"/>
        <pt x="3575" y="1214" on="0"/>
        <pt x="3575" y="1316" on="1"/>
        <pt x="3575" y="1342" on="0"/>
        <pt x="3636" y="1439" on="1"/>
        <pt x="3657" y="1411" on="0"/>
        <pt x="3655" y="1356" on="1"/>
        <pt x="3663" y="1356" on="0"/>
        <pt x="3682" y="1337" on="1"/>
        <pt x="3710" y="1364" on="0"/>
        <pt x="3752" y="1449" on="1"/>
        <pt x="3767" y="1444" on="0"/>
        <pt x="3786" y="1415" on="1"/>
        <pt x="3802" y="1389" on="0"/>
        <pt x="3816" y="1389" on="1"/>
        <pt x="3831" y="1389" on="0"/>
        <pt x="3848" y="1416" on="1"/>
        <pt x="3848" y="1444" on="0"/>
        <pt x="3884" y="1500" on="1"/>
        <pt x="3893" y="1500" on="0"/>
        <pt x="3918" y="1484" on="1"/>
        <pt x="3934" y="1420" on="0"/>
      </contour>
      <contour>
        <pt x="3329" y="1696" on="1"/>
        <pt x="3329" y="1651" on="0"/>
        <pt x="3146" y="1550" on="1"/>
        <pt x="2892" y="1409" on="0"/>
        <pt x="2824" y="1358" on="1"/>
        <pt x="2779" y="1358" on="1"/>
        <pt x="2766" y="1371" on="1"/>
        <pt x="2766" y="1439" on="1"/>
        <pt x="3026" y="1598" on="0"/>
        <pt x="3272" y="1736" on="1"/>
        <pt x="3316" y="1736" on="1"/>
        <pt x="3329" y="1723" on="0"/>
      </contour>
      <contour>
        <pt x="3472" y="907" on="1"/>
        <pt x="3472" y="872" on="0"/>
        <pt x="3429" y="836" on="1"/>
        <pt x="3391" y="804" on="0"/>
        <pt x="3370" y="804" on="1"/>
        <pt x="3361" y="804" on="0"/>
        <pt x="3296" y="845" on="0"/>
        <pt x="3283" y="845" on="1"/>
        <pt x="3270" y="845" on="0"/>
        <pt x="3188" y="784" on="0"/>
        <pt x="3176" y="784" on="1"/>
        <pt x="3150" y="784" on="0"/>
        <pt x="3063" y="856" on="0"/>
        <pt x="3063" y="877" on="1"/>
        <pt x="3063" y="910" on="0"/>
        <pt x="3100" y="941" on="1"/>
        <pt x="3131" y="968" on="0"/>
        <pt x="3150" y="968" on="1"/>
        <pt x="3161" y="968" on="0"/>
        <pt x="3234" y="938" on="0"/>
        <pt x="3247" y="938" on="1"/>
        <pt x="3260" y="938" on="0"/>
        <pt x="3347" y="989" on="0"/>
        <pt x="3360" y="989" on="1"/>
        <pt x="3400" y="989" on="0"/>
        <pt x="3472" y="931" on="0"/>
      </contour>
      <contour>
        <pt x="4824" y="333" on="1"/>
        <pt x="4824" y="217" on="0"/>
        <pt x="4591" y="97" on="1"/>
        <pt x="4395" y="-4" on="0"/>
        <pt x="4312" y="-4" on="1"/>
        <pt x="4302" y="-4" on="0"/>
        <pt x="4172" y="-14" on="0"/>
        <pt x="4159" y="-14" on="1"/>
        <pt x="3955" y="-14" on="0"/>
        <pt x="3906" y="109" on="1"/>
        <pt x="3890" y="105" on="0"/>
        <pt x="3861" y="75" on="1"/>
        <pt x="3827" y="38" on="0"/>
        <pt x="3815" y="29" on="1"/>
        <pt x="3788" y="12" on="0"/>
        <pt x="3622" y="-24" on="0"/>
        <pt x="3575" y="-24" on="1"/>
        <pt x="3541" y="-24" on="0"/>
        <pt x="3243" y="57" on="0"/>
        <pt x="3247" y="57" on="1"/>
        <pt x="3235" y="57" on="0"/>
        <pt x="3216" y="46" on="1"/>
        <pt x="3192" y="32" on="0"/>
        <pt x="3182" y="29" on="1"/>
        <pt x="3035" y="-14" on="0"/>
        <pt x="2925" y="-14" on="1"/>
        <pt x="2816" y="-14" on="0"/>
        <pt x="2778" y="20" on="1"/>
        <pt x="2703" y="88" on="0"/>
        <pt x="2689" y="88" on="1"/>
        <pt x="2676" y="88" on="0"/>
        <pt x="2638" y="64" on="1"/>
        <pt x="2592" y="34" on="0"/>
        <pt x="2579" y="29" on="1"/>
        <pt x="2517" y="4" on="0"/>
        <pt x="2393" y="-31" on="1"/>
        <pt x="2247" y="-59" on="0"/>
        <pt x="1778" y="-106" on="1"/>
        <pt x="1369" y="-117" on="1"/>
        <pt x="958" y="-117" on="0"/>
        <pt x="733" y="-72" on="1"/>
        <pt x="491" y="-27" on="0"/>
        <pt x="289" y="203" on="1"/>
        <pt x="284" y="242" on="0"/>
        <pt x="324" y="242" on="1"/>
        <pt x="335" y="242" on="0"/>
        <pt x="412" y="202" on="1"/>
        <pt x="499" y="155" on="0"/>
        <pt x="541" y="142" on="1"/>
        <pt x="631" y="111" on="0"/>
        <pt x="807" y="80" on="1"/>
        <pt x="934" y="57" on="0"/>
        <pt x="1032" y="57" on="1"/>
        <pt x="1715" y="57" on="1"/>
        <pt x="1759" y="57" on="0"/>
        <pt x="1932" y="69" on="1"/>
        <pt x="2149" y="84" on="0"/>
        <pt x="2248" y="101" on="1"/>
        <pt x="2488" y="142" on="0"/>
        <pt x="2491" y="143" on="1"/>
        <pt x="2641" y="189" on="0"/>
        <pt x="2728" y="322" on="1"/>
        <pt x="2775" y="322" on="1"/>
        <pt x="2783" y="206" on="0"/>
        <pt x="2842" y="170" on="1"/>
        <pt x="2874" y="149" on="0"/>
        <pt x="2955" y="149" on="1"/>
        <pt x="2966" y="149" on="0"/>
        <pt x="3016" y="155" on="1"/>
        <pt x="3071" y="161" on="0"/>
        <pt x="3098" y="162" on="1"/>
        <pt x="3127" y="170" on="0"/>
        <pt x="3128" y="218" on="1"/>
        <pt x="3127" y="253" on="0"/>
        <pt x="3127" y="288" on="1"/>
        <pt x="3131" y="317" on="0"/>
        <pt x="3148" y="372" on="1"/>
        <pt x="3221" y="520" on="0"/>
        <pt x="3301" y="575" on="1"/>
        <pt x="3340" y="590" on="0"/>
        <pt x="3340" y="590" on="1"/>
        <pt x="3524" y="590" on="0"/>
        <pt x="3524" y="406" on="1"/>
        <pt x="3524" y="340" on="0"/>
        <pt x="3462" y="187" on="1"/>
        <pt x="3540" y="149" on="0"/>
        <pt x="3595" y="149" on="1"/>
        <pt x="3672" y="149" on="1"/>
        <pt x="3742" y="149" on="0"/>
        <pt x="3867" y="224" on="0"/>
        <pt x="3872" y="272" on="1"/>
        <pt x="3749" y="1050" on="1"/>
        <pt x="3749" y="1043" on="0"/>
        <pt x="3782" y="1141" on="1"/>
        <pt x="3829" y="1141" on="1"/>
        <pt x="3867" y="1053" on="0"/>
        <pt x="3888" y="931" on="1"/>
        <pt x="3903" y="815" on="0"/>
        <pt x="3919" y="698" on="1"/>
        <pt x="3928" y="630" on="0"/>
        <pt x="3950" y="462" on="1"/>
        <pt x="3988" y="170" on="0"/>
        <pt x="4083" y="170" on="1"/>
        <pt x="4131" y="170" on="1"/>
        <pt x="4126" y="194" on="0"/>
        <pt x="4131" y="248" on="1"/>
        <pt x="4181" y="422" on="0"/>
        <pt x="4235" y="506" on="1"/>
        <pt x="4321" y="641" on="0"/>
        <pt x="4450" y="641" on="1"/>
        <pt x="4491" y="641" on="0"/>
        <pt x="4577" y="596" on="1"/>
        <pt x="4678" y="544" on="0"/>
        <pt x="4681" y="490" on="1"/>
        <pt x="4673" y="483" on="0"/>
        <pt x="4656" y="469" on="1"/>
        <pt x="4642" y="472" on="0"/>
        <pt x="4586" y="486" on="1"/>
        <pt x="4540" y="497" on="0"/>
        <pt x="4527" y="497" on="1"/>
        <pt x="4479" y="497" on="0"/>
        <pt x="4381" y="459" on="1"/>
        <pt x="4261" y="411" on="0"/>
        <pt x="4261" y="360" on="1"/>
        <pt x="4261" y="307" on="0"/>
        <pt x="4320" y="247" on="1"/>
        <pt x="4377" y="190" on="0"/>
        <pt x="4419" y="190" on="1"/>
        <pt x="4468" y="190" on="0"/>
        <pt x="4602" y="257" on="1"/>
        <pt x="4730" y="322" on="0"/>
        <pt x="4776" y="364" on="1"/>
        <pt x="4811" y="364" on="1"/>
        <pt x="4824" y="351" on="0"/>
      </contour>
      <contour>
        <pt x="1763" y="656" on="1"/>
        <pt x="1763" y="623" on="0"/>
        <pt x="1719" y="595" on="1"/>
        <pt x="1682" y="569" on="0"/>
        <pt x="1655" y="569" on="1"/>
        <pt x="1642" y="569" on="0"/>
        <pt x="1581" y="600" on="0"/>
        <pt x="1569" y="600" on="1"/>
        <pt x="1555" y="600" on="0"/>
        <pt x="1473" y="528" on="0"/>
        <pt x="1460" y="528" on="1"/>
        <pt x="1430" y="528" on="0"/>
        <pt x="1354" y="601" on="1"/>
        <pt x="1351" y="636" on="0"/>
        <pt x="1379" y="677" on="1"/>
        <pt x="1410" y="723" on="0"/>
        <pt x="1446" y="723" on="1"/>
        <pt x="1462" y="723" on="0"/>
        <pt x="1492" y="707" on="1"/>
        <pt x="1537" y="684" on="0"/>
        <pt x="1541" y="682" on="1"/>
        <pt x="1623" y="763" on="0"/>
        <pt x="1640" y="763" on="1"/>
        <pt x="1674" y="763" on="0"/>
        <pt x="1763" y="680" on="0"/>
      </contour>
      <contour>
        <pt x="1721" y="-235" on="1"/>
        <pt x="1723" y="-274" on="0"/>
        <pt x="1668" y="-298" on="1"/>
        <pt x="1255" y="-475" on="0"/>
        <pt x="1234" y="-474" on="1"/>
        <pt x="1191" y="-474" on="1"/>
        <pt x="1191" y="-470" on="0"/>
        <pt x="1179" y="-458" on="0"/>
        <pt x="1179" y="-444" on="1"/>
        <pt x="1179" y="-385" on="0"/>
        <pt x="1224" y="-367" on="1"/>
        <pt x="1685" y="-178" on="0"/>
        <pt x="1686" y="-178" on="1"/>
        <pt x="1700" y="-178" on="0"/>
        <pt x="1718" y="-190" on="0"/>
        <pt x="1721" y="-190" on="1"/>
      </contour>
      <contour>
        <pt x="5387" y="315" on="1"/>
        <pt x="5387" y="354" on="1"/>
        <pt x="5387" y="370" on="0"/>
        <pt x="5381" y="374" on="1"/>
        <pt x="5378" y="375" on="0"/>
        <pt x="5375" y="374" on="1"/>
        <pt x="5338" y="374" on="1"/>
        <pt x="5327" y="315" on="1"/>
        <pt x="5330" y="315" on="0"/>
        <pt x="5347" y="303" on="0"/>
        <pt x="5361" y="303" on="1"/>
        <pt x="5385" y="303" on="0"/>
      </contour>
      <contour>
        <pt x="3401" y="344" on="1"/>
        <pt x="3401" y="359" on="0"/>
        <pt x="3383" y="393" on="1"/>
        <pt x="3361" y="436" on="0"/>
        <pt x="3335" y="436" on="1"/>
        <pt x="3317" y="436" on="0"/>
        <pt x="3247" y="330" on="0"/>
        <pt x="3247" y="308" on="1"/>
        <pt x="3247" y="251" on="0"/>
        <pt x="3314" y="251" on="1"/>
        <pt x="3342" y="251" on="0"/>
        <pt x="3370" y="277" on="1"/>
        <pt x="3401" y="306" on="0"/>
      </contour>
    </TTGlyph>
    <TTGlyph name="uniFB59" xMin="29" yMin="-444" xMax="4605" yMax="1828">
      <contour>
        <pt x="4605" y="1480" on="1"/>
        <pt x="4605" y="1477" on="0"/>
        <pt x="4539" y="1360" on="1"/>
        <pt x="4526" y="1338" on="0"/>
        <pt x="4454" y="1298" on="1"/>
        <pt x="4376" y="1255" on="0"/>
        <pt x="4333" y="1255" on="1"/>
        <pt x="4322" y="1255" on="0"/>
        <pt x="4227" y="1286" on="0"/>
        <pt x="4216" y="1286" on="1"/>
        <pt x="4214" y="1286" on="0"/>
        <pt x="4135" y="1266" on="1"/>
        <pt x="4135" y="1323" on="1"/>
        <pt x="4164" y="1372" on="0"/>
        <pt x="4219" y="1394" on="1"/>
        <pt x="4246" y="1390" on="0"/>
        <pt x="4300" y="1400" on="1"/>
        <pt x="4330" y="1416" on="0"/>
        <pt x="4403" y="1503" on="1"/>
        <pt x="4459" y="1573" on="0"/>
        <pt x="4517" y="1573" on="1"/>
        <pt x="4558" y="1573" on="0"/>
        <pt x="4584" y="1539" on="1"/>
        <pt x="4605" y="1511" on="0"/>
      </contour>
      <contour>
        <pt x="4154" y="1526" on="1"/>
        <pt x="4154" y="1465" on="0"/>
        <pt x="4029" y="1402" on="1"/>
        <pt x="3923" y="1348" on="0"/>
        <pt x="3873" y="1348" on="1"/>
        <pt x="3866" y="1348" on="0"/>
        <pt x="3817" y="1369" on="1"/>
        <pt x="3817" y="1398" on="1"/>
        <pt x="3863" y="1426" on="0"/>
        <pt x="3950" y="1486" on="1"/>
        <pt x="3937" y="1501" on="0"/>
        <pt x="3898" y="1501" on="1"/>
        <pt x="3869" y="1501" on="0"/>
        <pt x="3810" y="1481" on="1"/>
        <pt x="3796" y="1482" on="0"/>
        <pt x="3796" y="1506" on="1"/>
        <pt x="3796" y="1542" on="0"/>
        <pt x="3860" y="1584" on="1"/>
        <pt x="3918" y="1624" on="0"/>
        <pt x="3950" y="1624" on="1"/>
        <pt x="3994" y="1624" on="0"/>
        <pt x="4072" y="1590" on="1"/>
        <pt x="4154" y="1555" on="0"/>
      </contour>
      <contour>
        <pt x="4462" y="272" on="1"/>
        <pt x="4462" y="165" on="0"/>
        <pt x="4437" y="71" on="1"/>
        <pt x="4427" y="55" on="0"/>
        <pt x="4408" y="17" on="1"/>
        <pt x="4376" y="13" on="0"/>
        <pt x="4362" y="51" on="1"/>
        <pt x="4362" y="242" on="0"/>
        <pt x="4324" y="532" on="1"/>
        <pt x="4315" y="607" on="0"/>
        <pt x="4283" y="816" on="1"/>
        <pt x="4257" y="991" on="0"/>
        <pt x="4257" y="1004" on="1"/>
        <pt x="4257" y="1107" on="0"/>
        <pt x="4300" y="1153" on="1"/>
        <pt x="4327" y="1153" on="0"/>
        <pt x="4334" y="1140" on="1"/>
        <pt x="4398" y="952" on="0"/>
        <pt x="4426" y="687" on="1"/>
        <pt x="4462" y="369" on="0"/>
      </contour>
      <contour>
        <pt x="3222" y="1792" on="1"/>
        <pt x="3222" y="1741" on="0"/>
        <pt x="3107" y="1674" on="1"/>
        <pt x="3040" y="1642" on="0"/>
        <pt x="2974" y="1611" on="1"/>
        <pt x="2886" y="1561" on="0"/>
        <pt x="2714" y="1480" on="1"/>
        <pt x="2700" y="1495" on="0"/>
        <pt x="2700" y="1521" on="1"/>
        <pt x="2700" y="1602" on="0"/>
        <pt x="3165" y="1828" on="1"/>
        <pt x="3209" y="1828" on="1"/>
        <pt x="3222" y="1815" on="0"/>
      </contour>
      <contour>
        <pt x="3222" y="1294" on="1"/>
        <pt x="3216" y="1270" on="0"/>
        <pt x="3196" y="1228" on="1"/>
        <pt x="3104" y="1195" on="0"/>
        <pt x="2920" y="1132" on="1"/>
        <pt x="2906" y="1144" on="0"/>
        <pt x="2896" y="1144" on="1"/>
        <pt x="2899" y="1179" on="0"/>
        <pt x="2854" y="1270" on="0"/>
        <pt x="2854" y="1286" on="1"/>
        <pt x="2854" y="1330" on="0"/>
        <pt x="2985" y="1480" on="0"/>
        <pt x="3028" y="1480" on="1"/>
        <pt x="3066" y="1480" on="0"/>
        <pt x="3095" y="1447" on="1"/>
        <pt x="3120" y="1419" on="0"/>
        <pt x="3120" y="1398" on="1"/>
        <pt x="3120" y="1337" on="0"/>
        <pt x="3058" y="1327" on="1"/>
        <pt x="3054" y="1327" on="0"/>
        <pt x="2993" y="1357" on="1"/>
        <pt x="2976" y="1342" on="1"/>
        <pt x="3021" y="1299" on="0"/>
        <pt x="3087" y="1299" on="1"/>
        <pt x="3099" y="1299" on="0"/>
        <pt x="3152" y="1303" on="0"/>
        <pt x="3164" y="1303" on="1"/>
        <pt x="3198" y="1303" on="0"/>
      </contour>
      <contour>
        <pt x="4021" y="984" on="1"/>
        <pt x="4021" y="957" on="0"/>
        <pt x="3978" y="918" on="1"/>
        <pt x="3930" y="873" on="0"/>
        <pt x="3921" y="849" on="1"/>
        <pt x="3901" y="721" on="0"/>
        <pt x="3864" y="512" on="1"/>
        <pt x="3855" y="476" on="0"/>
        <pt x="3814" y="381" on="1"/>
        <pt x="3775" y="292" on="0"/>
        <pt x="3775" y="283" on="1"/>
        <pt x="3775" y="270" on="0"/>
        <pt x="3827" y="106" on="0"/>
        <pt x="3827" y="93" on="1"/>
        <pt x="3827" y="57" on="0"/>
        <pt x="3823" y="41" on="1"/>
        <pt x="3807" y="-22" on="0"/>
        <pt x="3772" y="-31" on="1"/>
        <pt x="3694" y="-53" on="0"/>
        <pt x="3549" y="-71" on="1"/>
        <pt x="3430" y="-86" on="0"/>
        <pt x="3397" y="-86" on="1"/>
        <pt x="3253" y="-86" on="0"/>
        <pt x="3253" y="42" on="1"/>
        <pt x="3253" y="119" on="0"/>
        <pt x="3299" y="119" on="1"/>
        <pt x="3312" y="119" on="0"/>
        <pt x="3389" y="98" on="0"/>
        <pt x="3402" y="98" on="1"/>
        <pt x="3438" y="98" on="0"/>
        <pt x="3531" y="170" on="1"/>
        <pt x="3632" y="248" on="0"/>
        <pt x="3632" y="298" on="1"/>
        <pt x="3632" y="311" on="0"/>
        <pt x="3616" y="329" on="1"/>
        <pt x="3597" y="351" on="0"/>
        <pt x="3594" y="357" on="1"/>
        <pt x="3547" y="469" on="0"/>
        <pt x="3416" y="600" on="1"/>
        <pt x="3325" y="685" on="0"/>
        <pt x="3235" y="771" on="1"/>
        <pt x="2967" y="777" on="0"/>
        <pt x="2967" y="958" on="1"/>
        <pt x="2967" y="1000" on="0"/>
        <pt x="2982" y="1038" on="1"/>
        <pt x="3000" y="1081" on="0"/>
        <pt x="3028" y="1081" on="1"/>
        <pt x="3068" y="1081" on="0"/>
        <pt x="3190" y="980" on="1"/>
        <pt x="3292" y="904" on="0"/>
        <pt x="3504" y="711" on="1"/>
        <pt x="3551" y="662" on="0"/>
        <pt x="3611" y="571" on="1"/>
        <pt x="3685" y="457" on="0"/>
        <pt x="3710" y="426" on="1"/>
        <pt x="3757" y="465" on="0"/>
        <pt x="3772" y="539" on="1"/>
        <pt x="3780" y="614" on="0"/>
        <pt x="3788" y="687" on="1"/>
        <pt x="3804" y="750" on="0"/>
        <pt x="3823" y="872" on="1"/>
        <pt x="3824" y="889" on="0"/>
        <pt x="3815" y="938" on="1"/>
        <pt x="3804" y="991" on="0"/>
        <pt x="3804" y="1018" on="1"/>
        <pt x="3804" y="1033" on="0"/>
        <pt x="3806" y="1046" on="1"/>
        <pt x="3812" y="1083" on="0"/>
        <pt x="3834" y="1136" on="1"/>
        <pt x="3866" y="1212" on="0"/>
        <pt x="3902" y="1235" on="1"/>
        <pt x="3931" y="1235" on="0"/>
        <pt x="3946" y="1211" on="1"/>
        <pt x="3941" y="1161" on="0"/>
        <pt x="3951" y="1078" on="1"/>
        <pt x="3959" y="1060" on="0"/>
        <pt x="3992" y="1026" on="1"/>
        <pt x="4021" y="997" on="0"/>
      </contour>
      <contour>
        <pt x="2792" y="1013" on="1"/>
        <pt x="2792" y="997" on="0"/>
        <pt x="2744" y="956" on="1"/>
        <pt x="2700" y="918" on="0"/>
        <pt x="2667" y="900" on="1"/>
        <pt x="2621" y="875" on="0"/>
        <pt x="2539" y="854" on="1"/>
        <pt x="2469" y="836" on="0"/>
        <pt x="2444" y="836" on="1"/>
        <pt x="2419" y="836" on="0"/>
        <pt x="2383" y="871" on="1"/>
        <pt x="2410" y="904" on="0"/>
        <pt x="2558" y="952" on="0"/>
        <pt x="2587" y="984" on="1"/>
        <pt x="2565" y="1009" on="0"/>
        <pt x="2532" y="1009" on="1"/>
        <pt x="2555" y="1009" on="0"/>
        <pt x="2405" y="980" on="1"/>
        <pt x="2405" y="1013" on="1"/>
        <pt x="2404" y="1058" on="0"/>
        <pt x="2479" y="1099" on="1"/>
        <pt x="2541" y="1132" on="0"/>
        <pt x="2573" y="1132" on="1"/>
        <pt x="2618" y="1132" on="0"/>
        <pt x="2792" y="1058" on="1"/>
      </contour>
      <contour>
        <pt x="2250" y="1573" on="1"/>
        <pt x="2250" y="1496" on="0"/>
        <pt x="1785" y="1245" on="1"/>
        <pt x="1751" y="1245" on="1"/>
        <pt x="1738" y="1258" on="0"/>
        <pt x="1738" y="1280" on="1"/>
        <pt x="1738" y="1325" on="0"/>
        <pt x="1860" y="1401" on="1"/>
        <pt x="1923" y="1437" on="0"/>
        <pt x="1986" y="1472" on="1"/>
        <pt x="2064" y="1525" on="0"/>
        <pt x="2215" y="1613" on="1"/>
        <pt x="2225" y="1606" on="0"/>
        <pt x="2236" y="1599" on="1"/>
        <pt x="2250" y="1588" on="0"/>
      </contour>
      <contour>
        <pt x="1902" y="656" on="1"/>
        <pt x="1902" y="581" on="0"/>
        <pt x="1869" y="498" on="1"/>
        <pt x="1844" y="498" on="0"/>
        <pt x="1834" y="487" on="1"/>
        <pt x="1816" y="582" on="0"/>
        <pt x="1796" y="634" on="1"/>
        <pt x="1794" y="637" on="0"/>
        <pt x="1728" y="727" on="1"/>
        <pt x="1667" y="810" on="0"/>
        <pt x="1667" y="830" on="1"/>
        <pt x="1685" y="897" on="0"/>
        <pt x="1712" y="897" on="1"/>
        <pt x="1762" y="897" on="0"/>
        <pt x="1835" y="792" on="1"/>
        <pt x="1902" y="696" on="0"/>
      </contour>
      <contour>
        <pt x="2762" y="-326" on="1"/>
        <pt x="2762" y="-352" on="0"/>
        <pt x="2718" y="-385" on="1"/>
        <pt x="2679" y="-413" on="0"/>
        <pt x="2664" y="-413" on="1"/>
        <pt x="2633" y="-413" on="0"/>
        <pt x="2568" y="-350" on="1"/>
        <pt x="2564" y="-314" on="0"/>
        <pt x="2593" y="-268" on="1"/>
        <pt x="2623" y="-219" on="0"/>
        <pt x="2659" y="-219" on="1"/>
        <pt x="2690" y="-219" on="0"/>
        <pt x="2762" y="-303" on="0"/>
      </contour>
      <contour>
        <pt x="2864" y="272" on="1"/>
        <pt x="2864" y="212" on="0"/>
        <pt x="2826" y="152" on="1"/>
        <pt x="2785" y="85" on="0"/>
        <pt x="2727" y="70" on="1"/>
        <pt x="2669" y="64" on="0"/>
        <pt x="2555" y="24" on="1"/>
        <pt x="2537" y="12" on="0"/>
        <pt x="2471" y="-134" on="1"/>
        <pt x="2434" y="-215" on="0"/>
        <pt x="2338" y="-303" on="1"/>
        <pt x="2247" y="-385" on="0"/>
        <pt x="2165" y="-421" on="1"/>
        <pt x="2110" y="-444" on="0"/>
        <pt x="2009" y="-444" on="1"/>
        <pt x="1921" y="-444" on="0"/>
        <pt x="1818" y="-416" on="1"/>
        <pt x="1678" y="-377" on="0"/>
        <pt x="1626" y="-305" on="1"/>
        <pt x="1650" y="-280" on="0"/>
        <pt x="1667" y="-280" on="1"/>
        <pt x="1679" y="-280" on="0"/>
        <pt x="1863" y="-331" on="0"/>
        <pt x="1876" y="-331" on="1"/>
        <pt x="2038" y="-331" on="0"/>
        <pt x="2152" y="-261" on="1"/>
        <pt x="2247" y="-202" on="0"/>
        <pt x="2415" y="-18" on="1"/>
        <pt x="2415" y="8" on="1"/>
        <pt x="2398" y="15" on="0"/>
        <pt x="2364" y="6" on="1"/>
        <pt x="2322" y="-4" on="0"/>
        <pt x="2316" y="-4" on="1"/>
        <pt x="2259" y="-4" on="0"/>
        <pt x="2222" y="46" on="1"/>
        <pt x="2188" y="91" on="0"/>
        <pt x="2188" y="144" on="1"/>
        <pt x="2188" y="227" on="0"/>
        <pt x="2232" y="297" on="1"/>
        <pt x="2286" y="385" on="0"/>
        <pt x="2378" y="385" on="1"/>
        <pt x="2425" y="385" on="0"/>
        <pt x="2524" y="201" on="0"/>
        <pt x="2578" y="201" on="1"/>
        <pt x="2587" y="201" on="0"/>
        <pt x="2696" y="222" on="0"/>
        <pt x="2724" y="224" on="1"/>
        <pt x="2751" y="240" on="0"/>
        <pt x="2751" y="267" on="1"/>
        <pt x="2751" y="280" on="0"/>
        <pt x="2628" y="459" on="0"/>
        <pt x="2628" y="472" on="1"/>
        <pt x="2647" y="579" on="0"/>
        <pt x="2685" y="579" on="1"/>
        <pt x="2722" y="579" on="0"/>
        <pt x="2798" y="475" on="1"/>
        <pt x="2864" y="384" on="0"/>
      </contour>
      <contour>
        <pt x="1093" y="1430" on="1"/>
        <pt x="1093" y="1387" on="0"/>
        <pt x="1066" y="1369" on="1"/>
        <pt x="970" y="1303" on="0"/>
        <pt x="788" y="1201" on="1"/>
        <pt x="582" y="1085" on="0"/>
        <pt x="507" y="1037" on="1"/>
        <pt x="470" y="1010" on="0"/>
        <pt x="433" y="983" on="1"/>
        <pt x="385" y="949" on="0"/>
        <pt x="370" y="949" on="1"/>
        <pt x="317" y="949" on="1"/>
        <pt x="317" y="953" on="0"/>
        <pt x="304" y="974" on="0"/>
        <pt x="304" y="989" on="1"/>
        <pt x="304" y="1044" on="0"/>
        <pt x="601" y="1214" on="1"/>
        <pt x="824" y="1337" on="0"/>
        <pt x="1046" y="1460" on="1"/>
        <pt x="1080" y="1460" on="1"/>
        <pt x="1093" y="1446" on="0"/>
      </contour>
      <contour>
        <pt x="1585" y="231" on="1"/>
        <pt x="1585" y="191" on="0"/>
        <pt x="1562" y="136" on="1"/>
        <pt x="1536" y="73" on="0"/>
        <pt x="1500" y="50" on="1"/>
        <pt x="1386" y="-23" on="0"/>
        <pt x="1150" y="-58" on="1"/>
        <pt x="1104" y="-75" on="0"/>
        <pt x="1016" y="-93" on="1"/>
        <pt x="974" y="-96" on="0"/>
        <pt x="846" y="-107" on="1"/>
        <pt x="738" y="-117" on="0"/>
        <pt x="725" y="-117" on="1"/>
        <pt x="711" y="-117" on="0"/>
        <pt x="522" y="-106" on="0"/>
        <pt x="509" y="-106" on="1"/>
        <pt x="472" y="-106" on="0"/>
        <pt x="371" y="-83" on="1"/>
        <pt x="239" y="-53" on="0"/>
        <pt x="174" y="-11" on="1"/>
        <pt x="132" y="16" on="0"/>
        <pt x="29" y="174" on="1"/>
        <pt x="29" y="220" on="1"/>
        <pt x="83" y="220" on="1"/>
        <pt x="95" y="220" on="0"/>
        <pt x="149" y="183" on="1"/>
        <pt x="212" y="141" on="0"/>
        <pt x="240" y="131" on="1"/>
        <pt x="487" y="47" on="0"/>
        <pt x="714" y="47" on="1"/>
        <pt x="837" y="47" on="1"/>
        <pt x="860" y="47" on="0"/>
        <pt x="1067" y="83" on="1"/>
        <pt x="1295" y="121" on="0"/>
        <pt x="1425" y="152" on="1"/>
        <pt x="1472" y="163" on="0"/>
        <pt x="1472" y="211" on="1"/>
        <pt x="1472" y="208" on="0"/>
        <pt x="1369" y="373" on="0"/>
        <pt x="1369" y="401" on="1"/>
        <pt x="1369" y="423" on="0"/>
        <pt x="1382" y="455" on="1"/>
        <pt x="1400" y="497" on="0"/>
        <pt x="1426" y="497" on="1"/>
        <pt x="1477" y="497" on="0"/>
        <pt x="1535" y="383" on="1"/>
        <pt x="1585" y="281" on="0"/>
      </contour>
      <contour>
        <pt x="970" y="-311" on="1"/>
        <pt x="970" y="-336" on="0"/>
        <pt x="933" y="-366" on="1"/>
        <pt x="900" y="-393" on="0"/>
        <pt x="883" y="-393" on="1"/>
        <pt x="842" y="-393" on="0"/>
        <pt x="775" y="-334" on="0"/>
        <pt x="775" y="-295" on="1"/>
        <pt x="775" y="-275" on="0"/>
        <pt x="793" y="-242" on="1"/>
        <pt x="816" y="-199" on="0"/>
        <pt x="847" y="-199" on="1"/>
        <pt x="894" y="-199" on="0"/>
        <pt x="934" y="-242" on="1"/>
        <pt x="970" y="-280" on="0"/>
      </contour>
      <contour>
        <pt x="4452" y="1418" on="1"/>
        <pt x="4446" y="1433" on="1"/>
        <pt x="4422" y="1420" on="1"/>
        <pt x="4422" y="1406" on="1"/>
      </contour>
      <contour>
        <pt x="3688" y="170" on="1"/>
        <pt x="3665" y="146" on="0"/>
        <pt x="3665" y="120" on="1"/>
        <pt x="3674" y="120" on="0"/>
        <pt x="3686" y="125" on="1"/>
        <pt x="3697" y="128" on="0"/>
        <pt x="3697" y="145" on="1"/>
        <pt x="3697" y="161" on="0"/>
      </contour>
      <contour>
        <pt x="2352" y="184" on="1"/>
        <pt x="2337" y="230" on="0"/>
        <pt x="2303" y="230" on="1"/>
        <pt x="2292" y="193" on="1"/>
        <pt x="2338" y="170" on="0"/>
      </contour>
    </TTGlyph>
</ttFont>
